<svg width="100" height="100" viewBox="0 0 100 100" fill="none" xmlns="http://www.w3.org/2000/svg">
<path fill-rule="evenodd" clip-rule="evenodd" d="M45.662 100C60.445 99.9967 75.6187 97.6372 85.6997 86.8734C96.7277 75.0984 102.316 58.7241 99.0952 42.9477C95.7866 26.7394 84.204 13.5355 69.2556 6.31673C54.2518 -0.928787 36.037 -2.91881 21.7108 5.57759C8.42361 13.4577 6.25526 30.349 3.26271 45.4547C0.433816 59.7343 -3.34565 75.3804 5.60193 86.8912C14.6523 98.5342 30.8734 100.003 45.662 100Z" fill="#F6F6F9"/>
<path d="M26.3 25.5427C26.3675 24.7189 26.3512 23.9814 26.4975 23.2789C27.005 20.8464 29.115 19.0564 31.5962 19.0064C34.4275 18.9502 37.2612 18.9789 40.0937 18.9777C44.8212 18.9752 49.55 19.0252 54.2762 18.9402C55.3587 18.9214 56.0562 19.2664 56.77 19.9902C60.0462 23.3114 63.3537 26.6027 66.6712 29.8827C67.2175 30.4239 67.4587 31.0089 67.4462 31.7677C67.4187 33.4339 67.4375 35.1002 67.4375 36.7664C67.4375 36.9914 67.4375 37.2152 67.4375 37.4614C67.965 37.5139 68.4412 37.5264 68.9037 37.6114C71.4012 38.0702 73.0012 39.6014 73.7287 41.9639C74.4562 44.3277 73.7125 46.3489 71.8937 47.9802C70.5762 49.1614 69.245 50.3302 67.8962 51.4752C67.5612 51.7602 67.4287 52.0464 67.43 52.4814C67.4437 57.1264 67.4337 61.7702 67.44 66.4152C67.4437 68.6602 66.5612 70.4002 64.5837 71.5314C63.73 72.0202 62.7937 72.1777 61.825 72.1952C61.535 72.2002 61.2437 72.1964 60.905 72.1964C60.86 72.8439 60.8587 73.4639 60.77 74.0714C60.3425 76.9914 58.1625 78.8939 55.1987 78.9252C53.1162 78.9464 51.0337 78.9302 48.95 78.9302C41.16 78.9302 33.3712 78.9339 25.5812 78.9277C22.8 78.9252 20.635 77.3377 19.9637 74.7889C19.8175 74.2339 19.765 73.6389 19.765 73.0627C19.7537 59.1702 19.7562 45.2789 19.7575 31.3864C19.7575 27.9527 22.0275 25.6364 25.4737 25.5452C25.7412 25.5364 26.01 25.5427 26.3 25.5427ZM64.3962 32.9277C64.055 32.9277 63.8087 32.9277 63.5612 32.9277C60.8737 32.9277 58.1862 32.9314 55.5 32.9264C54.0475 32.9239 53.49 32.3652 53.4887 30.9289C53.4862 28.1789 53.4875 25.4289 53.4875 22.6802C53.4875 22.4614 53.4875 22.2414 53.4875 21.9914C51.1812 21.9914 48.9737 21.9914 46.7675 21.9914C41.83 21.9914 36.8937 21.9889 31.9562 21.9939C30.5725 21.9952 29.44 22.9327 29.3937 24.2114C29.3637 25.0264 29.5287 25.8477 29.5862 26.6664C29.6062 26.9514 29.5812 27.2427 29.5462 27.5277C29.5037 27.8727 29.3775 28.2127 29.3775 28.5552C29.3687 41.1377 29.37 53.7189 29.37 66.3014C29.37 68.2052 30.2962 69.1527 32.1912 69.1539C42.045 69.1577 51.8975 69.1577 61.7512 69.1539C63.4937 69.1527 64.3975 68.2364 64.3987 66.4902C64.4025 62.7402 64.4 58.9914 64.3987 55.2414C64.3987 55.0664 64.375 54.8927 64.3575 54.6377C64.195 54.7714 64.1 54.8439 64.01 54.9239C61.4312 57.1952 58.8625 59.4777 56.265 61.7277C55.9225 62.0239 55.4462 62.2977 55.0112 62.3314C52.7287 62.5127 50.4362 62.5764 48.1537 62.7552C46.82 62.8602 45.94 62.0239 46.2975 60.5089C46.7875 58.4264 47.1637 56.3177 47.6612 54.2377C47.7825 53.7302 48.0912 53.1827 48.4787 52.8377C53.6612 48.2289 58.8737 43.6539 64.0725 39.0639C64.215 38.9389 64.3837 38.7402 64.385 38.5739C64.4037 36.7214 64.3962 34.8702 64.3962 32.9277ZM57.7675 72.1952C57.47 72.1952 57.2037 72.1952 56.9362 72.1952C48.7712 72.1952 40.605 72.1977 32.44 72.1889C31.86 72.1877 31.27 72.1539 30.7037 72.0414C28.43 71.5927 26.3325 69.4814 26.345 66.4202C26.3937 54.0889 26.365 41.7577 26.365 29.4264C26.365 29.1639 26.365 28.9014 26.365 28.6502C23.8675 28.3589 22.7612 29.3227 22.7612 31.7014C22.7612 45.4289 22.775 59.1552 22.7437 72.8827C22.74 74.6039 23.775 75.9377 25.7825 75.9227C33.9687 75.8639 42.155 75.8989 50.3412 75.8977C52.0075 75.8977 53.6737 75.8914 55.34 75.8977C56.0025 75.9002 56.56 75.6664 57.0287 75.2139C57.89 74.3839 57.8762 73.3364 57.7675 72.1952ZM49.6025 59.5789C49.7362 59.5964 49.8362 59.6264 49.9337 59.6214C51.3462 59.5427 52.7587 59.4702 54.1675 59.3652C54.3687 59.3502 54.585 59.1989 54.7475 59.0564C58.0212 56.1952 61.2875 53.3264 64.555 50.4564C65.2512 49.8452 65.94 49.2264 66.6412 48.6027C65.335 47.1127 64.08 45.6802 62.8312 44.2577C62.7412 44.3127 62.7025 44.3302 62.6712 44.3564C58.715 47.8277 54.7587 51.2989 50.8075 54.7739C50.6875 54.8789 50.5587 55.0239 50.5275 55.1702C50.21 56.6277 49.9125 58.0902 49.6025 59.5789ZM68.8987 46.5977C70.0312 45.6727 71.2562 44.8239 70.9487 43.1427C70.72 41.8889 69.9412 40.9927 68.7 40.6389C67.0912 40.1789 66.125 41.2589 65.0937 42.2502C66.375 43.7152 67.63 45.1489 68.8987 46.5977ZM56.5212 29.8427C58.4487 29.8427 60.32 29.8427 62.0325 29.8427C60.23 28.0152 58.375 26.1339 56.5212 24.2539C56.5212 26.0839 56.5212 27.9439 56.5212 29.8427Z" fill="#544179"/>
<path d="M44.0025 43.5239C46.6237 43.5239 49.2462 43.5214 51.8675 43.5277C52.1562 43.5289 52.4525 43.5464 52.73 43.6177C53.4137 43.7914 53.8725 44.4114 53.855 45.0839C53.8362 45.7864 53.3225 46.3902 52.6087 46.5152C52.345 46.5614 52.0712 46.5689 51.8012 46.5702C46.5787 46.5727 41.3562 46.5727 36.1325 46.5702C35.8637 46.5702 35.59 46.5627 35.325 46.5164C34.615 46.3927 34.14 45.8439 34.1075 45.1439C34.0725 44.3914 34.4825 43.8027 35.21 43.6177C35.4875 43.5464 35.785 43.5289 36.0725 43.5289C38.7175 43.5214 41.36 43.5239 44.0025 43.5239Z" fill="#544179"/>
<path d="M40.9487 34.8627C42.635 34.8627 44.3212 34.8552 46.0062 34.8652C47.0287 34.8714 47.7187 35.4914 47.7137 36.3664C47.7075 37.2489 47.0112 37.8664 45.9975 37.8677C42.605 37.8714 39.2125 37.8714 35.82 37.8677C34.77 37.8664 34.1212 37.3002 34.1062 36.3877C34.0912 35.4402 34.725 34.8702 35.8287 34.8639C37.535 34.8564 39.2425 34.8614 40.9487 34.8627Z" fill="#544179"/>
</svg>
