<svg width="100" height="100" viewBox="0 0 100 100" fill="none" xmlns="http://www.w3.org/2000/svg">
<path fill-rule="evenodd" clip-rule="evenodd" d="M48.3197 0.0774548C64.8406 -0.866305 81.2489 6.86358 91.1235 20.579C100.649 33.8094 102.521 51.9006 96.6766 67.2439C91.6308 80.4902 77.0768 84.7374 64.4831 90.5148C52.6524 95.9422 40.5839 103.092 28.4037 98.5646C14.8821 93.5383 4.54154 81.3897 1.13564 66.9673C-2.32857 52.2981 2.45901 37.3554 11.0671 25.1522C20.2502 12.1338 32.7505 0.966844 48.3197 0.0774548Z" fill="#F6F6F9"/>
<path d="M69.8762 73.752C69.1212 73.002 68.385 72.2707 67.6487 71.5395C67.4712 71.3632 67.2887 71.192 67.1212 71.0057C66.575 70.3957 66.5637 69.632 67.0837 69.097C67.6212 68.5445 68.4212 68.5395 69.0362 69.127C69.805 69.8607 70.5437 70.6257 71.2975 71.3745C71.4437 71.5195 71.5962 71.6595 71.8025 71.8557C75.9687 67.1345 78.2275 61.6732 78.6375 55.352C77.3475 55.352 76.1025 55.3595 74.8587 55.3495C74.0562 55.3432 73.505 54.927 73.3837 54.2707C73.2175 53.3695 73.8187 52.662 74.8037 52.6432C75.8662 52.6232 76.93 52.6395 77.9925 52.637C78.195 52.637 78.3975 52.6195 78.5962 52.6107C78.7662 47.6445 75.3812 39.5095 71.7287 36.1595C70.8712 37.0245 70.0387 37.9232 69.135 38.7457C68.825 39.0282 68.3525 39.2307 67.935 39.2707C67.4025 39.322 66.9937 38.9582 66.7975 38.4495C66.5912 37.9157 66.7037 37.4157 67.1025 37.007C67.8437 36.2457 68.6025 35.5007 69.3512 34.747C69.51 34.587 69.66 34.4195 69.86 34.207C65.1412 30.0357 59.695 27.7657 53.3662 27.3632C53.3662 28.4032 53.3662 29.4157 53.3662 30.4295C53.3662 30.7207 53.38 31.0145 53.36 31.3045C53.3062 32.107 52.7475 32.6532 52.0012 32.6495C51.2575 32.6457 50.6812 32.0957 50.66 31.2907C50.6312 30.2082 50.6512 29.1245 50.65 28.0407C50.65 27.8357 50.65 27.632 50.65 27.3682C44.35 27.767 38.8987 30.0257 34.1325 34.2045C34.4975 34.572 34.8412 34.9195 35.185 35.2657C35.7587 35.842 36.3475 36.402 36.9012 36.997C37.4537 37.5907 37.4437 38.3757 36.9175 38.9032C36.3912 39.4307 35.5987 39.447 35.0112 38.8907C34.24 38.1595 33.5025 37.3932 32.7487 36.6445C32.5887 36.4857 32.4237 36.332 32.225 36.142C30.9175 37.5457 29.8337 39.0632 28.8975 40.6845C27.79 42.6007 26.92 44.6207 26.3487 46.7632C26.1775 47.407 25.875 47.922 25.165 48.067C24.1925 48.2657 23.3975 47.3107 23.685 46.2607C24.5737 43.0232 25.9525 40.0107 27.8912 37.2657C32.0912 31.317 37.705 27.3245 44.7662 25.5757C53.9775 23.2945 62.4625 25.0695 69.9925 30.847C75.82 35.317 79.5437 41.2432 80.8062 48.482C82.7475 59.6095 79.3375 68.9795 70.8687 76.452C67.6875 79.2595 63.9637 81.1345 59.8712 82.267C58.91 82.5332 58.2175 82.2195 57.9725 81.3982C57.745 80.6357 58.1725 79.972 59.1087 79.7057C63.0137 78.597 66.5075 76.7332 69.56 74.0507C69.65 73.9745 69.735 73.887 69.8762 73.752Z" fill="#544179"/>
<path d="M33.2886 64.2142C35.3199 67.8742 38.1236 70.6717 41.7899 72.7167C42.3099 71.6005 42.7974 70.5505 43.2886 69.5017C43.8299 68.3467 44.4086 68.1305 45.5874 68.6417C47.1636 69.3267 48.8011 69.7555 50.5161 69.9042C52.4474 70.0717 53.3636 71.1042 53.3649 73.0642C53.3661 75.918 53.3661 78.7717 53.3649 81.6255C53.3636 82.8592 52.8486 83.3642 51.6149 83.3542C38.7761 83.2467 27.2299 74.3792 23.7574 61.9679C23.0586 59.4692 22.6924 56.9254 22.6461 54.3355C22.6249 53.1755 23.1549 52.6417 24.2999 52.6405C27.2586 52.6367 30.2174 52.6355 33.1749 52.6405C34.7661 52.643 35.8499 53.528 36.0274 55.1067C36.2474 57.0655 36.6886 58.9492 37.4911 60.7529C37.8349 61.5254 37.5586 62.1917 36.7874 62.5717C35.8736 63.0205 34.9424 63.4354 34.0199 63.8667C33.7974 63.9692 33.5761 64.0767 33.2886 64.2142ZM25.4111 55.3805C26.0361 69.658 38.1261 80.2555 50.6099 80.553C50.6099 77.918 50.6099 75.2842 50.6099 72.7579C48.8136 72.3592 47.0786 71.9742 45.2924 71.5779C44.7961 72.6442 44.2749 73.7742 43.7424 74.8992C43.2774 75.8817 42.5874 76.1192 41.5999 75.6342C36.6649 73.2142 32.9536 69.5542 30.4836 64.643C29.8261 63.3342 30.0349 62.7555 31.3611 62.1342C32.4099 61.643 33.4586 61.1542 34.4211 60.7055C34.0186 58.8905 33.6336 57.1567 33.2399 55.3805C30.6986 55.3805 28.0799 55.3805 25.4111 55.3805Z" fill="#544179"/>
<path d="M45.365 59.3175C46.0712 59.3175 46.7325 59.3138 47.3937 59.3188C48.5387 59.3263 49.685 59.3088 50.8287 59.3575C51.4637 59.385 51.92 59.875 51.9975 60.4675C52.0775 61.0763 51.7675 61.6475 51.1987 61.8788C51.0125 61.955 50.7962 61.9875 50.5937 61.9888C48.4062 61.9963 46.2187 62 44.0312 61.99C43.2887 61.9863 42.6925 61.5213 42.6775 60.7938C42.645 59.1938 42.5775 57.5763 42.7612 55.9938C42.9912 54.0188 44.6687 52.6888 46.6662 52.64C47.1237 52.6288 47.5837 52.6488 48.0412 52.63C48.74 52.6 49.195 52.1725 49.2975 51.48C49.31 51.3975 49.3225 51.315 49.325 51.2313C49.365 49.385 49.4287 48.545 46.9312 48.6638C46.0375 48.7063 45.14 48.68 44.2437 48.6675C43.27 48.6538 42.6275 48.0875 42.6525 47.2925C42.6775 46.5 43.2912 45.9975 44.2437 45.995C45.515 45.9925 46.785 45.9875 48.0562 45.9963C50.2312 46.0125 51.9862 47.755 51.9987 49.9263C52.0025 50.6725 52.0462 51.44 51.9 52.1638C51.5175 54.0475 49.945 55.2963 48.0237 55.3488C47.5862 55.3613 47.1487 55.3425 46.7112 55.355C45.8937 55.3788 45.385 55.8713 45.3687 56.68C45.3512 57.5325 45.365 58.3838 45.365 59.3175Z" fill="#544179"/>
<path d="M61.3335 55.3532C59.6473 55.3532 58.046 55.3545 56.4448 55.3532C55.126 55.352 54.6523 54.8732 54.651 53.542C54.6498 51.5432 54.646 49.5445 54.6535 47.547C54.656 46.6832 55.1035 46.102 55.8085 46.0057C56.6735 45.8882 57.3498 46.5007 57.361 47.4582C57.3785 48.9357 57.366 50.4145 57.366 51.892C57.366 52.117 57.366 52.3407 57.366 52.6007C58.7023 52.6007 59.981 52.6007 61.3323 52.6007C61.3323 52.332 61.3323 52.087 61.3323 51.842C61.3348 50.3432 61.3148 48.8445 61.3485 47.3457C61.3685 46.4882 61.9535 45.9657 62.7423 45.9995C63.4823 46.0307 64.0035 46.5982 64.0048 47.417C64.0098 51.8095 64.0098 56.202 64.0048 60.5945C64.0035 61.4032 63.466 61.972 62.7248 61.9945C61.961 62.0182 61.376 61.5082 61.3548 60.6895C61.316 59.212 61.336 57.7345 61.3323 56.2557C61.3323 55.987 61.3335 55.7182 61.3335 55.3532Z" fill="#544179"/>
</svg>
