<svg width="100" height="100" viewBox="0 0 100 100" fill="none" xmlns="http://www.w3.org/2000/svg">
<path fill-rule="evenodd" clip-rule="evenodd" d="M53.5793 0.0397225C68.8119 0.832208 79.7371 15.1199 88.4901 29.1363C96.4135 41.8242 103.15 57.316 98.4443 71.8827C94.1174 85.2775 79.5526 88.1838 67.7359 93.3862C57.5901 97.8531 47.5867 102.046 37.0523 98.9116C22.8267 94.6783 6.41212 89.3177 1.60068 73.7053C-3.5573 56.9684 4.56454 39.1625 14.3603 25.2797C24.204 11.3289 37.7422 -0.784217 53.5793 0.0397225Z" fill="#F6F6F9"/>
<path d="M66.2538 83C60.7951 83 55.3363 83 49.8763 83C49.5876 82.6675 49.1526 82.3787 49.0413 81.995C48.7913 81.1325 49.4313 80.505 50.4526 80.5037C55.2226 80.5 59.9938 80.5088 64.7638 80.4938C65.3201 80.4925 65.8876 80.4225 66.4276 80.295C68.0401 79.9137 69.7151 78.33 69.6926 75.69C69.6476 70.4 69.6688 65.1087 69.6938 59.8187C69.6963 59.1987 69.5563 59.0187 68.9076 59.0187C53.0963 59.0387 37.2851 59.035 21.4726 59.035C21.2501 59.035 21.0263 59.035 20.7951 59.035C20.7701 59.185 20.7463 59.265 20.7463 59.3438C20.7438 64.905 20.7138 70.4675 20.7588 76.0275C20.7776 78.4062 22.3576 80.155 24.7126 80.4113C26.1338 80.5662 27.5813 80.4975 29.0176 80.5013C32.6838 80.5112 36.3501 80.5025 40.0163 80.5062C40.8363 80.5075 41.3601 80.9038 41.4576 81.595C41.5526 82.2775 41.1088 82.6562 40.6226 83.0013C35.1638 83.0013 29.7051 83.0013 24.2451 83.0013C24.1913 82.9713 24.1401 82.92 24.0826 82.9125C21.0913 82.525 18.1813 79.6875 18.2163 75.6275C18.3001 66.0662 18.2451 56.505 18.2363 46.9438C18.2363 46.535 18.1776 46.1137 18.0663 45.72C17.4588 43.5612 16.8338 41.4075 16.2001 39.2563C15.8963 38.2238 15.7501 37.1763 15.9401 36.1138C16.4851 33.0663 18.2926 31.15 21.2501 30.2937C32.3813 27.0725 43.5138 23.8513 54.6451 20.63C56.5176 20.0875 58.3851 19.5425 60.2526 19C60.9188 19 61.5863 19 62.2526 19C62.3876 19.0463 62.5201 19.1025 62.6576 19.1363C65.3751 19.7875 67.1801 21.4375 68.0001 24.1062C68.6951 26.3687 69.3338 28.6488 69.9901 30.9237C70.3713 32.245 70.0863 32.7413 68.7601 33.125C55.6338 36.925 42.5076 40.725 29.3826 44.5275C29.1988 44.58 29.0251 44.6625 28.8463 44.73C28.8538 44.7625 28.8613 44.795 28.8688 44.8275C29.0913 44.8275 29.3138 44.8275 29.5363 44.8275C37.4738 44.8275 45.4113 44.8275 53.3488 44.8275C59.0776 44.8275 64.8076 44.8263 70.5363 44.8288C71.7388 44.83 72.2276 45.2712 72.2276 46.3937C72.2326 56.2675 72.2526 66.1413 72.2151 76.015C72.2051 78.7225 70.9476 80.8138 68.5663 82.1362C67.8551 82.5325 67.0276 82.7188 66.2538 83ZM67.3101 30.9175C67.2888 30.77 67.2863 30.6875 67.2651 30.6112C66.6876 28.62 66.1626 26.6125 65.5163 24.6438C64.7188 22.2138 62.4401 21.0525 59.9651 21.725C59.0051 21.9862 58.0488 22.265 57.0926 22.5425C55.8651 22.8988 54.6388 23.2613 53.4013 23.6238C53.4463 23.7163 53.4563 23.7625 53.4838 23.7888C56.3763 26.5725 59.2688 29.3563 62.1738 32.1263C62.2901 32.2375 62.5551 32.2863 62.7163 32.2413C64.2326 31.82 65.7413 31.3737 67.3101 30.9175ZM20.3226 44.53C24.0376 43.4538 27.6551 42.4062 31.2801 41.3563C31.2401 41.2613 31.2338 41.2125 31.2076 41.1875C28.3101 38.4 25.4138 35.6125 22.5076 32.8337C22.4101 32.74 22.2213 32.6713 22.0913 32.6925C19.7413 33.08 17.9751 35.4738 18.4913 37.78C18.9938 40.025 19.6901 42.2262 20.3226 44.53ZM20.7688 56.5112C22.5201 56.5112 24.2051 56.495 25.8888 56.5225C26.3038 56.5287 26.5138 56.385 26.7126 56.0375C28.2588 53.3287 29.8251 50.6325 31.3838 47.9312C31.4738 47.7762 31.5476 47.6112 31.6513 47.4075C27.9838 47.4075 24.3813 47.4075 20.7688 47.4075C20.7688 50.4475 20.7688 53.44 20.7688 56.5112ZM69.6476 47.3587C67.9201 47.3587 66.2376 47.3738 64.5551 47.3475C64.1388 47.3412 63.9288 47.485 63.7288 47.835C62.1826 50.545 60.6163 53.2438 59.0563 55.9463C58.9663 56.1025 58.8863 56.265 58.7738 56.4762C62.4351 56.4762 66.0251 56.4762 69.6476 56.4762C69.6476 53.4487 69.6476 50.4562 69.6476 47.3587ZM40.6613 38.635C40.6876 38.5788 40.7138 38.5238 40.7413 38.4675C40.6351 38.4 40.5126 38.35 40.4238 38.2638C38.1538 36.09 35.8876 33.9125 33.6188 31.7375C32.9888 31.1337 32.4301 30.2063 31.6938 30.03C30.9338 29.8488 29.9963 30.3912 29.1413 30.6362C27.8213 31.0137 26.5063 31.4062 25.1851 31.7937C25.2188 31.8837 25.2201 31.9088 25.2338 31.9213C28.1401 34.7238 31.0451 37.5275 33.9588 40.3213C34.0563 40.415 34.2626 40.4837 34.3863 40.4487C36.4813 39.8562 38.5713 39.2437 40.6613 38.635ZM59.5388 33.1687C59.4101 33.0162 59.3426 32.9175 59.2576 32.8363C56.4363 30.1275 53.6176 27.415 50.7801 24.7238C50.6326 24.5838 50.2913 24.5375 50.0813 24.595C48.5001 25.0262 46.9301 25.4925 45.3563 25.95C44.9076 26.08 44.4588 26.215 43.8763 26.3875C44.1476 26.625 44.3251 26.7675 44.4888 26.925C46.9363 29.2725 49.4313 31.5737 51.8038 33.995C52.6676 34.8775 53.4138 35.0613 54.5488 34.6525C56.1551 34.0712 57.8276 33.6675 59.5388 33.1687ZM50.0926 35.8975C50.0613 35.8175 50.0601 35.7925 50.0463 35.7787C47.1413 32.9787 44.2376 30.1775 41.3226 27.3875C41.2138 27.2825 40.9726 27.2225 40.8288 27.2625C38.7601 27.8462 36.6976 28.4525 34.5838 29.0675C34.6613 29.185 34.6926 29.26 34.7451 29.3125C37.6088 32.0675 40.4701 34.8237 43.3513 37.56C43.4838 37.685 43.8051 37.7037 44.0051 37.65C45.4263 37.2638 46.8388 36.8463 48.2526 36.4375C48.8651 36.26 49.4763 36.0787 50.0926 35.8975ZM41.4801 47.3587C39.3113 47.3587 37.2526 47.3725 35.1951 47.3475C34.7588 47.3425 34.5363 47.4925 34.3238 47.865C32.7926 50.5537 31.2351 53.2287 29.6888 55.9087C29.5888 56.0812 29.5051 56.2625 29.3776 56.5112C31.5301 56.5112 33.6038 56.4988 35.6788 56.5213C36.0876 56.5263 36.3063 56.3975 36.5076 56.045C38.0601 53.32 39.6351 50.6087 41.2013 47.8925C41.2826 47.7525 41.3513 47.6062 41.4801 47.3587ZM51.2451 47.415C51.1413 47.39 51.0851 47.365 51.0301 47.3638C48.9501 47.3612 46.8688 47.3463 44.7901 47.3787C44.5751 47.3825 44.2838 47.62 44.1626 47.8275C42.5776 50.5337 41.0176 53.2537 39.4526 55.9725C39.3651 56.125 39.2938 56.2875 39.1826 56.5112C41.3276 56.5112 43.3851 56.4988 45.4426 56.5213C45.8726 56.5263 46.1051 56.3888 46.3201 56.0125C47.8626 53.305 49.4313 50.6138 50.9888 47.9163C51.0776 47.7612 51.1513 47.5975 51.2451 47.415ZM61.0438 47.3962C60.7963 47.3813 60.6188 47.3612 60.4401 47.3612C58.5451 47.3587 56.6488 47.3737 54.7538 47.3487C54.3363 47.3438 54.1301 47.4937 53.9313 47.8412C52.3851 50.55 50.8163 53.2462 49.2563 55.9475C49.1663 56.1037 49.0926 56.2687 48.9838 56.4837C49.2263 56.495 49.4063 56.51 49.5863 56.51C51.4813 56.5112 53.3776 56.4975 55.2726 56.5213C55.6826 56.5263 55.9001 56.395 56.1001 56.0438C57.6438 53.3338 59.2088 50.635 60.7663 47.9325C60.8563 47.7775 60.9313 47.615 61.0438 47.3962ZM45.6263 83C45.7551 82.9012 45.8888 82.8088 46.0126 82.7038C46.4851 82.3013 46.6026 81.6625 46.3051 81.14C46.0176 80.635 45.4113 80.3875 44.8701 80.555C44.2888 80.7337 43.9538 81.2625 43.9988 81.8913C44.0401 82.4675 44.4501 82.7363 44.8763 83C45.1263 83 45.3763 83 45.6263 83ZM40.3788 69.6562C40.3788 67.6162 40.3751 65.5763 40.3801 63.5363C40.3838 62.25 41.3276 61.6738 42.4313 62.3063C45.9838 64.3425 49.5301 66.39 53.0701 68.4487C54.1726 69.09 54.1588 70.2025 53.0451 70.8488C49.5213 72.8938 45.9926 74.9287 42.4588 76.9562C41.3163 77.6125 40.3813 77.0462 40.3788 75.7137C40.3763 73.6937 40.3788 71.675 40.3788 69.6562ZM50.0976 69.6413C47.6538 68.2313 45.3101 66.88 42.9051 65.4925C42.9051 68.295 42.9051 70.9875 42.9051 73.7837C45.3013 72.4037 47.6338 71.06 50.0976 69.6413Z" fill="#544179"/>
</svg>
