<svg width="96" height="94" viewBox="0 0 96 94" fill="none" xmlns="http://www.w3.org/2000/svg">
<path fill-rule="evenodd" clip-rule="evenodd" d="M50 0.999797C65.2325 1.79228 75.737 11.1197 84.49 25.1361C92.4134 37.824 99.1495 53.3158 94.4442 67.8825C90.1173 81.2774 80.3166 86.2973 68.5 91.4998C58.3542 95.9667 42.5344 90.1346 32 86.9997C17.7744 82.7664 8 78.9997 2.49992 66.5001C-2.65806 49.7632 1.70405 26.8825 11.4998 12.9996C17.4974 4.5 34.1629 0.175857 50 0.999797Z" fill="#F6F6F9"/>
<path d="M78 75.3603C77.21 76.8903 76.4 77.1803 74.81 76.4803C73.06 75.7103 71.31 74.9403 69.58 74.1503C69.22 73.9903 68.95 73.9903 68.6 74.2003C65.66 75.9603 62.46 76.8403 59.04 76.8203C53.64 76.7803 49.03 74.8003 45.28 70.9103C42.62 68.1403 40.89 64.8503 40.33 61.0503C39.33 54.3103 41.3 48.5403 46.32 43.8803C49.26 41.1503 52.78 39.5203 56.75 39.1303C64.3 38.3903 70.34 41.1803 74.73 47.3803C76.62 50.0603 77.65 53.0903 77.9 56.3703C77.91 56.5103 77.97 56.6503 78 56.7903C78 57.6203 78 58.4503 78 59.2903C77.96 59.3603 77.9 59.4303 77.9 59.5103C77.67 62.4303 76.76 65.1303 75.28 67.6503C75.18 67.8203 75.18 68.1303 75.27 68.3303C76.17 70.4003 77.09 72.4503 78.01 74.5103C78 74.7803 78 75.0703 78 75.3603ZM75.97 74.9103C76 74.8703 76.03 74.8303 76.06 74.7903C75.16 72.7603 74.28 70.7303 73.35 68.7103C73.05 68.0603 73.07 67.5203 73.46 66.9003C75.39 63.8403 76.23 60.4903 76.02 56.8803C75.77 52.5403 74.07 48.8303 70.99 45.8003C65.9 40.8003 58.74 39.4303 52.19 42.3203C46.4 44.8703 43.02 49.4203 42.12 55.6703C41.42 60.5503 42.74 64.9503 45.89 68.7403C48.88 72.3403 52.77 74.4003 57.44 74.8403C61.26 75.2003 64.85 74.3703 68.09 72.2803C68.66 71.9103 69.17 71.8903 69.78 72.1703C71.44 72.9403 73.12 73.6603 74.79 74.4003C75.19 74.5703 75.58 74.7403 75.97 74.9103ZM14 37.3103C14.14 38.1403 14.25 38.9803 14.43 39.8003C14.85 41.8003 15.57 43.7003 16.64 45.4503C16.86 45.8103 16.87 46.0903 16.69 46.4803C15.77 48.4503 14.89 50.4303 14 52.4103C14 52.7403 14 53.0803 14 53.4103C14.84 54.9603 15.61 55.2103 17.26 54.4703C18.99 53.7003 20.71 52.9203 22.45 52.1903C22.71 52.0803 23.12 52.0903 23.35 52.2203C25.7 53.5903 28.22 54.4403 30.92 54.7303C33.36 54.9903 35.78 54.7903 38.15 54.1303C38.87 53.9303 39.15 53.1503 38.71 52.6103C38.36 52.1903 37.91 52.2603 37.45 52.3503C36.39 52.5503 35.33 52.8103 34.26 52.8903C30.52 53.1603 27.03 52.3203 23.86 50.2903C23.31 49.9403 22.81 49.9203 22.22 50.1903C20.33 51.0503 18.43 51.8803 16.53 52.7203C16.35 52.8003 16.17 52.8603 15.86 52.9803C16.77 50.9503 17.56 49.0303 18.47 47.1803C18.94 46.2103 18.87 45.4603 18.31 44.5303C16.13 40.9603 15.49 37.0703 16.19 32.9703C16.87 28.9803 18.81 25.6403 21.89 23.0103C25.68 19.7703 30.11 18.4403 35.04 19.0203C39.47 19.5403 43.17 21.5703 46.06 24.9903C47.87 27.1403 49.05 29.6003 49.66 32.3503C50.04 34.1003 50.04 35.8503 50 37.6203C49.99 38.2403 50.37 38.6603 50.91 38.6603C51.41 38.6703 51.85 38.2703 51.86 37.7003C51.88 36.3703 51.97 35.0303 51.81 33.7203C51.32 29.6003 49.67 25.9803 46.8 22.9603C43.01 19.0003 38.34 17.0203 32.87 17.0003C29.02 16.9803 25.48 18.1003 22.32 20.2903C18.41 23.0003 15.8 26.6503 14.63 31.2703C14.34 32.4303 14.21 33.6303 14 34.8103C14 35.6503 14 36.4803 14 37.3103ZM25.96 29.9703C23.93 29.9603 22.18 31.6303 22.04 33.7303C22 34.3003 22.32 34.7503 22.83 34.8203C23.39 34.8903 23.75 34.6303 23.89 34.0303C23.92 33.8903 23.95 33.7503 23.97 33.6003C24.15 32.5803 24.95 31.8803 25.95 31.8703C26.88 31.8603 27.77 32.5603 27.98 33.4903C28.2 34.4503 27.68 35.4103 26.73 35.8103C26.54 35.8903 26.35 35.9703 26.16 36.0503C25.4 36.3703 25.09 37.0003 25.02 37.7703C24.97 38.3003 25.33 38.7503 25.8 38.8103C26.35 38.8803 26.69 38.6603 26.89 38.1203C26.97 37.9003 27.22 37.6703 27.45 37.5803C28.98 36.9403 29.99 35.4303 29.91 33.8203C29.8 31.6103 28.12 29.9803 25.96 29.9703ZM40.44 41.8503C41.27 41.8503 42.1 41.8703 42.93 41.8303C43.55 41.8103 43.9 41.4603 43.92 40.9303C43.94 40.4003 43.54 40.0103 42.93 39.9503C42.87 39.9403 42.81 39.9503 42.74 39.9503C39.56 39.9503 36.38 39.9503 33.2 39.9603C32.98 39.9603 32.67 39.9803 32.56 40.1103C32.34 40.3703 32.07 40.7403 32.11 41.0303C32.15 41.3103 32.5 41.6003 32.79 41.7903C32.97 41.9103 33.27 41.8503 33.52 41.8603C35.02 41.8603 36.51 41.8603 38.01 41.8603C38.82 41.8503 39.63 41.8503 40.44 41.8503ZM40.09 36.8503C41.09 36.8403 42.09 36.8503 43.08 36.8203C43.59 36.8003 43.88 36.4703 43.91 35.9803C43.95 35.4903 43.69 35.1503 43.21 35.0203C43.05 34.9803 42.88 34.9703 42.72 34.9703C39.56 34.9703 36.4 34.9703 33.24 34.9703C33.02 34.9703 32.72 34.9703 32.59 35.1103C32.36 35.3603 32.05 35.7303 32.1 36.0003C32.15 36.3003 32.52 36.5903 32.81 36.8003C32.97 36.9103 33.25 36.8603 33.48 36.8603C34.98 36.8603 36.47 36.8603 37.97 36.8603C38.68 36.8503 39.38 36.8503 40.09 36.8503ZM39.77 31.8503C40.52 31.8403 40.92 31.5003 40.93 30.9203C40.93 30.3403 40.5 29.9703 39.78 29.9703C37.59 29.9603 35.41 29.9603 33.22 29.9703C32.5 29.9703 32.05 30.3503 32.05 30.9203C32.05 31.4903 32.48 31.8503 33.21 31.8603C34.29 31.8703 35.38 31.8603 36.46 31.8603C37.56 31.8503 38.66 31.8603 39.77 31.8503ZM26.01 39.9603C25.52 39.9503 25.04 40.4203 25.04 40.9103C25.04 41.4203 25.49 41.8403 26.03 41.8203C26.55 41.8003 26.93 41.4103 26.92 40.8903C26.91 40.4103 26.49 39.9703 26.01 39.9603ZM69.56 58.8503C70.48 58.8503 70.97 58.5103 70.97 57.8903C70.97 57.2703 70.47 56.9303 69.56 56.9303C69.52 56.9303 69.48 56.9303 69.44 56.9303C62.49 56.9303 55.53 56.9303 48.58 56.9303C47.58 56.9303 47.1 57.2303 47.08 57.8603C47.06 58.5203 47.55 58.8503 48.58 58.8503C52.06 58.8503 55.53 58.8503 59.01 58.8503C62.52 58.8503 66.04 58.8503 69.56 58.8503ZM66.5 63.8503C67.47 63.8503 67.97 63.5103 67.97 62.8803C67.96 62.2503 67.47 61.9303 66.49 61.9303C61.52 61.9303 56.54 61.9303 51.57 61.9303C51.4 61.9303 51.24 61.9203 51.07 61.9403C50.46 62.0103 50.1 62.3603 50.08 62.8703C50.07 63.4003 50.45 63.7803 51.08 63.8503C51.27 63.8703 51.45 63.8603 51.64 63.8603C54.1 63.8603 56.55 63.8603 59.01 63.8603C61.5 63.8503 64 63.8503 66.5 63.8503ZM51.49 51.9303C51.26 51.9303 51.03 51.9503 50.81 51.9903C50.31 52.1003 50.06 52.4503 50.09 52.9403C50.11 53.4003 50.36 53.7203 50.85 53.7903C51.1 53.8303 51.35 53.8503 51.59 53.8503C56.54 53.8503 61.5 53.8503 66.45 53.8503C66.62 53.8503 66.78 53.8603 66.95 53.8403C67.57 53.7803 67.98 53.3803 67.97 52.8703C67.96 52.3603 67.53 51.9803 66.91 51.9303C66.74 51.9203 66.58 51.9303 66.41 51.9303C63.98 51.9303 61.54 51.9303 59.11 51.9303C56.56 51.9303 54.02 51.9303 51.49 51.9303Z" fill="#544179"/>
</svg>
