<svg width="18" height="18" viewBox="0 0 18 18" fill="none" xmlns="http://www.w3.org/2000/svg">
<g clip-path="url(#clip0_3413_76605)">
<path d="M18 5C18 4.85 17.97 4.69 17.9 4.55L15.9 0.55C15.73 0.21 15.38 0 15 0H3C2.62 0 2.27 0.21 2.11 0.55L0.11 4.55C0.04 4.69 0 4.85 0 5V17C0 17.55 0.45 18 1 18H17C17.55 18 18 17.55 18 17V5ZM3.62 2H14.38L15.38 4H2.62L3.62 2ZM2 16V6H16V16H2Z" fill="white"/>
<path d="M9 9C7.9 9 7 8.1 7 7H5C5 9.21 6.79 11 9 11C11.21 11 13 9.21 13 7H11C11 8.1 10.1 9 9 9Z" fill="white"/>
</g>
<defs>
<clipPath id="clip0_3413_76605">
<rect width="18" height="18" fill="white"/>
</clipPath>
</defs>
</svg>
