<svg width="22" height="22" viewBox="0 0 22 22" fill="none" xmlns="http://www.w3.org/2000/svg">
<path d="M22 5C22 4.85 21.97 4.69 21.9 4.55L19.9 0.55C19.72 0.21 19.38 0 19 0H3C2.62 0 2.28 0.21 2.11 0.55L0.11 4.55C0.03 4.69 0 4.85 0 5V21C0 21.55 0.45 22 1 22H21C21.55 22 22 21.55 22 21V5ZM3.62 2H18.38L19.38 4H2.62L3.62 2ZM2 20V6H20V20H2ZM16 9C16 11.76 13.76 14 11 14C8.24 14 6 11.76 6 9C6 8.45 6.45 8 7 8C7.55 8 8 8.45 8 9C8 10.65 9.35 12 11 12C12.65 12 14 10.65 14 9C14 8.45 14.45 8 15 8C15.55 8 16 8.45 16 9Z" fill="white"/>
</svg>
