<svg width="18" height="18" viewBox="0 0 18 18" fill="none" xmlns="http://www.w3.org/2000/svg">
<path d="M17.85 4.47L15.35 0.47C15.17 0.18 14.84 0 14.5 0H3.5C3.16 0 2.83 0.18 2.65 0.47L0.15 4.47C0.05 4.63 0 4.81 0 5V17C0 17.55 0.45 18 1 18H6C6.55 18 7 17.55 7 17V12H11V17C11 17.55 11.45 18 12 18H17C17.55 18 18 17.55 18 17V5C18 4.81 17.95 4.63 17.85 4.47ZM4.05 2H13.94L15.99 5.27C15.7 5.1 15.36 5 15 5C14.4 5 13.87 5.27 13.5 5.69C13.13 5.27 12.6 5 12 5C11.4 5 10.87 5.27 10.5 5.69C10.13 5.27 9.6 5 9 5C8.4 5 7.87 5.27 7.5 5.69C7.13 5.27 6.6 5 6 5C5.4 5 4.87 5.27 4.5 5.69C4.13 5.27 3.6 5 3 5C2.64 5 2.3 5.1 2.01 5.27L4.05 2ZM16 16H13V11C13 10.45 12.55 10 12 10H6C5.45 10 5 10.45 5 11V16H2V7C2 6.45 2.45 6 3 6C3.55 6 4 6.45 4 7C4 7.28 4.22 7.5 4.5 7.5C4.78 7.5 5 7.28 5 7C5 6.45 5.45 6 6 6C6.55 6 7 6.45 7 7C7 7.28 7.22 7.5 7.5 7.5C7.78 7.5 8 7.28 8 7C8 6.45 8.45 6 9 6C9.55 6 10 6.45 10 7C10 7.28 10.22 7.5 10.5 7.5C10.78 7.5 11 7.28 11 7C11 6.45 11.45 6 12 6C12.55 6 13 6.45 13 7C13 7.28 13.22 7.5 13.5 7.5C13.78 7.5 14 7.28 14 7C14 6.45 14.45 6 15 6C15.55 6 16 6.45 16 7V16Z" fill="#544179"/>
</svg>
