<svg width="18" height="18" viewBox="0 0 18 18" fill="none" xmlns="http://www.w3.org/2000/svg">
<path d="M8.00006 12.0003C7.73006 12.0003 7.48006 11.8903 7.29006 11.7103L5.29006 9.71031C4.90006 9.32031 4.90006 8.69031 5.29006 8.30031C5.68006 7.91031 6.31006 7.91031 6.70006 8.30031L8.00006 9.59031L11.2901 6.30031C11.6801 5.91031 12.3101 5.91031 12.7001 6.30031C13.0901 6.69031 13.0901 7.32031 12.7001 7.71031L8.70006 11.7103C8.52006 11.8903 8.27006 12.0003 8.00006 12.0003Z" fill="#626264"/>
<path d="M9 18C4.04 18 0 13.96 0 9C0 4.04 4.04 0 9 0C13.96 0 18 4.04 18 9C18 13.96 13.96 18 9 18ZM9 2C5.14 2 2 5.14 2 9C2 12.86 5.14 16 9 16C12.86 16 16 12.86 16 9C16 5.14 12.86 2 9 2Z" fill="#626264"/>
</svg>
