<?xml version="1.0" encoding="iso-8859-1"?>
<!-- Generator: Adobe Illustrator 25.3.1, SVG Export Plug-In . SVG Version: 6.00 Build 0)  -->
<svg version="1.1" id="Layer_1" xmlns="http://www.w3.org/2000/svg" xmlns:xlink="http://www.w3.org/1999/xlink" x="0px" y="0px"
	 width="340px" height="340px" viewBox="0 0 340 340" style="enable-background:new 0 0 340 340;" xml:space="preserve">
<style type="text/css">
	.st0{fill:#1D1E2C;}
	.st1{fill:#54FA06;}
</style>
<path class="st0" d="M312.44,262.34c-30.35,46.56-82.88,77.32-142.59,77.32S57.61,308.9,27.26,262.34l88.73-51.23
	c12.43,16.1,31.93,26.48,53.86,26.48s41.43-10.38,53.86-26.48L312.44,262.34z M-0.27,169.55c0,27.75,6.65,53.94,18.44,77.08
	l88.72-51.22c-3.29-7.97-5.09-16.71-5.09-25.86c0-34.51,25.68-63.01,58.97-67.45V-0.34C71.05,4.38-0.27,78.63-0.27,169.55z
	 M178.92-0.34V102.1c33.3,4.43,58.97,32.94,58.97,67.45c0,9.15-1.8,17.89-5.09,25.86l88.72,51.22
	c11.79-23.14,18.44-49.32,18.44-77.08C339.97,78.63,268.66,4.38,178.92-0.34z"/>
<g>
	<path class="st1" d="M112.87,259.72l-3.06,6.2c-0.27,0.54-0.62,0.9-1.06,1.09c-0.44,0.19-0.94,0.15-1.5-0.13
		c-0.56-0.27-0.9-0.64-1.02-1.11s-0.05-0.97,0.22-1.51l3.06-6.2l-1.92-0.95l-3.12,6.32c-0.27,0.56-0.42,1.09-0.45,1.6
		c-0.03,0.51,0.05,0.99,0.23,1.43c0.18,0.45,0.46,0.85,0.82,1.22c0.37,0.36,0.81,0.67,1.33,0.93c0.51,0.25,1.02,0.41,1.54,0.48
		c0.51,0.07,1,0.04,1.47-0.09s0.9-0.36,1.28-0.69c0.39-0.33,0.72-0.78,0.99-1.33l3.12-6.33L112.87,259.72z"/>
	<path class="st1" d="M116.69,272.5c0.56-0.18,0.98-0.59,1.25-1.22c0.16-0.39,0.21-0.74,0.13-1.05s-0.22-0.61-0.44-0.9
		c-0.22-0.28-0.48-0.56-0.76-0.83c-0.23-0.24-0.43-0.44-0.61-0.62s-0.31-0.34-0.38-0.49c-0.07-0.15-0.08-0.3-0.02-0.44
		c0.07-0.16,0.17-0.25,0.32-0.28c0.15-0.03,0.32,0,0.53,0.08c0.3,0.13,0.58,0.34,0.83,0.63c0.25,0.29,0.44,0.61,0.57,0.96l1.25-0.77
		c-0.12-0.29-0.28-0.56-0.48-0.83s-0.44-0.51-0.72-0.73c-0.27-0.22-0.59-0.41-0.95-0.56c-0.42-0.18-0.84-0.27-1.24-0.29
		c-0.4-0.01-0.76,0.07-1.07,0.25c-0.31,0.18-0.55,0.45-0.71,0.83c-0.17,0.4-0.21,0.76-0.14,1.09c0.07,0.33,0.21,0.63,0.43,0.9
		c0.21,0.27,0.44,0.52,0.69,0.76c0.27,0.23,0.49,0.44,0.65,0.62s0.27,0.35,0.33,0.51c0.06,0.16,0.05,0.32-0.02,0.49
		c-0.08,0.18-0.2,0.3-0.38,0.35c-0.17,0.05-0.38,0.03-0.62-0.07c-0.18-0.08-0.37-0.2-0.54-0.36c-0.18-0.16-0.35-0.37-0.51-0.62
		s-0.33-0.55-0.49-0.92l-1.34,0.75c0.14,0.33,0.32,0.66,0.54,0.98c0.21,0.32,0.48,0.62,0.81,0.9c0.32,0.28,0.71,0.51,1.16,0.7
		C115.48,272.61,116.12,272.68,116.69,272.5z"/>
	<path class="st1" d="M119.48,270.29c-0.25,0.69-0.32,1.33-0.21,1.94c0.1,0.61,0.37,1.15,0.79,1.62s0.99,0.84,1.7,1.09
		c0.78,0.28,1.51,0.37,2.18,0.27s1.29-0.4,1.84-0.89l-1.42-1.07c-0.3,0.24-0.62,0.39-0.96,0.44c-0.34,0.05-0.72,0-1.12-0.14
		c-0.36-0.13-0.63-0.32-0.83-0.57c-0.2-0.25-0.3-0.55-0.32-0.9c-0.01-0.22,0.02-0.46,0.08-0.7l4.99,1.8
		c0.03-0.05,0.06-0.12,0.1-0.22c0.04-0.09,0.07-0.18,0.1-0.27c0.25-0.7,0.33-1.34,0.25-1.93s-0.33-1.1-0.74-1.54
		c-0.41-0.44-0.97-0.79-1.69-1.05c-0.71-0.26-1.39-0.34-2.01-0.26c-0.63,0.09-1.17,0.33-1.64,0.73S119.73,269.59,119.48,270.29z
		 M122.74,269.35c0.3-0.07,0.62-0.04,0.98,0.09c0.29,0.1,0.52,0.26,0.69,0.47s0.27,0.45,0.31,0.72c0.03,0.22-0.01,0.46-0.08,0.71
		l-3-1.08c0.09-0.15,0.19-0.29,0.3-0.41C122.18,269.59,122.45,269.42,122.74,269.35z"/>
	<polygon class="st1" points="133.48,278.48 134.89,273.41 136.04,273.73 136.48,272.15 135.32,271.83 135.97,269.52 134.16,269.02 
		133.52,271.33 132.38,271.01 131.94,272.59 133.08,272.9 131.67,277.98 	"/>
	<path class="st1" d="M140.4,274.42c0.4,0.09,0.66,0.27,0.77,0.55c0.12,0.27,0.12,0.63,0.02,1.08l-0.94,4.09l1.9,0.44l1-4.37
		c0.13-0.56,0.15-1.04,0.08-1.47c-0.08-0.42-0.26-0.77-0.56-1.04c-0.3-0.27-0.71-0.47-1.23-0.59c-0.53-0.12-1-0.1-1.42,0.07
		c-0.35,0.14-0.64,0.38-0.89,0.68l1.3-5.68l-1.9-0.44l-2.62,11.4l1.9,0.44l0.94-4.09l0,0c0.06-0.28,0.17-0.51,0.33-0.69
		c0.15-0.18,0.35-0.3,0.58-0.37S140.13,274.36,140.4,274.42z"/>
	<path class="st1" d="M145.74,280.95c0.5,0.39,1.12,0.65,1.86,0.77c0.82,0.14,1.55,0.1,2.19-0.12c0.64-0.22,1.19-0.62,1.66-1.2
		l-1.58-0.8c-0.25,0.29-0.54,0.49-0.87,0.61c-0.33,0.11-0.7,0.13-1.13,0.06c-0.38-0.06-0.68-0.2-0.92-0.41
		c-0.24-0.21-0.4-0.49-0.48-0.83c-0.05-0.21-0.06-0.45-0.05-0.71l5.23,0.88c0.02-0.06,0.04-0.13,0.06-0.23s0.04-0.19,0.05-0.28
		c0.12-0.73,0.09-1.38-0.1-1.94s-0.52-1.03-1.01-1.39s-1.1-0.6-1.85-0.73c-0.75-0.13-1.42-0.09-2.03,0.11
		c-0.6,0.2-1.1,0.54-1.49,1.01s-0.65,1.08-0.77,1.81c-0.12,0.72-0.08,1.37,0.13,1.95C144.88,280.08,145.24,280.56,145.74,280.95z
		 M146.88,276.68c0.19-0.3,0.42-0.51,0.7-0.63c0.28-0.12,0.61-0.15,0.98-0.08c0.31,0.05,0.56,0.17,0.76,0.34
		c0.2,0.18,0.35,0.39,0.43,0.65c0.07,0.21,0.08,0.45,0.05,0.71l-3.14-0.53C146.73,276.97,146.8,276.81,146.88,276.68z"/>
	<path class="st1" d="M159.7,281.92c0.19,0.4,0.42,0.75,0.74,1.01c0.41,0.33,0.91,0.52,1.5,0.56c0.58,0.04,1.13-0.05,1.65-0.3
		s0.96-0.62,1.31-1.15c0.35-0.52,0.55-1.18,0.61-1.95c0.06-0.79-0.04-1.46-0.31-2.03c-0.27-0.57-0.64-1.01-1.13-1.33
		s-1.01-0.5-1.59-0.54c-0.59-0.04-1.11,0.07-1.57,0.33c-0.36,0.21-0.64,0.52-0.89,0.89l0.09-1.19l-1.94-0.15l-0.77,10.17l1.94,0.15
		L159.7,281.92z M160.21,278.62c0.2-0.28,0.44-0.48,0.72-0.6c0.29-0.12,0.57-0.17,0.86-0.15c0.34,0.03,0.65,0.12,0.92,0.29
		c0.27,0.17,0.48,0.41,0.63,0.71s0.21,0.66,0.17,1.07c-0.03,0.41-0.14,0.75-0.33,1.03c-0.19,0.28-0.44,0.48-0.73,0.61
		c-0.3,0.13-0.61,0.18-0.95,0.15c-0.29-0.02-0.57-0.12-0.83-0.28c-0.26-0.17-0.47-0.4-0.62-0.7c-0.15-0.3-0.21-0.66-0.18-1.08l0,0
		C159.9,279.25,160.01,278.9,160.21,278.62z"/>
	<path class="st1" d="M170.18,283.57c0.39-0.14,0.71-0.36,0.96-0.66c0.06-0.07,0.09-0.15,0.13-0.23l-0.02,0.98l1.87,0.03l0.09-4.89
		c0.01-0.47-0.12-0.87-0.37-1.2c-0.25-0.33-0.61-0.58-1.07-0.76c-0.46-0.18-0.98-0.27-1.57-0.28c-0.64-0.01-1.22,0.07-1.74,0.23
		c-0.52,0.17-0.97,0.34-1.33,0.52l0.7,1.33c0.1-0.07,0.26-0.15,0.47-0.25c0.21-0.1,0.46-0.18,0.75-0.24
		c0.29-0.06,0.6-0.09,0.92-0.09c0.21,0,0.4,0.03,0.57,0.07s0.32,0.11,0.44,0.2c0.12,0.09,0.21,0.21,0.27,0.34s0.08,0.3,0.08,0.49
		l-0.01,0.73c-0.23-0.13-0.51-0.25-0.84-0.34c-0.33-0.1-0.72-0.15-1.16-0.16c-0.86-0.01-1.53,0.17-2,0.55s-0.72,0.91-0.73,1.58
		c-0.01,0.47,0.1,0.87,0.32,1.2c0.22,0.33,0.51,0.58,0.88,0.76c0.37,0.18,0.76,0.27,1.2,0.28
		C169.38,283.78,169.79,283.71,170.18,283.57z M168.67,281.99c-0.1-0.15-0.14-0.32-0.14-0.52c0-0.2,0.05-0.37,0.14-0.5
		c0.09-0.13,0.23-0.24,0.42-0.31c0.19-0.07,0.44-0.11,0.74-0.1c0.37,0.01,0.72,0.06,1.05,0.17c0.14,0.05,0.28,0.11,0.41,0.17l0,0
		l0,0c-0.01,0.33-0.09,0.61-0.24,0.84c-0.15,0.23-0.35,0.41-0.59,0.53s-0.51,0.18-0.81,0.17c-0.21,0-0.4-0.04-0.58-0.12
		S168.76,282.14,168.67,281.99z"/>
	<path class="st1" d="M178.53,276.49c-0.36,0.01-0.71,0.15-1.04,0.41c-0.23,0.18-0.42,0.42-0.58,0.68l-0.03-0.88l-1.9,0.05l0.2,6.9
		l1.9-0.06l-0.11-3.66c-0.01-0.33,0.02-0.61,0.1-0.85c0.08-0.24,0.2-0.42,0.37-0.56s0.37-0.21,0.61-0.21
		c0.2-0.01,0.37,0.02,0.5,0.08c0.14,0.06,0.27,0.15,0.41,0.27l0.84-1.67c-0.15-0.18-0.33-0.31-0.56-0.39
		C179.02,276.52,178.78,276.49,178.53,276.49z"/>
	<polygon class="st1" points="181.55,283.41 183.42,283.29 183.08,278.04 184.28,277.96 184.18,276.33 182.98,276.41 182.83,274.01 
		180.95,274.13 181.11,276.53 179.93,276.6 180.03,278.23 181.21,278.16 	"/>
	<path class="st1" d="M189.93,278.46l0.46,4.18l2-0.22l-0.48-4.38c-0.09-0.83-0.36-1.45-0.81-1.87c-0.45-0.42-1.08-0.58-1.89-0.5
		c-0.49,0.05-0.89,0.2-1.21,0.44c-0.32,0.24-0.56,0.57-0.73,0.98l-0.11-1.04l-1.94,0.21l0.75,6.86l1.94-0.21l-0.46-4.17
		c-0.03-0.29,0-0.54,0.08-0.76c0.09-0.22,0.23-0.4,0.42-0.54c0.2-0.14,0.43-0.22,0.7-0.25c0.4-0.04,0.7,0.04,0.9,0.26
		C189.76,277.67,189.88,278.01,189.93,278.46z"/>
	<path class="st1" d="M199.93,280.88c0.53-0.42,0.92-0.98,1.17-1.68l-1.76-0.24c-0.14,0.36-0.35,0.64-0.62,0.86
		c-0.27,0.21-0.62,0.36-1.05,0.43c-0.38,0.06-0.71,0.03-1-0.09c-0.29-0.12-0.53-0.33-0.72-0.62c-0.12-0.18-0.2-0.41-0.28-0.65
		l5.23-0.88c0-0.06-0.01-0.14-0.02-0.24s-0.03-0.19-0.04-0.28c-0.12-0.73-0.37-1.33-0.73-1.8c-0.36-0.47-0.83-0.8-1.4-0.98
		c-0.57-0.18-1.24-0.21-1.98-0.08c-0.75,0.13-1.38,0.38-1.88,0.76s-0.86,0.87-1.07,1.44c-0.21,0.58-0.26,1.23-0.13,1.96
		c0.12,0.72,0.38,1.32,0.77,1.79c0.39,0.48,0.88,0.82,1.49,1.02c0.6,0.2,1.27,0.24,2.01,0.12
		C198.72,281.57,199.4,281.3,199.93,280.88z M196.02,276.36c0.22-0.21,0.52-0.34,0.9-0.4c0.31-0.05,0.58-0.03,0.83,0.07
		c0.25,0.1,0.46,0.26,0.62,0.47c0.13,0.17,0.22,0.4,0.28,0.65l-3.14,0.53c0.01-0.18,0.02-0.35,0.06-0.5
		C195.65,276.84,195.8,276.57,196.02,276.36z"/>
	<path class="st1" d="M204.45,275.13c0.14-0.16,0.32-0.27,0.56-0.32c0.2-0.04,0.37-0.05,0.51-0.01c0.15,0.03,0.29,0.1,0.45,0.19
		l0.51-1.8c-0.18-0.15-0.38-0.24-0.62-0.28c-0.24-0.04-0.48-0.03-0.72,0.02c-0.35,0.08-0.67,0.28-0.94,0.6
		c-0.19,0.22-0.33,0.49-0.44,0.78l-0.19-0.86l-1.86,0.41l1.48,6.74l1.86-0.41l-0.79-3.58l0,0c-0.07-0.32-0.09-0.61-0.06-0.85
		S204.32,275.29,204.45,275.13z"/>
	<path class="st1" d="M218.97,270.71c-0.46-0.43-0.97-0.7-1.53-0.82s-1.12-0.09-1.68,0.08c-0.56,0.17-1.01,0.47-1.34,0.89
		c-0.25,0.32-0.41,0.72-0.5,1.15l-0.35-1.14l-1.86,0.58l3.02,9.74l1.86-0.58l-1.33-4.29c0.32,0.3,0.67,0.55,1.06,0.67
		c0.5,0.16,1.04,0.15,1.6-0.03c0.55-0.17,1.03-0.47,1.43-0.88s0.67-0.93,0.8-1.55c0.13-0.62,0.08-1.3-0.15-2.04
		C219.77,271.73,219.42,271.13,218.97,270.71z M218.15,274.15c-0.08,0.33-0.23,0.6-0.46,0.83c-0.23,0.23-0.5,0.39-0.83,0.49
		c-0.28,0.09-0.57,0.1-0.87,0.04s-0.58-0.2-0.84-0.42c-0.25-0.22-0.44-0.54-0.57-0.94c-0.12-0.4-0.15-0.77-0.06-1.09
		c0.08-0.33,0.23-0.6,0.45-0.82s0.47-0.37,0.75-0.46c0.32-0.1,0.65-0.12,0.96-0.06c0.32,0.06,0.6,0.2,0.85,0.43
		c0.25,0.23,0.43,0.54,0.55,0.93C218.21,273.47,218.23,273.83,218.15,274.15z"/>
	
		<rect x="220.62" y="263.47" transform="matrix(0.9408 -0.3389 0.3389 0.9408 -78.1685 91.0521)" class="st1" width="1.95" height="11.7"/>
	<path class="st1" d="M229.36,272.52c0.3-0.28,0.51-0.61,0.62-0.98c0.03-0.09,0.02-0.18,0.03-0.26l0.37,0.91l1.74-0.71l-1.84-4.53
		c-0.18-0.43-0.45-0.75-0.81-0.96s-0.79-0.3-1.28-0.28c-0.49,0.02-1.01,0.14-1.55,0.36c-0.59,0.24-1.1,0.54-1.51,0.9
		c-0.42,0.36-0.75,0.69-1.02,1l1.17,0.95c0.07-0.1,0.18-0.24,0.33-0.41c0.16-0.17,0.36-0.34,0.6-0.52c0.24-0.17,0.51-0.32,0.81-0.44
		c0.19-0.08,0.38-0.13,0.55-0.16c0.17-0.03,0.33-0.02,0.48,0.01c0.15,0.04,0.28,0.11,0.38,0.21c0.11,0.1,0.2,0.24,0.27,0.42
		l0.28,0.68l0,0c-0.26-0.03-0.57-0.03-0.91,0.01c-0.34,0.04-0.72,0.15-1.13,0.31c-0.8,0.32-1.34,0.76-1.63,1.29
		c-0.29,0.54-0.31,1.12-0.05,1.74c0.18,0.44,0.43,0.76,0.76,0.98c0.33,0.22,0.7,0.33,1.11,0.35c0.41,0.02,0.81-0.05,1.21-0.22
		C228.71,273.03,229.06,272.81,229.36,272.52z M227.35,271.67c-0.15-0.1-0.26-0.24-0.33-0.42c-0.08-0.19-0.1-0.36-0.06-0.52
		c0.03-0.16,0.12-0.31,0.27-0.45c0.15-0.14,0.36-0.27,0.64-0.38c0.34-0.14,0.69-0.23,1.04-0.26c0.15-0.01,0.3-0.01,0.44-0.01l0,0.01
		l0,0c0.12,0.31,0.16,0.6,0.11,0.87c-0.05,0.27-0.16,0.51-0.34,0.72c-0.17,0.21-0.4,0.37-0.68,0.48c-0.2,0.08-0.39,0.12-0.58,0.11
		C227.66,271.81,227.5,271.76,227.35,271.67z"/>
	<path class="st1" d="M236.69,262.35c-0.56-0.25-1.21-0.2-1.95,0.16c-0.44,0.21-0.78,0.48-1,0.82s-0.35,0.72-0.37,1.16l-0.45-0.95
		l-1.76,0.84l2.96,6.23l1.76-0.84l-1.8-3.79c-0.12-0.26-0.18-0.51-0.17-0.75c0.01-0.24,0.08-0.45,0.22-0.65
		c0.14-0.19,0.33-0.35,0.58-0.46c0.36-0.17,0.67-0.19,0.94-0.05s0.5,0.42,0.69,0.83l1.8,3.79l1.82-0.86l-1.89-3.98
		C237.71,263.1,237.25,262.6,236.69,262.35z"/>
	<polygon class="st1" points="80.54,278.26 81.6,277.01 80.68,276.24 82.24,274.41 80.81,273.19 79.26,275.02 78.35,274.25 
		77.29,275.5 78.2,276.26 74.78,280.27 76.21,281.49 79.62,277.48 	"/>
	<path class="st1" d="M86.63,282.22c0.11-0.42,0.09-0.81-0.07-1.18s-0.44-0.73-0.87-1.06c-0.43-0.33-0.87-0.51-1.32-0.53
		c-0.38-0.02-0.74,0.07-1.1,0.23l3.58-4.6l-1.54-1.2l-7.19,9.23l1.54,1.2l2.58-3.32c0.18-0.23,0.37-0.39,0.59-0.49
		c0.21-0.1,0.44-0.13,0.68-0.09s0.46,0.14,0.67,0.31c0.32,0.25,0.48,0.53,0.47,0.82c-0.01,0.3-0.16,0.63-0.44,0.99l-2.58,3.31
		l1.54,1.2l2.75-3.54C86.3,283.07,86.52,282.64,86.63,282.22z"/>
	<path class="st1" d="M89.54,289.6c-0.34-0.04-0.69-0.18-1.05-0.42c-0.31-0.22-0.53-0.47-0.66-0.76s-0.15-0.61-0.08-0.95
		c0.04-0.21,0.14-0.43,0.26-0.66l4.36,3.01c0.04-0.04,0.09-0.11,0.16-0.18c0.06-0.08,0.12-0.16,0.17-0.23
		c0.42-0.61,0.66-1.21,0.73-1.8s-0.04-1.15-0.33-1.68s-0.74-1.01-1.37-1.44s-1.25-0.68-1.88-0.76c-0.63-0.08-1.22,0.02-1.78,0.29
		c-0.55,0.27-1.04,0.71-1.46,1.31c-0.42,0.6-0.65,1.21-0.7,1.82s0.07,1.2,0.36,1.77s0.75,1.06,1.36,1.49
		c0.68,0.47,1.36,0.74,2.04,0.81c0.67,0.07,1.34-0.06,2.01-0.39l-1.1-1.39C90.24,289.57,89.89,289.63,89.54,289.6z M90.02,285.24
		c0.3,0.01,0.61,0.12,0.92,0.34c0.26,0.18,0.44,0.39,0.55,0.63s0.15,0.5,0.12,0.77c-0.03,0.22-0.12,0.44-0.25,0.66l-2.63-1.81
		c0.13-0.12,0.26-0.24,0.39-0.32C89.41,285.32,89.71,285.23,90.02,285.24z"/>
	<path class="st1" d="M102.78,291.39c-0.41-0.24-0.82-0.36-1.23-0.38c-0.42-0.01-0.83,0.08-1.24,0.29c0.07-0.41,0.01-0.79-0.17-1.13
		c-0.18-0.34-0.49-0.64-0.93-0.9c-0.4-0.23-0.79-0.35-1.17-0.34c-0.39,0-0.76,0.12-1.13,0.35l0.52-0.88l-1.62-0.95l-3.5,5.94
		l1.62,0.95l2.13-3.62c0.15-0.26,0.33-0.45,0.52-0.59s0.4-0.2,0.61-0.2c0.21,0,0.42,0.06,0.62,0.18c0.31,0.18,0.47,0.42,0.49,0.7
		c0.02,0.28-0.09,0.63-0.33,1.03l-2.13,3.62l1.67,0.98l2.13-3.62c0.15-0.26,0.33-0.45,0.52-0.59s0.4-0.2,0.61-0.2
		c0.21,0,0.42,0.06,0.62,0.18c0.31,0.18,0.47,0.42,0.49,0.7c0.02,0.28-0.09,0.63-0.33,1.03l-2.13,3.62l1.68,0.99l2.24-3.8
		c0.28-0.48,0.46-0.93,0.53-1.35c0.07-0.42,0.01-0.8-0.16-1.14S103.22,291.65,102.78,291.39z"/>
	<path class="st1" d="M109.29,294.8c-0.68-0.34-1.34-0.5-1.97-0.48c-0.63,0.02-1.2,0.19-1.72,0.54c-0.51,0.34-0.93,0.85-1.26,1.51
		c-0.33,0.65-0.47,1.29-0.43,1.9c0.04,0.62,0.24,1.18,0.6,1.7c0.37,0.52,0.89,0.94,1.56,1.28c0.74,0.37,1.45,0.54,2.13,0.51
		c0.68-0.03,1.32-0.25,1.93-0.67l-1.29-1.22c-0.33,0.21-0.66,0.32-1.01,0.33c-0.35,0.01-0.71-0.08-1.1-0.27
		c-0.34-0.17-0.59-0.39-0.76-0.66c-0.17-0.27-0.24-0.58-0.22-0.93c0.01-0.22,0.08-0.45,0.16-0.69l4.75,2.36
		c0.04-0.05,0.08-0.12,0.13-0.21c0.05-0.09,0.09-0.17,0.13-0.25c0.33-0.66,0.48-1.29,0.47-1.89c-0.02-0.59-0.2-1.13-0.56-1.62
		C110.49,295.55,109.97,295.14,109.29,294.8z M107.69,295.81c0.3-0.04,0.62,0.03,0.96,0.2c0.28,0.14,0.49,0.32,0.63,0.55
		c0.14,0.23,0.22,0.48,0.22,0.75c0,0.22-0.06,0.45-0.15,0.69l-2.86-1.42c0.11-0.14,0.22-0.27,0.34-0.38
		C107.11,295.98,107.39,295.84,107.69,295.81z"/>
	<path class="st1" d="M120.74,301.8l0.61-1.52l-1.52-0.61l0.79-1.96c0.1-0.24,0.21-0.43,0.32-0.56c0.12-0.14,0.24-0.22,0.37-0.25
		c0.12-0.03,0.26-0.02,0.4,0.04c0.11,0.04,0.21,0.12,0.31,0.21c0.09,0.1,0.16,0.23,0.2,0.41l1.31-1.04
		c-0.05-0.13-0.12-0.27-0.22-0.43c-0.1-0.16-0.24-0.32-0.42-0.47c-0.18-0.15-0.41-0.29-0.7-0.4c-0.48-0.19-0.93-0.27-1.33-0.22
		c-0.41,0.05-0.76,0.2-1.06,0.47s-0.55,0.65-0.75,1.14l-0.95,2.36l-0.75-0.3l-0.61,1.52l0.75,0.3l-1.97,4.88l1.74,0.7l1.97-4.88
		L120.74,301.8z"/>
	<path class="st1" d="M127.34,302.75c-0.44-0.47-1.01-0.83-1.7-1.07c-0.69-0.24-1.36-0.31-2-0.22c-0.64,0.09-1.21,0.34-1.7,0.74
		s-0.86,0.94-1.1,1.62c-0.23,0.67-0.28,1.32-0.15,1.94s0.43,1.17,0.87,1.65s1.01,0.83,1.7,1.07s1.35,0.31,2,0.22
		c0.64-0.09,1.21-0.34,1.71-0.75s0.86-0.94,1.09-1.61c0.24-0.68,0.29-1.33,0.15-1.95C128.07,303.76,127.78,303.22,127.34,302.75z
		 M126.19,305.68c-0.13,0.37-0.32,0.66-0.57,0.89c-0.25,0.22-0.54,0.37-0.86,0.43c-0.32,0.06-0.64,0.04-0.96-0.07
		c-0.32-0.11-0.59-0.29-0.8-0.54s-0.34-0.54-0.4-0.87s-0.02-0.68,0.11-1.05c0.13-0.37,0.32-0.67,0.57-0.9
		c0.25-0.23,0.54-0.37,0.86-0.43c0.32-0.06,0.64-0.03,0.96,0.08c0.32,0.11,0.59,0.29,0.8,0.53s0.35,0.53,0.4,0.87
		C126.36,304.96,126.32,305.31,126.19,305.68z"/>
	<path class="st1" d="M134.05,304.31c-0.35-0.1-0.72-0.08-1.12,0.07c-0.27,0.1-0.52,0.27-0.76,0.47l0.25-0.85l-1.83-0.54l-1.94,6.62
		l1.83,0.54l1.03-3.52c0.09-0.31,0.21-0.57,0.36-0.77c0.15-0.2,0.32-0.34,0.52-0.42c0.2-0.08,0.41-0.08,0.64-0.01
		c0.19,0.06,0.34,0.13,0.46,0.23c0.11,0.1,0.21,0.23,0.3,0.38l1.31-1.33c-0.08-0.21-0.22-0.39-0.41-0.54
		C134.5,304.49,134.29,304.38,134.05,304.31z"/>
	<polygon class="st1" points="142.81,302.96 141.46,302.68 139.35,312.97 140.71,313.25 140.71,313.25 145.9,314.31 146.26,312.53 
		141.75,311.61 142.32,308.8 146.54,309.66 146.9,307.92 142.68,307.05 143.12,304.88 147.63,305.8 148,304.02 142.81,302.96 	"/>
	<path class="st1" d="M154.77,304.81c-0.79-0.11-1.55-0.08-2.26,0.09s-1.35,0.46-1.92,0.88s-1.03,0.94-1.39,1.56
		s-0.6,1.33-0.71,2.14s-0.07,1.55,0.11,2.25c0.18,0.7,0.49,1.32,0.93,1.87c0.43,0.55,0.97,1,1.62,1.35
		c0.64,0.35,1.36,0.58,2.16,0.68c0.76,0.1,1.41,0.09,1.93-0.03c0.53-0.12,1.02-0.32,1.5-0.6l0.32-2.39
		c-0.26,0.23-0.56,0.43-0.91,0.6c-0.34,0.18-0.71,0.3-1.12,0.38c-0.4,0.08-0.85,0.08-1.35,0.01c-0.59-0.08-1.13-0.29-1.59-0.63
		c-0.47-0.34-0.82-0.79-1.07-1.34s-0.32-1.17-0.23-1.85c0.09-0.69,0.33-1.27,0.71-1.74c0.38-0.46,0.84-0.8,1.38-1
		s1.11-0.27,1.71-0.19c0.5,0.07,0.93,0.19,1.3,0.37c0.37,0.18,0.7,0.4,0.98,0.66c0.28,0.26,0.52,0.54,0.71,0.82l0.32-2.39
		c-0.38-0.39-0.81-0.72-1.28-0.98C156.16,305.09,155.54,304.91,154.77,304.81z"/>
	<path class="st1" d="M164.77,309.86c-0.55-0.34-1.19-0.53-1.92-0.58s-1.39,0.06-1.98,0.32c-0.59,0.26-1.08,0.65-1.45,1.16
		s-0.58,1.13-0.63,1.85c-0.05,0.71,0.08,1.35,0.37,1.91c0.3,0.57,0.72,1.02,1.28,1.36c0.55,0.34,1.19,0.53,1.92,0.58
		c0.73,0.05,1.39-0.05,1.98-0.32c0.59-0.26,1.08-0.65,1.45-1.17c0.37-0.52,0.58-1.13,0.63-1.84c0.05-0.72-0.08-1.36-0.37-1.92
		S165.33,310.2,164.77,309.86z M164.13,314c-0.18,0.28-0.42,0.5-0.71,0.64c-0.29,0.15-0.61,0.21-0.94,0.18s-0.64-0.13-0.91-0.31
		c-0.27-0.18-0.47-0.43-0.62-0.73s-0.2-0.65-0.18-1.04s0.13-0.73,0.32-1.02c0.19-0.29,0.42-0.5,0.71-0.64
		c0.29-0.14,0.6-0.2,0.94-0.18c0.34,0.02,0.64,0.12,0.91,0.3s0.47,0.42,0.62,0.73s0.2,0.66,0.18,1.05
		C164.42,313.38,164.31,313.72,164.13,314z"/>
	<path class="st1" d="M178.02,310.77c-0.16-0.39-0.4-0.69-0.72-0.89c-0.32-0.2-0.74-0.3-1.25-0.29c-0.47,0.01-0.89,0.11-1.25,0.31
		s-0.67,0.5-0.91,0.89c-0.15-0.39-0.4-0.68-0.73-0.88s-0.75-0.29-1.26-0.29c-0.46,0-0.85,0.11-1.18,0.31
		c-0.33,0.2-0.59,0.5-0.79,0.88l-0.01-1.02l-1.88,0.02l0.08,6.9l1.88-0.02l-0.05-4.2c0-0.3,0.04-0.56,0.14-0.77
		c0.1-0.22,0.24-0.38,0.42-0.48c0.18-0.11,0.39-0.16,0.63-0.16c0.36,0,0.62,0.11,0.78,0.34c0.16,0.23,0.25,0.58,0.25,1.05l0.05,4.2
		l1.93-0.02l-0.04-4.2c0-0.3,0.04-0.56,0.14-0.77c0.1-0.22,0.24-0.38,0.41-0.48c0.18-0.11,0.39-0.16,0.63-0.16
		c0.36,0,0.62,0.11,0.78,0.34c0.16,0.23,0.25,0.58,0.25,1.05l0.04,4.2l1.95-0.02l-0.05-4.41
		C178.26,311.64,178.18,311.16,178.02,310.77z"/>
	<path class="st1" d="M187.34,310.53c-0.35-0.52-0.79-0.9-1.31-1.14c-0.53-0.24-1.08-0.34-1.66-0.3c-0.59,0.04-1.09,0.23-1.5,0.56
		c-0.32,0.26-0.56,0.61-0.74,1.01l-0.09-1.19l-1.94,0.15l0.77,10.17l1.94-0.15l-0.34-4.48c0.25,0.37,0.53,0.68,0.89,0.89
		c0.46,0.27,0.98,0.38,1.57,0.33c0.58-0.04,1.11-0.22,1.59-0.54c0.48-0.32,0.86-0.76,1.12-1.33c0.27-0.57,0.37-1.25,0.31-2.02
		C187.9,311.7,187.69,311.05,187.34,310.53z M185.78,313.71c-0.15,0.3-0.36,0.54-0.63,0.71c-0.27,0.17-0.58,0.27-0.92,0.3
		c-0.29,0.02-0.58-0.03-0.86-0.15s-0.53-0.32-0.72-0.6s-0.31-0.62-0.34-1.04c-0.03-0.42,0.03-0.78,0.18-1.08
		c0.15-0.3,0.36-0.54,0.62-0.7c0.26-0.17,0.54-0.26,0.83-0.28c0.34-0.03,0.66,0.03,0.95,0.15c0.3,0.13,0.54,0.33,0.73,0.61
		s0.3,0.62,0.33,1.03S185.93,313.4,185.78,313.71z"/>
	<path class="st1" d="M195.97,309.51c-0.41-0.49-0.91-0.84-1.52-1.06c-0.61-0.22-1.28-0.28-2-0.18c-0.72,0.1-1.35,0.34-1.88,0.71
		c-0.53,0.38-0.92,0.85-1.18,1.43c-0.26,0.58-0.34,1.23-0.24,1.94c0.1,0.7,0.35,1.3,0.75,1.8c0.41,0.5,0.91,0.85,1.53,1.07
		c0.61,0.22,1.28,0.28,2,0.18c0.72-0.1,1.35-0.34,1.88-0.71c0.53-0.38,0.92-0.86,1.18-1.44c0.26-0.59,0.34-1.23,0.24-1.93
		C196.62,310.6,196.37,310,195.97,309.51z M194.66,312.63c-0.12,0.31-0.31,0.57-0.57,0.77c-0.25,0.2-0.55,0.33-0.89,0.37
		c-0.34,0.05-0.66,0.01-0.96-0.12c-0.3-0.12-0.55-0.32-0.76-0.59s-0.33-0.6-0.39-0.98c-0.05-0.39-0.02-0.74,0.1-1.06
		c0.12-0.32,0.31-0.58,0.57-0.78c0.26-0.2,0.55-0.32,0.89-0.36c0.34-0.05,0.65-0.01,0.95,0.11c0.3,0.12,0.55,0.32,0.75,0.59
		c0.21,0.27,0.33,0.6,0.39,0.99C194.81,311.97,194.78,312.32,194.66,312.63z"/>
	<path class="st1" d="M203.29,310.54c-0.24-0.22-0.52-0.38-0.87-0.5c-0.34-0.11-0.71-0.2-1.1-0.27c-0.32-0.07-0.6-0.13-0.85-0.17
		c-0.25-0.04-0.44-0.11-0.59-0.2c-0.14-0.09-0.23-0.21-0.26-0.36c-0.03-0.17,0-0.3,0.11-0.41c0.11-0.11,0.27-0.18,0.48-0.22
		c0.32-0.06,0.67-0.04,1.04,0.06s0.71,0.26,1,0.48l0.61-1.34c-0.26-0.17-0.54-0.32-0.86-0.42c-0.32-0.11-0.65-0.18-1-0.21
		c-0.35-0.03-0.72-0.01-1.1,0.06c-0.45,0.09-0.85,0.24-1.19,0.45c-0.34,0.21-0.59,0.48-0.75,0.8c-0.16,0.32-0.21,0.68-0.13,1.09
		c0.08,0.42,0.24,0.75,0.49,0.98c0.24,0.23,0.53,0.4,0.85,0.51c0.33,0.11,0.66,0.19,0.99,0.24c0.35,0.04,0.65,0.09,0.88,0.15
		c0.23,0.06,0.42,0.14,0.56,0.24s0.22,0.24,0.26,0.42c0.04,0.2,0,0.37-0.12,0.5c-0.12,0.14-0.3,0.23-0.56,0.28
		c-0.2,0.04-0.41,0.04-0.65,0c-0.24-0.04-0.49-0.11-0.77-0.23c-0.28-0.11-0.58-0.28-0.92-0.49l-0.7,1.37
		c0.3,0.2,0.63,0.37,0.99,0.52c0.36,0.15,0.75,0.25,1.17,0.3c0.42,0.05,0.87,0.03,1.36-0.06c0.78-0.15,1.35-0.46,1.72-0.92
		c0.37-0.46,0.49-1.03,0.36-1.71C203.68,311.07,203.53,310.76,203.29,310.54z"/>
	<path class="st1" d="M209.61,310.47c-0.26,0.23-0.59,0.4-1.01,0.5c-0.37,0.09-0.71,0.09-1.01-0.01c-0.3-0.1-0.56-0.29-0.77-0.57
		c-0.13-0.17-0.23-0.39-0.33-0.63l5.15-1.27c0-0.06-0.02-0.14-0.04-0.24c-0.02-0.1-0.04-0.19-0.06-0.28
		c-0.18-0.72-0.46-1.3-0.86-1.74c-0.4-0.44-0.89-0.73-1.47-0.87s-1.25-0.12-1.98,0.07c-0.74,0.18-1.34,0.48-1.82,0.91
		s-0.79,0.93-0.96,1.52c-0.17,0.59-0.16,1.25,0.01,1.97c0.17,0.71,0.47,1.29,0.9,1.73s0.94,0.75,1.56,0.9
		c0.62,0.16,1.29,0.14,2.02-0.04c0.81-0.2,1.46-0.53,1.96-0.99c0.5-0.46,0.85-1.05,1.04-1.76l-1.77-0.1
		C210.05,309.93,209.87,310.23,209.61,310.47z M206.66,307.23c0.21-0.22,0.5-0.38,0.87-0.47c0.3-0.07,0.58-0.07,0.84,0.01
		s0.47,0.22,0.65,0.43c0.14,0.16,0.25,0.38,0.33,0.63l-3.1,0.77c-0.01-0.18-0.01-0.35,0.02-0.51
		C206.33,307.73,206.46,307.45,206.66,307.23z"/>
	<path class="st1" d="M215.51,303.1c-0.34,0.1-0.64,0.33-0.89,0.67c-0.17,0.24-0.29,0.51-0.38,0.81l-0.25-0.85l-1.82,0.55l1.99,6.61
		l1.82-0.55l-1.05-3.51c-0.09-0.32-0.14-0.6-0.12-0.85c0.01-0.25,0.08-0.46,0.21-0.63c0.12-0.17,0.3-0.29,0.53-0.36
		c0.19-0.06,0.36-0.08,0.51-0.05c0.15,0.02,0.3,0.07,0.46,0.15l0.37-1.83c-0.19-0.13-0.4-0.21-0.64-0.23S215.75,303.03,215.51,303.1
		z"/>
	<path class="st1" d="M226.05,301.28l-0.58-1.53l-1.53,0.58l-0.75-1.98c-0.09-0.24-0.14-0.45-0.14-0.63c0-0.18,0.03-0.32,0.1-0.43
		c0.07-0.11,0.18-0.19,0.32-0.24c0.11-0.04,0.24-0.06,0.37-0.05c0.14,0.01,0.28,0.06,0.42,0.17l0.26-1.65
		c-0.12-0.06-0.27-0.12-0.46-0.16c-0.18-0.05-0.39-0.07-0.62-0.06c-0.23,0.01-0.49,0.07-0.78,0.18c-0.49,0.18-0.86,0.43-1.13,0.74
		s-0.42,0.67-0.46,1.07s0.03,0.85,0.22,1.34l0.9,2.38l-0.76,0.29l0.58,1.53l0.76-0.29l1.86,4.92l1.75-0.66l-1.86-4.92L226.05,301.28
		z"/>
	<path class="st1" d="M233.27,298.13c-0.52-0.36-1.11-0.57-1.75-0.61c-0.65-0.05-1.3,0.08-1.97,0.37s-1.21,0.69-1.62,1.19
		s-0.66,1.07-0.75,1.7s0,1.27,0.29,1.93c0.28,0.65,0.69,1.16,1.21,1.53c0.52,0.37,1.11,0.57,1.76,0.62
		c0.65,0.05,1.31-0.08,1.98-0.37c0.67-0.29,1.21-0.69,1.62-1.19s0.66-1.07,0.75-1.71c0.09-0.63-0.01-1.28-0.29-1.93
		C234.2,299,233.79,298.49,233.27,298.13z M232.51,302.39c-0.19,0.26-0.44,0.46-0.75,0.6c-0.31,0.14-0.63,0.18-0.95,0.14
		c-0.32-0.04-0.62-0.16-0.89-0.37s-0.48-0.49-0.64-0.84c-0.16-0.36-0.22-0.71-0.18-1.05s0.14-0.64,0.34-0.9
		c0.19-0.26,0.45-0.46,0.76-0.59c0.31-0.14,0.63-0.19,0.95-0.15c0.32,0.04,0.62,0.16,0.89,0.37c0.27,0.21,0.48,0.49,0.64,0.85
		c0.16,0.36,0.22,0.71,0.18,1.04C232.81,301.83,232.7,302.13,232.51,302.39z"/>
	<path class="st1" d="M237.55,297.9c-0.15-0.29-0.23-0.57-0.26-0.82s0-0.47,0.1-0.66c0.09-0.19,0.25-0.34,0.46-0.45
		c0.18-0.09,0.34-0.13,0.49-0.14s0.31,0.02,0.48,0.07l0.06-1.87c-0.21-0.1-0.43-0.14-0.67-0.12c-0.24,0.02-0.47,0.08-0.7,0.2
		c-0.32,0.16-0.58,0.43-0.77,0.81c-0.13,0.26-0.2,0.56-0.24,0.86l-0.39-0.79l-1.71,0.85l3.06,6.18l1.71-0.85L237.55,297.9
		L237.55,297.9z"/>
	<path class="st1" d="M247.61,290.57l-0.83-1.41l-1.41,0.83l-1.07-1.83c-0.13-0.22-0.21-0.42-0.25-0.6
		c-0.03-0.18-0.02-0.32,0.03-0.44c0.05-0.12,0.14-0.21,0.27-0.29c0.1-0.06,0.22-0.1,0.36-0.11c0.14-0.02,0.29,0.02,0.45,0.09
		l-0.02-1.67c-0.13-0.04-0.29-0.07-0.48-0.09s-0.4,0-0.62,0.04c-0.23,0.05-0.48,0.15-0.74,0.3c-0.45,0.26-0.78,0.57-0.99,0.92
		c-0.21,0.35-0.31,0.73-0.28,1.13s0.17,0.83,0.44,1.29l1.29,2.2l-0.7,0.41l0.83,1.41l0.7-0.41l2.66,4.55l1.62-0.95l-2.66-4.55
		L247.61,290.57z"/>
	<path class="st1" d="M250.75,289.49c-0.05-0.24-0.04-0.47,0.03-0.67c0.07-0.2,0.21-0.37,0.42-0.5c0.17-0.11,0.33-0.17,0.48-0.19
		c0.15-0.02,0.31-0.01,0.48,0.02l-0.14-1.87c-0.21-0.08-0.44-0.09-0.68-0.05c-0.24,0.04-0.46,0.13-0.67,0.27
		c-0.3,0.19-0.53,0.49-0.68,0.89c-0.1,0.27-0.14,0.57-0.15,0.88l-0.47-0.74l-1.61,1.02l3.7,5.82l1.61-1.02l-1.97-3.09
		C250.92,289.99,250.81,289.73,250.75,289.49z"/>
	<path class="st1" d="M259.3,286.33c0.03,0.38-0.04,0.73-0.19,1.04s-0.41,0.59-0.76,0.84c-0.31,0.22-0.62,0.34-0.94,0.35
		s-0.62-0.07-0.92-0.25c-0.18-0.11-0.36-0.28-0.53-0.47l4.33-3.06c-0.03-0.05-0.07-0.12-0.12-0.21s-0.11-0.16-0.16-0.24
		c-0.43-0.6-0.91-1.04-1.44-1.31s-1.09-0.36-1.69-0.28c-0.6,0.08-1.2,0.34-1.83,0.78s-1.08,0.94-1.36,1.5
		c-0.29,0.56-0.4,1.15-0.34,1.76c0.06,0.61,0.3,1.22,0.73,1.83c0.42,0.6,0.91,1.03,1.47,1.29s1.15,0.35,1.78,0.28
		c0.63-0.08,1.25-0.33,1.87-0.76c0.68-0.48,1.17-1.02,1.47-1.63s0.41-1.28,0.33-2.02L259.3,286.33z M255.19,285.42
		c0.11-0.28,0.33-0.53,0.64-0.75c0.25-0.18,0.51-0.28,0.78-0.29c0.27-0.02,0.52,0.04,0.76,0.16c0.19,0.1,0.37,0.26,0.54,0.47
		l-2.61,1.84c-0.07-0.16-0.13-0.33-0.17-0.48C255.06,286.02,255.07,285.71,255.19,285.42z"/>
	<path class="st1" d="M266.09,281.1c0.05,0.38,0.01,0.73-0.13,1.05c-0.14,0.32-0.37,0.61-0.71,0.88c-0.3,0.24-0.6,0.37-0.92,0.41
		s-0.63-0.03-0.93-0.2c-0.19-0.1-0.38-0.26-0.56-0.44l4.15-3.3c-0.03-0.05-0.07-0.12-0.13-0.2c-0.06-0.08-0.12-0.16-0.17-0.23
		c-0.46-0.58-0.96-0.99-1.51-1.22c-0.55-0.24-1.11-0.29-1.7-0.18c-0.59,0.12-1.18,0.41-1.78,0.89c-0.59,0.47-1.02,1-1.27,1.58
		c-0.25,0.58-0.33,1.17-0.24,1.78c0.09,0.61,0.37,1.2,0.83,1.78c0.46,0.57,0.97,0.97,1.54,1.2c0.57,0.23,1.17,0.29,1.79,0.17
		c0.62-0.11,1.23-0.4,1.82-0.87c0.65-0.52,1.11-1.09,1.37-1.71c0.26-0.62,0.33-1.3,0.21-2.04L266.09,281.1z M261.93,280.44
		c0.1-0.29,0.29-0.55,0.59-0.79c0.24-0.19,0.5-0.31,0.76-0.34c0.27-0.03,0.52,0,0.77,0.11c0.2,0.09,0.39,0.24,0.56,0.43l-2.5,1.98
		c-0.08-0.16-0.15-0.32-0.19-0.47C261.83,281.04,261.83,280.72,261.93,280.44z"/>
	<path class="st1" d="M190.07,33c0.45,0.54,1,0.98,1.65,1.32s1.38,0.55,2.19,0.64c0.86,0.09,1.63,0.02,2.33-0.22
		c0.7-0.24,1.3-0.6,1.81-1.1c0.51-0.49,0.91-1.08,1.2-1.77c0.29-0.68,0.46-1.42,0.52-2.22l-5.15-0.55l-0.18,1.7l3,0.32
		c-0.12,0.31-0.28,0.59-0.48,0.84c-0.2,0.25-0.43,0.47-0.7,0.65c-0.27,0.18-0.58,0.31-0.92,0.39c-0.34,0.08-0.73,0.1-1.16,0.05
		c-0.65-0.07-1.21-0.28-1.69-0.63c-0.48-0.35-0.84-0.82-1.08-1.39c-0.24-0.57-0.32-1.22-0.25-1.93c0.08-0.73,0.3-1.34,0.66-1.83
		c0.36-0.49,0.81-0.86,1.36-1.08c0.55-0.23,1.13-0.31,1.76-0.24c0.67,0.07,1.21,0.27,1.65,0.61c0.43,0.33,0.75,0.74,0.96,1.23
		l1.93-0.87c-0.27-0.52-0.6-0.98-1.01-1.38c-0.4-0.4-0.88-0.73-1.43-0.99s-1.18-0.43-1.9-0.5c-0.81-0.09-1.57-0.04-2.28,0.15
		c-0.71,0.19-1.35,0.49-1.91,0.91c-0.56,0.42-1.01,0.96-1.37,1.6c-0.36,0.64-0.58,1.36-0.66,2.17c-0.09,0.81-0.03,1.56,0.17,2.27
		S189.62,32.45,190.07,33z"/>
	<path class="st1" d="M201.49,35.39c0.5,0.39,1.12,0.66,1.85,0.79c0.82,0.15,1.55,0.11,2.19-0.1c0.64-0.21,1.2-0.61,1.67-1.18
		l-1.57-0.82c-0.26,0.29-0.55,0.49-0.88,0.6c-0.33,0.11-0.71,0.12-1.13,0.05c-0.37-0.07-0.68-0.21-0.91-0.42
		c-0.24-0.21-0.39-0.49-0.47-0.83c-0.05-0.21-0.05-0.45-0.04-0.71l5.22,0.94c0.02-0.06,0.04-0.13,0.07-0.23
		c0.02-0.1,0.04-0.19,0.06-0.28c0.13-0.73,0.11-1.38-0.08-1.94c-0.18-0.57-0.51-1.03-0.99-1.4c-0.48-0.37-1.09-0.62-1.84-0.75
		c-0.75-0.14-1.42-0.11-2.03,0.08c-0.6,0.19-1.1,0.52-1.5,0.99c-0.4,0.47-0.66,1.07-0.79,1.8c-0.13,0.72-0.09,1.37,0.11,1.95
		C200.64,34.51,200.99,35,201.49,35.39z M202.68,31.13c0.19-0.3,0.43-0.5,0.71-0.62s0.61-0.14,0.98-0.07
		c0.3,0.06,0.56,0.17,0.76,0.35c0.2,0.18,0.34,0.4,0.42,0.66c0.07,0.21,0.07,0.45,0.04,0.71l-3.14-0.57
		C202.52,31.42,202.59,31.27,202.68,31.13z"/>
	<polygon class="st1" points="209.97,37.41 211.14,32.28 212.31,32.54 212.67,30.95 211.5,30.68 212.04,28.34 210.21,27.93 
		209.68,30.27 208.52,30 208.16,31.6 209.31,31.86 208.15,36.99 	"/>
	<path class="st1" d="M217.78,38.24c0.09,0.43,0.24,0.83,0.5,1.15c0.33,0.42,0.77,0.71,1.33,0.89c0.55,0.17,1.11,0.2,1.68,0.08
		s1.08-0.39,1.54-0.83c0.46-0.43,0.81-1.02,1.04-1.77c0.24-0.75,0.29-1.44,0.15-2.05c-0.13-0.61-0.4-1.13-0.8-1.54
		c-0.4-0.42-0.88-0.71-1.43-0.88c-0.56-0.18-1.1-0.18-1.6-0.03c-0.39,0.12-0.74,0.36-1.06,0.66l0.35-1.14l-1.86-0.58l-3.03,9.74
		l1.86,0.58L217.78,38.24z M220.73,34.77c0.32,0.1,0.6,0.27,0.83,0.49s0.38,0.51,0.46,0.83s0.05,0.69-0.07,1.08s-0.31,0.7-0.56,0.93
		c-0.25,0.23-0.53,0.37-0.85,0.43s-0.64,0.04-0.96-0.06c-0.28-0.09-0.53-0.24-0.75-0.46c-0.22-0.22-0.37-0.5-0.45-0.82
		s-0.06-0.69,0.07-1.09c0.12-0.4,0.31-0.71,0.57-0.94c0.25-0.23,0.53-0.37,0.84-0.42S220.45,34.68,220.73,34.77z"/>
	<path class="st1" d="M223.79,40.52c0.09,0.38,0.29,0.72,0.57,1.01c0.29,0.29,0.63,0.51,1.03,0.66c0.39,0.15,0.8,0.22,1.21,0.22
		s0.79-0.1,1.12-0.3c0.08-0.04,0.13-0.12,0.2-0.17l-0.35,0.92l1.75,0.66l1.73-4.57c0.17-0.44,0.19-0.86,0.06-1.25
		c-0.13-0.4-0.38-0.75-0.75-1.08c-0.37-0.32-0.83-0.59-1.38-0.8c-0.6-0.23-1.17-0.35-1.72-0.37c-0.55-0.02-1.02-0.01-1.43,0.04
		l0.21,1.49c0.12-0.03,0.29-0.05,0.53-0.07c0.23-0.02,0.5-0.01,0.79,0.03s0.59,0.11,0.89,0.23c0.2,0.07,0.37,0.16,0.51,0.26
		c0.14,0.1,0.26,0.21,0.34,0.34c0.08,0.13,0.13,0.27,0.14,0.41c0.01,0.15-0.02,0.31-0.09,0.49l-0.26,0.69c0,0,0,0,0,0
		c-0.17-0.2-0.39-0.41-0.68-0.61s-0.63-0.38-1.04-0.54c-0.8-0.3-1.5-0.36-2.07-0.16c-0.58,0.2-0.98,0.61-1.22,1.24
		C223.73,39.73,223.69,40.14,223.79,40.52z M225.75,39.88c0.07-0.19,0.17-0.33,0.3-0.42c0.13-0.09,0.3-0.14,0.5-0.15
		s0.45,0.05,0.73,0.16c0.35,0.13,0.66,0.3,0.94,0.51c0.12,0.09,0.23,0.19,0.33,0.3l0,0.01l0,0c-0.12,0.31-0.29,0.55-0.51,0.71
		c-0.22,0.17-0.47,0.27-0.74,0.3c-0.27,0.03-0.54-0.01-0.82-0.11c-0.2-0.08-0.36-0.18-0.5-0.31c-0.14-0.13-0.23-0.28-0.27-0.46
		S225.68,40.07,225.75,39.88z"/>
	<path class="st1" d="M234.85,36.69c0.29,0.13,0.59,0.14,0.88,0.03c0.29-0.1,0.5-0.3,0.62-0.58c0.13-0.29,0.13-0.58,0-0.86
		c-0.13-0.28-0.34-0.48-0.63-0.6c-0.29-0.13-0.59-0.14-0.88-0.04s-0.5,0.29-0.63,0.59c-0.12,0.29-0.12,0.57,0.01,0.85
		S234.56,36.56,234.85,36.69z"/>
	
		<rect x="229.41" y="40.36" transform="matrix(0.3925 -0.9198 0.9198 0.3925 103.478 239.2684)" class="st1" width="6.9" height="1.89"/>
	<path class="st1" d="M234.9,42.13c-0.33,0.68-0.47,1.34-0.43,1.96c0.04,0.62,0.24,1.17,0.57,1.64s0.76,0.83,1.28,1.08
		c0.52,0.25,1.05,0.34,1.57,0.28c0.38-0.05,0.75-0.18,1.1-0.39l-0.48,1.01l1.76,0.85L245.35,38l-1.76-0.85L241,42.52
		c-0.05-0.41-0.15-0.8-0.36-1.14c-0.28-0.46-0.67-0.81-1.2-1.06c-0.51-0.25-1.06-0.36-1.64-0.33c-0.58,0.03-1.13,0.22-1.64,0.57
		C235.66,40.91,235.23,41.43,234.9,42.13z M236.71,43c0.18-0.37,0.41-0.65,0.69-0.85c0.28-0.2,0.59-0.3,0.92-0.32
		c0.33-0.02,0.64,0.04,0.94,0.19c0.26,0.13,0.48,0.32,0.66,0.58c0.18,0.26,0.28,0.56,0.31,0.91c0.03,0.34-0.05,0.71-0.23,1.08l0,0
		c-0.18,0.38-0.42,0.66-0.7,0.86c-0.29,0.19-0.59,0.3-0.9,0.32c-0.32,0.02-0.6-0.03-0.87-0.16c-0.3-0.14-0.54-0.35-0.73-0.62
		c-0.19-0.27-0.3-0.58-0.32-0.92C236.46,43.72,236.53,43.37,236.71,43z"/>
	<path class="st1" d="M245.22,51.28l1.62,0.95l2.66-4.55l1.41,0.82l0.83-1.41l-1.41-0.82l1.07-1.83c0.13-0.22,0.26-0.39,0.4-0.51
		c0.14-0.12,0.27-0.18,0.4-0.19c0.13-0.01,0.26,0.02,0.39,0.1c0.1,0.06,0.2,0.15,0.28,0.26c0.08,0.11,0.12,0.26,0.14,0.44l1.45-0.84
		c-0.03-0.13-0.08-0.28-0.16-0.46c-0.08-0.17-0.19-0.35-0.35-0.52c-0.15-0.18-0.36-0.34-0.63-0.5c-0.45-0.26-0.88-0.4-1.29-0.41
		c-0.41-0.01-0.78,0.09-1.12,0.31s-0.64,0.56-0.91,1.02l-1.29,2.2l-0.7-0.41l-0.83,1.41l0.7,0.41L245.22,51.28z"/>
	<path class="st1" d="M251.77,48.92c-0.58,0.27-1.06,0.71-1.45,1.31c-0.39,0.6-0.59,1.21-0.6,1.85c-0.02,0.64,0.13,1.24,0.45,1.81
		c0.32,0.56,0.78,1.05,1.4,1.44c0.61,0.4,1.24,0.63,1.89,0.69s1.26-0.04,1.83-0.32s1.06-0.71,1.45-1.31
		c0.39-0.6,0.59-1.22,0.61-1.86c0.01-0.64-0.14-1.24-0.46-1.8c-0.32-0.57-0.78-1.05-1.4-1.44s-1.24-0.63-1.89-0.69
		S252.34,48.65,251.77,48.92z M254.59,50.67c0.29,0.19,0.5,0.42,0.65,0.71c0.15,0.29,0.21,0.6,0.18,0.94s-0.14,0.68-0.36,1
		c-0.21,0.33-0.47,0.57-0.77,0.73c-0.3,0.16-0.61,0.23-0.94,0.22c-0.33-0.01-0.63-0.11-0.92-0.3c-0.29-0.18-0.5-0.42-0.65-0.71
		c-0.14-0.29-0.21-0.6-0.18-0.94c0.02-0.34,0.14-0.67,0.35-1c0.21-0.33,0.47-0.57,0.77-0.73s0.61-0.23,0.94-0.21
		C254.01,50.38,254.31,50.48,254.59,50.67z"/>
	<path class="st1" d="M257.14,58.97l2.15-2.96l0,0c0.19-0.27,0.39-0.47,0.6-0.61c0.21-0.14,0.42-0.21,0.63-0.22
		c0.21-0.01,0.42,0.06,0.61,0.2c0.16,0.12,0.28,0.24,0.35,0.37s0.12,0.28,0.16,0.46l1.68-0.82c-0.01-0.23-0.08-0.44-0.21-0.65
		c-0.13-0.21-0.3-0.38-0.5-0.53c-0.29-0.21-0.65-0.31-1.07-0.31c-0.29,0-0.59,0.08-0.88,0.19l0.52-0.72l-1.54-1.12l-4.05,5.59
		L257.14,58.97z"/>
	<polygon class="st1" points="264.79,64.94 268.15,60.89 269.07,61.65 270.11,60.39 269.19,59.63 270.72,57.78 269.28,56.58 
		267.75,58.43 266.83,57.67 265.79,58.93 266.7,59.69 263.34,63.74 	"/>
	<path class="st1" d="M267.58,67.35l2.82-3.11l0,0c0.2-0.21,0.4-0.36,0.63-0.45s0.45-0.09,0.68-0.04c0.23,0.06,0.45,0.17,0.65,0.36
		c0.3,0.27,0.44,0.56,0.41,0.86s-0.2,0.61-0.51,0.95l-2.82,3.11l1.45,1.31l3.01-3.32c0.38-0.42,0.64-0.84,0.78-1.24
		c0.14-0.41,0.15-0.8,0.02-1.18c-0.12-0.38-0.39-0.76-0.79-1.12c-0.4-0.36-0.83-0.57-1.27-0.63c-0.38-0.05-0.75,0.02-1.11,0.15
		l3.91-4.32l-1.44-1.31l-7.86,8.67L267.58,67.35z"/>
	<path class="st1" d="M272.99,70.22c-0.17,0.59-0.16,1.19,0.01,1.8c0.18,0.61,0.53,1.18,1.06,1.72c0.58,0.59,1.2,0.99,1.84,1.18
		s1.33,0.2,2.05,0l-0.81-1.58c-0.38,0.09-0.73,0.08-1.06-0.02c-0.33-0.1-0.65-0.31-0.95-0.61c-0.27-0.27-0.43-0.56-0.5-0.88
		c-0.07-0.31-0.04-0.63,0.1-0.95c0.08-0.2,0.22-0.4,0.38-0.6l3.71,3.78c0.05-0.04,0.11-0.08,0.19-0.15
		c0.07-0.07,0.14-0.13,0.21-0.19c0.53-0.52,0.88-1.06,1.06-1.63c0.18-0.57,0.18-1.14,0-1.71c-0.18-0.57-0.53-1.13-1.07-1.67
		s-1.1-0.91-1.7-1.1c-0.6-0.19-1.2-0.21-1.8-0.05c-0.6,0.16-1.16,0.5-1.69,1.01C273.5,69.07,273.16,69.63,272.99,70.22z
		 M277.37,69.13c0.3,0.07,0.58,0.23,0.84,0.51c0.22,0.22,0.36,0.46,0.42,0.73c0.06,0.26,0.05,0.52-0.03,0.78
		c-0.07,0.21-0.2,0.41-0.37,0.6l-2.23-2.28c0.15-0.1,0.3-0.18,0.45-0.24C276.76,69.1,277.08,69.07,277.37,69.13z"/>
	<path class="st1" d="M280.16,80.15l1.21,1.43l4.03-3.39l1.05,1.25l1.25-1.05l-1.05-1.25l1.62-1.36c0.2-0.17,0.38-0.28,0.55-0.35
		c0.17-0.06,0.32-0.08,0.44-0.05s0.24,0.11,0.33,0.22c0.08,0.09,0.13,0.2,0.17,0.33c0.04,0.13,0.03,0.28-0.02,0.46l1.64-0.31
		c0.02-0.13,0.02-0.29,0-0.48c-0.02-0.19-0.07-0.39-0.15-0.61c-0.08-0.22-0.23-0.44-0.43-0.68c-0.33-0.4-0.69-0.67-1.07-0.82
		c-0.38-0.15-0.77-0.18-1.16-0.08c-0.39,0.09-0.79,0.31-1.2,0.65l-1.95,1.64l-0.52-0.62l-1.25,1.05l0.52,0.62L280.16,80.15z"/>
	<path class="st1" d="M290.29,77.38c-0.24,0.19-0.38,0.44-0.4,0.75s0.07,0.59,0.27,0.84c0.2,0.25,0.45,0.4,0.75,0.45
		s0.58-0.03,0.82-0.22c0.25-0.2,0.39-0.45,0.41-0.75c0.02-0.3-0.07-0.58-0.27-0.83c-0.2-0.25-0.45-0.4-0.75-0.46
		C290.82,77.11,290.55,77.18,290.29,77.38z"/>
	
		<rect x="282.76" y="81.14" transform="matrix(0.784 -0.6207 0.6207 0.784 10.863 195.3845)" class="st1" width="6.9" height="1.89"/>
	<path class="st1" d="M291.05,84.17l0.71-0.52l-1.13-1.53l-5.55,4.1l1.13,1.53l2.95-2.18c0.26-0.19,0.51-0.33,0.75-0.4
		c0.24-0.07,0.46-0.08,0.67-0.02c0.21,0.06,0.38,0.19,0.52,0.38c0.12,0.16,0.19,0.32,0.22,0.46c0.03,0.15,0.03,0.31,0.01,0.49
		l1.85-0.27c0.06-0.22,0.06-0.45,0-0.68s-0.17-0.45-0.31-0.65c-0.21-0.29-0.52-0.5-0.93-0.62
		C291.66,84.18,291.36,84.16,291.05,84.17z"/>
	<path class="st1" d="M291.71,88.38c-0.12,0.32-0.16,0.64-0.13,0.98c0.03,0.34,0.09,0.68,0.17,1.01c0.1,0.34,0.17,0.63,0.21,0.87
		s0.04,0.44,0,0.61c-0.04,0.17-0.13,0.3-0.28,0.4c-0.17,0.11-0.34,0.14-0.51,0.09c-0.17-0.05-0.33-0.19-0.48-0.4
		c-0.11-0.17-0.2-0.36-0.26-0.6s-0.09-0.5-0.09-0.8c0-0.3,0.03-0.64,0.09-1.04l-1.54-0.1c-0.06,0.35-0.09,0.73-0.09,1.12
		c0,0.39,0.06,0.79,0.18,1.2c0.12,0.41,0.31,0.82,0.59,1.22c0.44,0.65,0.95,1.06,1.52,1.22s1.14,0.04,1.71-0.34
		c0.35-0.23,0.58-0.5,0.69-0.81c0.11-0.3,0.15-0.63,0.12-0.99c-0.03-0.36-0.09-0.73-0.18-1.12c-0.06-0.32-0.12-0.61-0.17-0.85
		c-0.06-0.25-0.07-0.45-0.05-0.62s0.1-0.29,0.22-0.38c0.14-0.09,0.28-0.11,0.42-0.06c0.14,0.06,0.27,0.17,0.4,0.36
		c0.18,0.27,0.3,0.6,0.35,0.98c0.05,0.38,0.04,0.75-0.05,1.11l1.47,0.04c0.06-0.31,0.08-0.62,0.05-0.96
		c-0.02-0.33-0.09-0.67-0.2-1.01c-0.11-0.34-0.27-0.67-0.49-0.99c-0.26-0.38-0.55-0.69-0.88-0.92c-0.33-0.23-0.67-0.36-1.03-0.38
		s-0.71,0.08-1.05,0.31C292.07,87.78,291.83,88.06,291.71,88.38z"/>
	<polygon class="st1" points="297.87,95.74 299.26,94.88 298.63,93.86 300.67,92.59 299.68,91 297.64,92.26 297.02,91.26 
		295.63,92.12 296.25,93.12 291.78,95.9 292.76,97.49 297.24,94.72 	"/>
	<path class="st1" d="M303.2,107.91l-3.75,1.89l0.88,1.74l3.94-1.98c0.5-0.25,0.89-0.54,1.18-0.85c0.28-0.32,0.44-0.66,0.48-1.04
		s-0.05-0.79-0.28-1.25c-0.21-0.42-0.49-0.75-0.83-0.98s-0.74-0.38-1.21-0.43c0.28-0.31,0.44-0.66,0.47-1.04s-0.07-0.8-0.3-1.26
		c-0.21-0.41-0.47-0.72-0.8-0.92s-0.71-0.31-1.13-0.32l0.91-0.46l-0.84-1.67l-6.17,3.1l0.84,1.68l3.75-1.89
		c0.27-0.13,0.52-0.21,0.76-0.21c0.24-0.01,0.44,0.05,0.62,0.16c0.17,0.11,0.32,0.28,0.42,0.49c0.16,0.32,0.17,0.61,0.04,0.86
		c-0.14,0.25-0.42,0.48-0.84,0.69l-3.75,1.89l0.87,1.73l3.75-1.89c0.27-0.13,0.52-0.21,0.76-0.21c0.24-0.01,0.44,0.05,0.62,0.16
		c0.17,0.11,0.32,0.28,0.42,0.49c0.16,0.32,0.17,0.61,0.04,0.85C303.89,107.47,303.62,107.69,303.2,107.91z"/>
	<path class="st1" d="M303.83,111.04c-0.66,0.27-1.17,0.67-1.55,1.18c-0.38,0.52-0.59,1.1-0.65,1.75c-0.06,0.65,0.05,1.31,0.33,1.98
		c0.28,0.67,0.67,1.22,1.16,1.64c0.5,0.42,1.06,0.68,1.69,0.78c0.63,0.1,1.28,0.02,1.93-0.25c0.67-0.27,1.18-0.67,1.55-1.19
		c0.37-0.52,0.59-1.1,0.64-1.74c0.06-0.65-0.05-1.31-0.33-1.98c-0.28-0.67-0.67-1.22-1.16-1.64s-1.06-0.68-1.69-0.78
		S304.49,110.76,303.83,111.04z M307.1,113.82c0.13,0.31,0.17,0.63,0.13,0.95c-0.04,0.32-0.17,0.61-0.38,0.88
		c-0.21,0.27-0.5,0.48-0.86,0.62c-0.36,0.15-0.71,0.2-1.04,0.16s-0.63-0.16-0.89-0.35c-0.26-0.2-0.45-0.45-0.58-0.76
		c-0.13-0.31-0.17-0.63-0.13-0.95c0.05-0.32,0.17-0.62,0.38-0.88c0.21-0.26,0.49-0.47,0.85-0.62c0.36-0.15,0.71-0.2,1.05-0.17
		c0.34,0.04,0.64,0.16,0.89,0.35C306.78,113.25,306.97,113.51,307.1,113.82z"/>
	<path class="st1" d="M304.51,122.15l3.97-1.36c0.27-0.09,0.53-0.12,0.76-0.09s0.44,0.13,0.62,0.3c0.18,0.16,0.31,0.37,0.4,0.62
		c0.13,0.38,0.11,0.69-0.06,0.94c-0.17,0.25-0.47,0.45-0.91,0.6l-3.97,1.36l0.65,1.9l4.17-1.43c0.78-0.27,1.33-0.67,1.64-1.2
		c0.31-0.53,0.33-1.18,0.07-1.96c-0.16-0.46-0.39-0.83-0.7-1.08s-0.68-0.43-1.11-0.5l0.99-0.34l-0.63-1.84l-6.53,2.24L304.51,122.15
		z"/>
	<polygon class="st1" points="311.16,125.45 311.5,126.58 306.44,128.07 306.97,129.87 312.02,128.38 312.36,129.53 313.93,129.07 
		313.59,127.92 315.9,127.24 315.37,125.45 313.06,126.12 312.73,124.99 	"/>
	<path class="st1" d="M307.95,133.45l4.08-1l0,0c0.28-0.07,0.54-0.08,0.77-0.02s0.43,0.17,0.59,0.35c0.16,0.18,0.28,0.4,0.34,0.66
		c0.1,0.4,0.05,0.71-0.14,0.94c-0.19,0.23-0.51,0.4-0.96,0.5l-4.08,1l0.47,1.89l4.36-1.07c0.55-0.14,1-0.33,1.34-0.59
		c0.34-0.26,0.57-0.58,0.68-0.97s0.1-0.84-0.03-1.37c-0.13-0.52-0.36-0.94-0.7-1.23c-0.29-0.25-0.63-0.4-1.01-0.49l5.66-1.39
		l-0.47-1.89l-11.36,2.79L307.95,133.45z"/>
	<path class="st1" d="M310.36,144.99l1.17-0.17c-0.32,0.28-0.59,0.59-0.76,0.96c-0.22,0.48-0.29,1.01-0.21,1.57
		c0.09,0.57,0.31,1.09,0.66,1.55s0.82,0.8,1.4,1.03s1.25,0.28,2,0.17c0.76-0.11,1.38-0.36,1.87-0.75s0.83-0.85,1.03-1.39
		c0.2-0.54,0.26-1.1,0.17-1.67c-0.08-0.56-0.3-1.04-0.66-1.44c-0.27-0.3-0.61-0.52-1-0.69l5.91-0.89l-0.29-1.93l-11.57,1.73
		L310.36,144.99z M315.91,146.91c-0.12,0.3-0.31,0.56-0.58,0.78c-0.27,0.21-0.61,0.35-1.02,0.41c-0.41,0.06-0.77,0.03-1.09-0.09
		c-0.32-0.12-0.58-0.31-0.78-0.57c-0.2-0.26-0.33-0.56-0.38-0.89c-0.04-0.29-0.01-0.58,0.1-0.87s0.3-0.55,0.58-0.77
		c0.27-0.22,0.61-0.36,1.03-0.42c0.42-0.06,0.78-0.03,1.11,0.1c0.32,0.13,0.58,0.32,0.78,0.57s0.31,0.52,0.36,0.8
		C316.06,146.28,316.03,146.6,315.91,146.91z"/>
	<polygon class="st1" points="318.54,155.19 314.12,153.89 318.22,151.77 318.03,149.62 312.11,153.05 307.97,151.68 308.16,153.67 
		318.73,157.21 	"/>
	<path class="st1" d="M322.52,162.24l-10.5,0.17l0.06,3.72c0.01,0.78,0.13,1.46,0.35,2.05c0.22,0.59,0.55,1.04,1,1.36
		c0.45,0.32,1.01,0.47,1.7,0.46c0.52-0.01,0.96-0.12,1.33-0.34s0.66-0.52,0.89-0.89c0.19-0.3,0.32-0.65,0.42-1.01
		c0.2,0.48,0.47,0.86,0.83,1.14c0.38,0.29,0.84,0.44,1.37,0.43c0.6-0.01,1.09-0.17,1.48-0.47c0.38-0.31,0.67-0.73,0.86-1.26
		c0.19-0.53,0.27-1.15,0.26-1.85L322.52,162.24z M316.74,166.61c-0.05,0.23-0.14,0.44-0.26,0.61c-0.12,0.18-0.28,0.31-0.46,0.41
		s-0.41,0.15-0.67,0.15c-0.36,0.01-0.66-0.07-0.89-0.23c-0.23-0.16-0.4-0.39-0.51-0.67s-0.17-0.61-0.17-0.97l-0.02-1.38l3.03-0.05
		l0.02,1.38C316.82,166.13,316.79,166.38,316.74,166.61z M320.56,166.69c-0.21,0.28-0.51,0.42-0.91,0.43
		c-0.26,0-0.49-0.05-0.68-0.18c-0.19-0.12-0.34-0.3-0.44-0.53c-0.1-0.23-0.16-0.5-0.16-0.81l-0.02-1.15l2.49-0.04l0.02,1.16
		C320.87,166.04,320.77,166.41,320.56,166.69z"/>
	<path class="st1" d="M318.88,174.82c0.04-0.76-0.06-1.43-0.33-2c-0.26-0.58-0.65-1.03-1.17-1.37c-0.52-0.34-1.14-0.53-1.88-0.57
		c-0.73-0.04-1.37,0.07-1.92,0.34c-0.55,0.27-0.99,0.68-1.33,1.22c-0.33,0.54-0.52,1.19-0.57,1.94c-0.05,0.83,0.07,1.55,0.36,2.16
		s0.75,1.12,1.38,1.52l0.62-1.66c-0.32-0.22-0.55-0.49-0.7-0.8s-0.21-0.69-0.18-1.12c0.02-0.38,0.13-0.7,0.31-0.96
		s0.44-0.45,0.77-0.56c0.2-0.07,0.44-0.11,0.7-0.12l-0.31,5.29c0.06,0.01,0.14,0.03,0.24,0.04s0.19,0.02,0.28,0.02
		c0.74,0.04,1.38-0.06,1.92-0.31c0.54-0.25,0.96-0.63,1.27-1.15C318.66,176.22,318.83,175.58,318.88,174.82z M317.26,175.51
		c-0.15,0.22-0.35,0.39-0.6,0.5c-0.2,0.09-0.44,0.12-0.7,0.13l0.19-3.18c0.17,0.05,0.34,0.1,0.48,0.17c0.32,0.15,0.55,0.36,0.7,0.63
		c0.15,0.26,0.21,0.59,0.19,0.97C317.5,175.02,317.41,175.29,317.26,175.51z"/>
	<path class="st1" d="M313.96,186.12c0.1,0.02,0.19,0.03,0.28,0.04c0.73,0.09,1.38,0.02,1.93-0.19c0.55-0.22,1-0.57,1.33-1.07
		c0.33-0.5,0.55-1.13,0.64-1.88c0.09-0.75,0.02-1.43-0.21-2.02s-0.59-1.07-1.08-1.43c-0.5-0.37-1.11-0.59-1.85-0.68
		c-0.73-0.09-1.37-0.01-1.94,0.23s-1.03,0.62-1.4,1.14c-0.36,0.52-0.59,1.15-0.68,1.9c-0.1,0.82-0.02,1.55,0.23,2.18
		c0.25,0.63,0.68,1.16,1.29,1.59l0.72-1.62c-0.3-0.24-0.52-0.52-0.65-0.84s-0.17-0.7-0.12-1.12c0.04-0.38,0.17-0.69,0.37-0.94
		c0.2-0.25,0.47-0.42,0.8-0.52c0.21-0.06,0.45-0.08,0.7-0.08l-0.62,5.27C313.78,186.09,313.86,186.1,313.96,186.12z M316.66,181.85
		c0.13,0.27,0.18,0.6,0.13,0.98c-0.04,0.31-0.14,0.57-0.3,0.78s-0.38,0.37-0.63,0.46c-0.2,0.08-0.44,0.1-0.7,0.09l0.37-3.17
		c0.17,0.06,0.33,0.12,0.47,0.2C316.31,181.35,316.53,181.58,316.66,181.85z"/>
	<polygon class="st1" points="318.92,188.56 310.47,187.16 310.12,189.28 318.57,190.67 318.1,193.47 320.01,193.79 321.29,186.09 
		319.38,185.78 	"/>
	<path class="st1" d="M309.11,194.48l4.1,0.92c0.28,0.06,0.51,0.17,0.69,0.33c0.18,0.15,0.3,0.34,0.37,0.58
		c0.07,0.23,0.07,0.48,0.01,0.74c-0.09,0.4-0.27,0.66-0.54,0.78c-0.27,0.12-0.63,0.13-1.08,0.02l-4.1-0.92l-0.43,1.9l4.38,0.99
		c0.56,0.13,1.05,0.15,1.47,0.07c0.42-0.08,0.77-0.27,1.04-0.56c0.27-0.3,0.47-0.71,0.59-1.24c0.12-0.53,0.09-1-0.08-1.42
		c-0.14-0.35-0.38-0.64-0.68-0.89l5.68,1.28l0.43-1.9l-11.41-2.57L309.11,194.48z"/>
	<path class="st1" d="M312.94,201.64c-0.43-0.44-1-0.76-1.71-0.97c-0.7-0.2-1.35-0.23-1.95-0.09s-1.12,0.44-1.56,0.9
		c-0.44,0.45-0.77,1.04-0.98,1.76c-0.23,0.8-0.27,1.53-0.12,2.19c0.15,0.66,0.48,1.25,1.01,1.78l0.97-1.48
		c-0.26-0.28-0.43-0.59-0.5-0.93c-0.07-0.34-0.05-0.71,0.07-1.13c0.11-0.37,0.28-0.65,0.52-0.87c0.24-0.21,0.53-0.34,0.87-0.38
		c0.21-0.03,0.46-0.01,0.71,0.03l-1.47,5.09c0.05,0.03,0.13,0.06,0.22,0.09c0.09,0.03,0.19,0.06,0.27,0.09
		c0.71,0.21,1.36,0.25,1.94,0.12c0.58-0.12,1.08-0.4,1.49-0.84c0.41-0.44,0.72-1.02,0.93-1.75c0.21-0.73,0.25-1.41,0.12-2.03
		S313.37,202.08,312.94,201.64z M312.35,204.85c-0.09,0.3-0.23,0.54-0.43,0.72c-0.2,0.18-0.43,0.3-0.7,0.35
		c-0.21,0.04-0.45,0.03-0.71-0.03l0.88-3.06c0.16,0.08,0.31,0.17,0.43,0.27c0.27,0.22,0.46,0.47,0.54,0.77
		S312.45,204.49,312.35,204.85z"/>
	<path class="st1" d="M305,209.38l3.94,1.46c0.28,0.1,0.51,0.24,0.67,0.41c0.17,0.17,0.27,0.36,0.3,0.56
		c0.04,0.21,0.01,0.42-0.07,0.65c-0.12,0.34-0.33,0.54-0.6,0.61c-0.28,0.07-0.63,0.02-1.08-0.14l-3.94-1.46l-0.67,1.81l3.94,1.46
		c0.28,0.1,0.5,0.24,0.67,0.41c0.17,0.17,0.27,0.36,0.3,0.56s0.01,0.42-0.07,0.65c-0.12,0.34-0.33,0.54-0.6,0.61
		c-0.28,0.07-0.63,0.02-1.08-0.14l-3.94-1.46l-0.68,1.83l4.14,1.53c0.53,0.19,1,0.29,1.42,0.28c0.42-0.01,0.79-0.13,1.09-0.36
		c0.3-0.23,0.54-0.58,0.72-1.06c0.16-0.44,0.21-0.87,0.15-1.28c-0.06-0.41-0.23-0.8-0.51-1.17c0.42-0.01,0.78-0.13,1.08-0.37
		c0.3-0.24,0.54-0.6,0.72-1.08c0.16-0.43,0.2-0.84,0.13-1.22c-0.07-0.38-0.25-0.73-0.54-1.05l0.96,0.35l0.65-1.76l-6.47-2.39
		L305,209.38z"/>
	<path class="st1" d="M304.85,219.44c-0.66-0.3-1.3-0.43-1.92-0.37s-1.17,0.28-1.68,0.66c-0.51,0.38-0.91,0.92-1.23,1.6
		c-0.34,0.76-0.49,1.47-0.44,2.15c0.05,0.68,0.29,1.31,0.74,1.91l1.18-1.32c-0.22-0.32-0.34-0.65-0.36-1
		c-0.02-0.35,0.05-0.71,0.23-1.11c0.16-0.35,0.37-0.61,0.64-0.78c0.27-0.17,0.57-0.26,0.92-0.25c0.22,0.01,0.45,0.06,0.7,0.14
		l-2.2,4.82c0.05,0.03,0.12,0.07,0.21,0.12s0.17,0.09,0.26,0.12c0.67,0.31,1.31,0.44,1.9,0.41s1.13-0.24,1.6-0.61
		c0.47-0.37,0.87-0.9,1.18-1.6c0.32-0.69,0.46-1.35,0.42-1.99s-0.23-1.2-0.59-1.7C306.04,220.15,305.53,219.74,304.85,219.44z
		 M305.35,223.74c-0.13,0.28-0.3,0.5-0.53,0.65c-0.22,0.15-0.47,0.23-0.74,0.25c-0.22,0.01-0.45-0.04-0.7-0.13l1.32-2.9
		c0.15,0.11,0.28,0.21,0.39,0.33c0.24,0.26,0.38,0.54,0.43,0.84C305.56,223.07,305.51,223.39,305.35,223.74z"/>
	<path class="st1" d="M52.13,175.56c-0.46-0.76-1.04-1.37-1.75-1.84c-0.71-0.47-1.5-0.79-2.38-0.95s-1.79-0.17-2.74-0.03l0.68,6.17
		l2.04-0.22l-0.4-3.6c0.39,0.07,0.76,0.18,1.11,0.35c0.34,0.17,0.66,0.39,0.94,0.66c0.28,0.27,0.52,0.6,0.7,0.98
		c0.18,0.38,0.3,0.83,0.36,1.35c0.09,0.78-0.02,1.49-0.31,2.14c-0.29,0.65-0.74,1.2-1.35,1.62c-0.61,0.43-1.35,0.69-2.2,0.79
		c-0.87,0.1-1.64,0-2.31-0.3s-1.21-0.73-1.62-1.32s-0.65-1.25-0.74-2c-0.09-0.8,0.01-1.49,0.29-2.09c0.28-0.59,0.68-1.07,1.19-1.44
		l-1.51-2.04c-0.54,0.45-1,0.96-1.36,1.54c-0.37,0.58-0.63,1.22-0.79,1.93s-0.2,1.5-0.1,2.36c0.11,0.97,0.36,1.84,0.76,2.63
		c0.4,0.79,0.92,1.46,1.56,2c0.64,0.54,1.38,0.94,2.22,1.19s1.75,0.32,2.71,0.22c0.97-0.11,1.84-0.37,2.61-0.79
		c0.77-0.42,1.42-0.96,1.94-1.63c0.52-0.67,0.89-1.43,1.12-2.28s0.29-1.76,0.19-2.73C52.87,177.21,52.59,176.32,52.13,175.56z"/>
	<path class="st1" d="M48.2,162.2c-0.12-0.01-0.23-0.01-0.34-0.01c-0.89-0.01-1.65,0.15-2.28,0.48c-0.63,0.33-1.12,0.82-1.45,1.45
		c-0.34,0.64-0.51,1.42-0.52,2.33c-0.01,0.91,0.16,1.71,0.51,2.38c0.35,0.68,0.84,1.2,1.48,1.57c0.64,0.37,1.4,0.56,2.29,0.57
		c0.88,0.01,1.64-0.17,2.28-0.53c0.65-0.36,1.15-0.87,1.52-1.54s0.55-1.45,0.56-2.35c0.01-1-0.18-1.85-0.56-2.57
		c-0.38-0.72-0.96-1.3-1.74-1.74l-0.65,2.03c0.39,0.24,0.69,0.55,0.88,0.92c0.19,0.37,0.29,0.81,0.28,1.33
		c0,0.46-0.11,0.85-0.32,1.17s-0.5,0.56-0.89,0.72c-0.24,0.1-0.52,0.15-0.83,0.19l0.06-6.36C48.42,162.22,48.32,162.21,48.2,162.2z
		 M45.53,167.65c-0.2-0.31-0.29-0.69-0.29-1.15c0-0.37,0.09-0.69,0.26-0.97c0.17-0.27,0.4-0.48,0.69-0.63
		c0.23-0.12,0.52-0.18,0.83-0.2l-0.03,3.83c-0.21-0.04-0.41-0.1-0.58-0.17C46.02,168.19,45.73,167.96,45.53,167.65z"/>
	<polygon class="st1" points="43.95,161.04 45.9,161.2 46.02,159.79 52.32,160.32 52.51,158.08 46.21,157.55 46.33,156.11 
		44.38,155.95 44.26,157.38 41.39,157.14 41.2,159.38 44.07,159.62 	"/>
	<polygon class="st1" points="42.12,147.93 44.39,148.4 44.23,145.28 54.13,147.35 54.65,144.9 42.1,142.28 	"/>
	<path class="st1" d="M55.28,132.57c-0.8-0.69-1.84-1.24-3.11-1.64c-1.27-0.4-2.43-0.55-3.49-0.44c-1.05,0.11-1.95,0.44-2.68,1
		c-0.74,0.56-1.26,1.33-1.57,2.32c-0.3,0.95-0.31,1.87-0.03,2.76c0.28,0.89,0.82,1.68,1.62,2.38c0.8,0.7,1.83,1.25,3.1,1.65
		c1.27,0.4,2.43,0.54,3.49,0.43c1.06-0.11,1.95-0.46,2.69-1.02s1.26-1.32,1.56-2.27c0.31-0.98,0.32-1.92,0.04-2.8
		C56.62,134.05,56.08,133.26,55.28,132.57z M54.72,137.05c-0.12,0.37-0.32,0.67-0.61,0.9c-0.29,0.24-0.65,0.41-1.08,0.51
		c-0.43,0.1-0.91,0.14-1.44,0.09c-0.53-0.04-1.1-0.16-1.71-0.35c-0.61-0.19-1.14-0.42-1.6-0.69c-0.46-0.27-0.84-0.57-1.13-0.9
		c-0.29-0.33-0.49-0.68-0.59-1.04c-0.1-0.36-0.09-0.72,0.02-1.09c0.12-0.38,0.32-0.68,0.61-0.92c0.29-0.24,0.65-0.41,1.08-0.51
		c0.43-0.1,0.91-0.13,1.44-0.09c0.54,0.04,1.11,0.16,1.71,0.35c0.61,0.19,1.14,0.42,1.6,0.69s0.84,0.57,1.13,0.9
		s0.49,0.68,0.59,1.03C54.85,136.31,54.84,136.67,54.72,137.05z"/>
	<polygon class="st1" points="51.47,116.94 59,130.59 60,128.45 52.46,114.8 	"/>
	<path class="st1" d="M63.19,118.56c-0.32-0.45-0.74-0.8-1.28-1.05c-0.53-0.25-1.08-0.35-1.63-0.31c-0.56,0.04-1.07,0.23-1.53,0.55
		s-0.82,0.76-1.09,1.33c-0.26,0.55-0.36,1.12-0.32,1.68c0.05,0.57,0.23,1.08,0.55,1.54c0.32,0.46,0.75,0.82,1.28,1.07
		c0.53,0.25,1.08,0.35,1.63,0.29c0.55-0.05,1.07-0.24,1.54-0.57c0.47-0.32,0.83-0.76,1.09-1.32c0.26-0.57,0.37-1.13,0.31-1.69
		C63.69,119.52,63.5,119.01,63.19,118.56z M61.77,120.99c-0.11,0.24-0.26,0.42-0.45,0.54c-0.19,0.12-0.4,0.19-0.64,0.2
		s-0.46-0.04-0.68-0.14c-0.23-0.11-0.41-0.25-0.55-0.44c-0.14-0.18-0.22-0.39-0.25-0.61c-0.03-0.22,0.01-0.46,0.12-0.7
		c0.11-0.24,0.26-0.42,0.45-0.54c0.19-0.12,0.4-0.18,0.63-0.19s0.46,0.04,0.69,0.14c0.22,0.1,0.4,0.25,0.54,0.43
		c0.14,0.19,0.23,0.39,0.26,0.61C61.92,120.53,61.88,120.75,61.77,120.99z"/>
	<path class="st1" d="M48.26,126.83c0.32,0.46,0.75,0.82,1.29,1.07c0.52,0.24,1.06,0.34,1.62,0.29s1.07-0.24,1.54-0.56
		c0.47-0.32,0.83-0.76,1.09-1.32c0.26-0.57,0.37-1.13,0.31-1.69c-0.05-0.56-0.24-1.07-0.57-1.53c-0.32-0.46-0.75-0.8-1.27-1.05
		c-0.54-0.25-1.09-0.36-1.64-0.31s-1.06,0.23-1.52,0.55c-0.46,0.32-0.82,0.77-1.09,1.33c-0.26,0.55-0.36,1.11-0.32,1.68
		C47.76,125.86,47.94,126.38,48.26,126.83z M49.68,124.39c0.11-0.24,0.26-0.42,0.46-0.53c0.19-0.12,0.41-0.18,0.63-0.19
		c0.23-0.01,0.46,0.04,0.69,0.14c0.22,0.1,0.4,0.25,0.54,0.43s0.23,0.39,0.26,0.61c0.03,0.22-0.01,0.45-0.12,0.69
		s-0.26,0.42-0.45,0.54c-0.19,0.12-0.4,0.19-0.64,0.2c-0.24,0.01-0.46-0.04-0.68-0.14c-0.23-0.11-0.41-0.25-0.55-0.44
		c-0.14-0.18-0.23-0.39-0.26-0.62C49.53,124.86,49.57,124.63,49.68,124.39z"/>
	<path class="st1" d="M69.65,103.8c-0.71-0.5-1.44-0.77-2.2-0.81c-0.76-0.04-1.49,0.11-2.18,0.47c-0.69,0.36-1.29,0.89-1.79,1.61
		s-0.81,1.46-0.91,2.23s-0.01,1.51,0.29,2.21c0.3,0.7,0.8,1.3,1.51,1.8c0.7,0.49,1.43,0.76,2.19,0.81c0.77,0.05,1.5-0.11,2.19-0.46
		c0.69-0.36,1.29-0.89,1.79-1.61c0.5-0.72,0.81-1.46,0.91-2.23c0.1-0.77,0-1.51-0.3-2.22C70.84,104.89,70.34,104.29,69.65,103.8z
		 M68.93,108.91c-0.24,0.33-0.53,0.58-0.89,0.74c-0.36,0.16-0.74,0.22-1.14,0.18s-0.8-0.2-1.18-0.47c-0.38-0.27-0.66-0.59-0.84-0.96
		c-0.18-0.37-0.25-0.75-0.22-1.13c0.04-0.38,0.17-0.74,0.41-1.08c0.24-0.33,0.53-0.58,0.88-0.75c0.35-0.16,0.73-0.22,1.14-0.18
		c0.41,0.04,0.8,0.2,1.19,0.47c0.38,0.27,0.66,0.59,0.84,0.95c0.18,0.37,0.25,0.74,0.21,1.13C69.3,108.22,69.16,108.58,68.93,108.91
		z"/>
	<path class="st1" d="M70.78,99.08l1.25-1.51l-1.51-1.25l-1.25,1.51l-1.95-1.62c-0.24-0.2-0.42-0.39-0.53-0.58
		c-0.11-0.19-0.16-0.36-0.15-0.51c0.01-0.15,0.08-0.3,0.19-0.44c0.09-0.11,0.21-0.2,0.36-0.28c0.15-0.07,0.33-0.1,0.54-0.08
		l-0.71-1.88c-0.16,0.01-0.35,0.04-0.57,0.1c-0.22,0.06-0.45,0.16-0.69,0.31c-0.24,0.15-0.48,0.36-0.71,0.65
		c-0.4,0.48-0.64,0.96-0.74,1.44c-0.1,0.48-0.05,0.94,0.15,1.39s0.54,0.87,1.03,1.27l2.35,1.95l-0.62,0.75l1.51,1.25l0.62-0.75
		l4.86,4.03l1.44-1.73L70.78,99.08z"/>
	<path class="st1" d="M69.62,92.77l2.24,2.08l-0.66,0.71l1.44,1.34l0.66-0.71l4.62,4.3l1.53-1.65l-4.62-4.3l1.34-1.44l-1.44-1.34
		l-1.34,1.44l-1.86-1.73c-0.23-0.21-0.39-0.41-0.49-0.61c-0.1-0.19-0.14-0.36-0.12-0.52c0.02-0.15,0.09-0.3,0.21-0.43
		c0.1-0.11,0.22-0.19,0.37-0.26c0.15-0.06,0.33-0.08,0.55-0.04l-0.6-1.91c-0.16,0-0.35,0.02-0.58,0.07
		c-0.22,0.05-0.46,0.13-0.7,0.27s-0.5,0.33-0.75,0.61c-0.42,0.46-0.7,0.92-0.82,1.4s-0.1,0.94,0.07,1.39
		C68.83,91.89,69.15,92.34,69.62,92.77z"/>
	<path class="st1" d="M88.97,90c0.72-0.59,1.28-1.21,1.67-1.85c0.39-0.64,0.57-1.29,0.54-1.95c-0.03-0.66-0.31-1.3-0.83-1.94
		c-0.39-0.48-0.83-0.82-1.31-1c-0.48-0.18-0.98-0.24-1.5-0.18c-0.42,0.05-0.84,0.18-1.25,0.35c0.3-0.54,0.45-1.09,0.44-1.63
		c-0.01-0.58-0.22-1.12-0.62-1.61c-0.46-0.56-0.97-0.9-1.55-1.04s-1.18-0.09-1.82,0.13c-0.64,0.22-1.29,0.6-1.94,1.13l-3.25,2.65
		l7.97,9.76L88.97,90z M87.45,85.17c0.23,0.1,0.44,0.27,0.64,0.51c0.27,0.33,0.42,0.67,0.44,1.01s-0.06,0.67-0.25,0.99
		c-0.19,0.32-0.45,0.61-0.79,0.89l-1.28,1.05l-2.3-2.82l1.28-1.05c0.25-0.21,0.5-0.37,0.76-0.49c0.26-0.12,0.51-0.19,0.77-0.21
		S87.22,85.07,87.45,85.17z M81.91,82.15c0.44-0.36,0.86-0.54,1.28-0.56c0.41-0.01,0.77,0.17,1.08,0.54c0.2,0.24,0.31,0.5,0.34,0.77
		s-0.03,0.54-0.17,0.81c-0.14,0.27-0.35,0.52-0.64,0.75l-1.07,0.88l-1.89-2.31L81.91,82.15z"/>
	<path class="st1" d="M92.96,84.53c0.66,0.34,1.37,0.47,2.13,0.4c0.76-0.07,1.52-0.35,2.27-0.84c0.83-0.55,1.44-1.18,1.82-1.9
		c0.38-0.72,0.54-1.52,0.47-2.41l-2.05,0.59c0.02,0.46-0.07,0.88-0.27,1.24c-0.2,0.37-0.51,0.69-0.94,0.97
		c-0.38,0.25-0.76,0.38-1.15,0.39c-0.38,0.01-0.75-0.1-1.09-0.34c-0.22-0.14-0.42-0.35-0.62-0.58l5.32-3.49
		c-0.03-0.07-0.08-0.15-0.14-0.26c-0.06-0.1-0.12-0.2-0.18-0.29c-0.49-0.74-1.04-1.28-1.67-1.63c-0.63-0.34-1.3-0.47-2.02-0.4
		c-0.72,0.08-1.46,0.37-2.22,0.87c-0.76,0.5-1.33,1.08-1.69,1.75c-0.37,0.67-0.53,1.37-0.48,2.1c0.05,0.74,0.31,1.48,0.8,2.22
		C91.73,83.66,92.3,84.2,92.96,84.53z M92.7,79.12c0.15-0.33,0.41-0.63,0.79-0.88c0.31-0.2,0.63-0.31,0.95-0.32
		c0.32-0.01,0.63,0.06,0.91,0.22c0.23,0.13,0.44,0.33,0.63,0.58l-3.2,2.1c-0.08-0.2-0.15-0.4-0.18-0.58
		C92.52,79.83,92.55,79.46,92.7,79.12z"/>
	
		<rect x="98.68" y="67.15" transform="matrix(0.8731 -0.4875 0.4875 0.8731 -23.4876 58.0917)" class="st1" width="2.34" height="14.04"/>
	<polygon class="st1" points="107.91,82.24 110.07,81.21 109.7,67.84 107.51,68.88 107.86,74.39 103.78,70.64 101.44,71.76 
		107.74,77.01 	"/>
	<path class="st1" d="M116.17,74.25l-1.73-4.73c-0.12-0.33-0.16-0.63-0.12-0.91c0.04-0.28,0.15-0.53,0.34-0.75s0.44-0.38,0.74-0.49
		c0.45-0.17,0.83-0.15,1.13,0.05s0.55,0.55,0.74,1.07l1.73,4.73l2.26-0.83l-1.82-4.97c-0.34-0.94-0.83-1.58-1.48-1.94
		c-0.64-0.36-1.43-0.37-2.35-0.03c-0.55,0.2-0.98,0.49-1.29,0.86c-0.3,0.37-0.49,0.82-0.57,1.35l-0.43-1.18l-2.2,0.8l2.84,7.78
		L116.17,74.25z"/>
	<path class="st1" d="M211.13,60.8c-0.28,0.08-0.54,0.23-0.8,0.41l0.31-0.82l-1.78-0.68l-2.46,6.45l1.78,0.68l1.3-3.42l0,0
		c0.12-0.31,0.26-0.56,0.42-0.75c0.16-0.19,0.35-0.31,0.55-0.38c0.21-0.06,0.42-0.05,0.64,0.04c0.19,0.07,0.33,0.16,0.43,0.27
		c0.1,0.11,0.19,0.24,0.27,0.4l1.42-1.23c-0.07-0.22-0.19-0.41-0.37-0.57c-0.18-0.16-0.38-0.29-0.62-0.38
		C211.91,60.69,211.54,60.68,211.13,60.8z"/>
	
		<rect x="210.64" y="64.55" transform="matrix(0.3965 -0.918 0.918 0.3965 69.0761 236.0705)" class="st1" width="6.9" height="1.89"/>
	<path class="st1" d="M216.09,60.89c0.29,0.13,0.58,0.14,0.88,0.04s0.5-0.3,0.62-0.58c0.13-0.29,0.13-0.58,0-0.86
		c-0.12-0.28-0.33-0.48-0.63-0.61c-0.29-0.13-0.59-0.14-0.88-0.04c-0.29,0.1-0.5,0.29-0.63,0.59c-0.12,0.29-0.12,0.57,0.01,0.85
		C215.59,60.56,215.8,60.76,216.09,60.89z"/>
	<path class="st1" d="M216.82,74.48c0.59,0.3,1.19,0.46,1.81,0.48c0.62,0.02,1.2-0.14,1.74-0.48c0.55-0.34,1.01-0.89,1.39-1.65
		l3.03-6.03l-1.68-0.84l-0.5,1c-0.05-0.41-0.15-0.79-0.35-1.13c-0.27-0.45-0.67-0.8-1.19-1.07c-0.51-0.25-1.05-0.38-1.63-0.36
		s-1.12,0.18-1.63,0.51s-0.94,0.84-1.29,1.53c-0.34,0.68-0.49,1.32-0.45,1.93s0.23,1.15,0.56,1.62c0.33,0.47,0.76,0.83,1.27,1.09
		c0.52,0.26,1.04,0.37,1.56,0.32c0.38-0.03,0.74-0.15,1.09-0.35l-0.47,0.94c-0.21,0.42-0.46,0.73-0.76,0.93
		c-0.3,0.2-0.6,0.3-0.93,0.31c-0.32,0.01-0.63-0.06-0.91-0.21c-0.31-0.16-0.56-0.35-0.74-0.57s-0.29-0.47-0.32-0.72
		c-0.04-0.26,0.01-0.53,0.13-0.8l-1.7-0.85c-0.23,0.55-0.33,1.1-0.28,1.65c0.05,0.54,0.25,1.05,0.62,1.52
		C215.56,73.7,216.1,74.12,216.82,74.48z M220.88,69.81c-0.28,0.18-0.58,0.27-0.89,0.27c-0.31,0.01-0.6-0.06-0.85-0.19
		c-0.29-0.15-0.54-0.35-0.73-0.62c-0.19-0.26-0.3-0.56-0.32-0.89s0.06-0.68,0.24-1.05c0.19-0.38,0.42-0.65,0.7-0.83
		c0.28-0.18,0.58-0.27,0.91-0.27s0.64,0.07,0.93,0.22c0.2,0.1,0.37,0.23,0.52,0.4c0.15,0.17,0.27,0.37,0.35,0.59
		c0.08,0.22,0.12,0.46,0.1,0.72c-0.02,0.26-0.1,0.53-0.24,0.82l0,0C221.4,69.36,221.16,69.63,220.88,69.81z"/>
	<path class="st1" d="M226.97,76.07l1.67,1l2.31-3.85c0.29-0.49,0.47-0.95,0.53-1.37s-0.01-0.82-0.21-1.17
		c-0.2-0.35-0.53-0.67-0.99-0.94c-0.46-0.28-0.92-0.4-1.37-0.37c-0.38,0.03-0.73,0.16-1.06,0.37l3-4.99l-1.67-1l-6.02,10.03l1.67,1
		l2.16-3.6c0.15-0.25,0.32-0.43,0.53-0.56c0.2-0.12,0.42-0.18,0.66-0.17c0.24,0.01,0.47,0.08,0.71,0.22
		c0.35,0.21,0.54,0.46,0.57,0.76c0.03,0.29-0.08,0.64-0.32,1.04L226.97,76.07z"/>
	<polygon class="st1" points="235.59,70.56 234.25,72.54 233.27,71.88 232.35,73.23 233.33,73.9 230.37,78.25 231.92,79.31 
		234.88,74.95 235.87,75.62 236.79,74.27 235.8,73.6 237.14,71.61 	"/>
	<path class="st1" d="M245.38,82c0.01-0.42-0.12-0.84-0.36-1.26c-0.25-0.42-0.6-0.82-1.05-1.2c-0.49-0.41-1-0.71-1.51-0.9
		s-0.97-0.33-1.37-0.42l-0.28,1.48c0.12,0.01,0.3,0.04,0.52,0.1c0.23,0.06,0.47,0.15,0.74,0.28c0.27,0.13,0.53,0.3,0.77,0.5
		c0.16,0.13,0.3,0.27,0.4,0.41c0.11,0.14,0.18,0.28,0.22,0.43c0.04,0.15,0.04,0.29,0,0.44c-0.04,0.14-0.12,0.29-0.24,0.43
		l-0.47,0.57c0,0,0,0,0,0c-0.09-0.25-0.24-0.51-0.44-0.79c-0.2-0.28-0.47-0.56-0.81-0.84c-0.66-0.55-1.3-0.82-1.91-0.82
		c-0.61,0-1.13,0.26-1.55,0.78c-0.3,0.36-0.46,0.74-0.5,1.13c-0.03,0.39,0.04,0.77,0.22,1.14s0.43,0.69,0.76,0.96
		c0.32,0.27,0.68,0.46,1.08,0.59s0.78,0.16,1.16,0.08c0.09-0.02,0.16-0.07,0.25-0.1l-0.62,0.76l1.45,1.19l3.11-3.78
		C245.23,82.81,245.38,82.42,245.38,82z M241.42,84.13c-0.27,0.09-0.53,0.1-0.79,0.05c-0.27-0.06-0.51-0.18-0.75-0.37
		c-0.16-0.13-0.29-0.29-0.37-0.45c-0.09-0.17-0.12-0.34-0.11-0.52c0.01-0.18,0.08-0.34,0.21-0.5c0.13-0.15,0.27-0.25,0.42-0.3
		c0.16-0.05,0.33-0.04,0.52,0.02c0.19,0.06,0.41,0.19,0.64,0.38c0.29,0.24,0.53,0.5,0.72,0.79c0.08,0.13,0.15,0.26,0.22,0.39l0,0
		l0,0C241.92,83.88,241.68,84.05,241.42,84.13z"/>
	<path class="st1" d="M244.59,89.49l3.57-3.87l1.2,1.11l1.11-1.2l-1.2-1.11l1.43-1.56c0.18-0.19,0.34-0.33,0.5-0.41
		c0.16-0.08,0.3-0.12,0.43-0.1s0.25,0.08,0.36,0.18c0.09,0.08,0.16,0.18,0.21,0.31s0.07,0.28,0.04,0.45l1.59-0.51
		c0-0.13-0.02-0.29-0.06-0.48c-0.04-0.19-0.12-0.38-0.23-0.58c-0.11-0.2-0.28-0.41-0.51-0.62c-0.38-0.35-0.77-0.58-1.17-0.68
		c-0.4-0.1-0.78-0.08-1.16,0.06c-0.38,0.14-0.74,0.41-1.1,0.8l-1.73,1.88l-0.6-0.55l-1.11,1.2l0.6,0.55l-3.56,3.87L244.59,89.49z"/>
	<polygon class="st1" points="251.8,89.15 252.65,90 253.8,88.84 252.95,87.99 254.65,86.29 253.32,84.97 251.63,86.67 
		250.79,85.83 249.63,86.99 250.47,87.83 246.75,91.55 248.08,92.88 	"/>
	<path class="st1" d="M251.61,96.86c0.55,0.62,1.15,1.04,1.79,1.27c0.64,0.23,1.32,0.26,2.04,0.09l-0.74-1.61
		c-0.38,0.07-0.73,0.05-1.06-0.07c-0.33-0.12-0.63-0.33-0.92-0.66c-0.25-0.28-0.41-0.58-0.46-0.9s-0.01-0.63,0.14-0.94
		c0.09-0.2,0.24-0.39,0.4-0.58l3.54,3.95c0.05-0.03,0.12-0.08,0.19-0.14s0.15-0.12,0.22-0.18c0.55-0.49,0.93-1.02,1.13-1.58
		c0.2-0.56,0.23-1.13,0.08-1.71s-0.48-1.16-0.99-1.72c-0.51-0.57-1.06-0.96-1.65-1.18c-0.59-0.22-1.19-0.26-1.79-0.13
		c-0.6,0.13-1.18,0.44-1.73,0.94c-0.54,0.49-0.91,1.02-1.11,1.61c-0.19,0.58-0.22,1.19-0.07,1.8
		C250.79,95.72,251.11,96.3,251.61,96.86z M254.19,92.47c0.33-0.12,0.64-0.14,0.94-0.06c0.29,0.08,0.57,0.26,0.82,0.54
		c0.21,0.23,0.34,0.48,0.38,0.74c0.05,0.26,0.03,0.52-0.07,0.78c-0.08,0.21-0.22,0.4-0.4,0.59l-2.13-2.37
		C253.89,92.6,254.04,92.52,254.19,92.47z"/>
	<path class="st1" d="M259,99.71L259,99.71c0.26-0.2,0.51-0.35,0.74-0.43c0.24-0.08,0.46-0.09,0.67-0.04
		c0.21,0.05,0.39,0.17,0.53,0.36c0.12,0.16,0.2,0.31,0.24,0.45c0.03,0.15,0.04,0.31,0.03,0.48l1.84-0.33
		c0.05-0.22,0.05-0.45-0.02-0.68c-0.07-0.23-0.18-0.45-0.34-0.64c-0.22-0.28-0.54-0.48-0.95-0.59c-0.28-0.07-0.59-0.08-0.89-0.06
		l0.69-0.55l-1.18-1.49l-5.41,4.28l1.18,1.49L259,99.71z"/>
	<path class="st1" d="M263.12,112.25c0.31,0.49,0.72,0.87,1.23,1.15s1.08,0.4,1.71,0.37c0.63-0.03,1.28-0.26,1.93-0.68
		c0.67-0.42,1.15-0.91,1.44-1.47c0.29-0.55,0.42-1.12,0.39-1.7c-0.03-0.58-0.21-1.11-0.52-1.6c-0.32-0.5-0.72-0.85-1.2-1.06
		c-0.38-0.16-0.8-0.2-1.24-0.18l1-0.64l-1.04-1.65l-8.61,5.46l1.04,1.65l3.75-2.38c-0.2,0.38-0.31,0.77-0.32,1.17
		C262.65,111.24,262.8,111.75,263.12,112.25z M265.99,107.95c0.34-0.01,0.64,0.07,0.91,0.22c0.27,0.15,0.48,0.35,0.64,0.6
		c0.18,0.29,0.29,0.59,0.31,0.91c0.03,0.32-0.04,0.63-0.19,0.93c-0.15,0.3-0.4,0.56-0.75,0.78c-0.35,0.22-0.69,0.33-1.02,0.35
		c-0.34,0.01-0.64-0.06-0.92-0.22c-0.28-0.16-0.51-0.38-0.69-0.67c-0.16-0.24-0.25-0.52-0.27-0.83c-0.03-0.31,0.04-0.62,0.19-0.92
		c0.15-0.3,0.4-0.57,0.76-0.79l0.01,0C265.3,108.07,265.65,107.96,265.99,107.95z"/>
	<path class="st1" d="M267.18,118.71c0.31,0.27,0.66,0.44,1.04,0.51c0.09,0.02,0.18,0,0.26,0l-0.87,0.46l0.89,1.65l4.31-2.31
		c0.41-0.22,0.7-0.52,0.87-0.91c0.16-0.38,0.21-0.82,0.14-1.3c-0.07-0.49-0.24-0.99-0.52-1.51c-0.3-0.56-0.65-1.03-1.05-1.41
		c-0.4-0.38-0.77-0.68-1.11-0.91l-0.82,1.26c0.11,0.05,0.26,0.15,0.44,0.29s0.38,0.32,0.58,0.54c0.2,0.22,0.37,0.47,0.52,0.76
		c0.1,0.18,0.17,0.36,0.22,0.53c0.04,0.17,0.06,0.33,0.04,0.48c-0.02,0.15-0.08,0.29-0.17,0.4c-0.09,0.12-0.22,0.22-0.39,0.31
		l-0.65,0.35c0,0,0,0,0,0c0.01-0.26-0.03-0.57-0.11-0.9c-0.08-0.34-0.22-0.7-0.43-1.09c-0.41-0.76-0.89-1.25-1.46-1.48
		c-0.57-0.23-1.14-0.19-1.73,0.13c-0.41,0.22-0.71,0.51-0.89,0.86c-0.18,0.35-0.26,0.73-0.23,1.14c0.03,0.41,0.14,0.8,0.34,1.18
		C266.61,118.12,266.87,118.44,267.18,118.71z M267.83,116.62c0.08-0.16,0.21-0.28,0.39-0.38c0.18-0.09,0.34-0.13,0.51-0.12
		c0.16,0.02,0.32,0.09,0.48,0.22c0.16,0.13,0.3,0.33,0.45,0.59c0.17,0.33,0.3,0.66,0.37,1c0.03,0.15,0.04,0.29,0.05,0.44l0,0
		c-0.29,0.15-0.57,0.22-0.85,0.2c-0.28-0.02-0.53-0.11-0.75-0.26c-0.22-0.15-0.41-0.36-0.55-0.63c-0.1-0.18-0.16-0.37-0.17-0.56
		C267.71,116.95,267.75,116.77,267.83,116.62z"/>
	<polygon class="st1" points="278.19,125.88 277.35,124.03 272.75,124.25 275.93,120.91 275.04,118.94 270.57,124.11 266.22,124.17 
		267.04,125.99 	"/>
	<path class="st1" d="M282.47,127.42c0.11-0.29,0.1-0.58-0.01-0.87s-0.31-0.52-0.59-0.66c-0.28-0.14-0.56-0.15-0.86-0.03
		c-0.29,0.11-0.49,0.32-0.6,0.61c-0.11,0.29-0.11,0.58,0.01,0.88s0.32,0.51,0.59,0.65c0.28,0.13,0.56,0.14,0.85,0.03
		C282.15,127.91,282.36,127.71,282.47,127.42z"/>
	
		<rect x="272.28" y="128.23" transform="matrix(0.9306 -0.366 0.366 0.9306 -28.1474 109.8864)" class="st1" width="6.9" height="1.89"/>
	<path class="st1" d="M278.97,136l-3.99,1.32l0.63,1.91l4.19-1.39c0.79-0.26,1.34-0.65,1.66-1.18s0.34-1.18,0.09-1.96
		c-0.15-0.47-0.38-0.83-0.69-1.09c-0.3-0.26-0.67-0.43-1.11-0.51l1-0.33l-0.61-1.85l-6.55,2.17l0.61,1.85l3.99-1.32
		c0.28-0.09,0.53-0.12,0.76-0.08c0.23,0.04,0.44,0.14,0.61,0.3c0.17,0.16,0.3,0.37,0.39,0.63c0.13,0.38,0.1,0.69-0.07,0.94
		C279.71,135.66,279.4,135.86,278.97,136z"/>
	<path class="st1" d="M275.79,147.73c0.61,0.19,1.33,0.19,2.16-0.02l6.55-1.63l-0.45-1.82l-1.09,0.27c0.28-0.3,0.51-0.63,0.63-1
		c0.16-0.5,0.18-1.03,0.04-1.59c-0.14-0.55-0.4-1.04-0.78-1.47c-0.39-0.43-0.87-0.73-1.45-0.91c-0.58-0.17-1.25-0.17-2,0.02
		c-0.74,0.18-1.32,0.49-1.76,0.92s-0.72,0.92-0.86,1.48c-0.14,0.56-0.14,1.12,0,1.67c0.14,0.56,0.4,1.03,0.77,1.39
		c0.28,0.27,0.63,0.45,1.02,0.59l-1.07,0.26c-0.46,0.11-0.86,0.12-1.2,0.03c-0.34-0.1-0.62-0.26-0.84-0.5
		c-0.21-0.24-0.36-0.52-0.44-0.83c-0.08-0.34-0.1-0.65-0.05-0.93s0.17-0.52,0.34-0.72s0.4-0.34,0.69-0.42l-0.46-1.85
		c-0.57,0.18-1.05,0.47-1.43,0.86c-0.38,0.39-0.63,0.88-0.75,1.46s-0.08,1.27,0.11,2.04c0.16,0.64,0.43,1.2,0.81,1.68
		S275.18,147.54,275.79,147.73z M278.46,142.86c0.08-0.32,0.23-0.59,0.47-0.83c0.24-0.23,0.55-0.4,0.95-0.5
		c0.41-0.1,0.77-0.1,1.09-0.01c0.32,0.1,0.58,0.27,0.8,0.51c0.21,0.25,0.36,0.53,0.44,0.85c0.05,0.21,0.06,0.43,0.03,0.66
		c-0.03,0.22-0.1,0.44-0.22,0.65c-0.11,0.21-0.27,0.39-0.48,0.54c-0.21,0.16-0.47,0.27-0.78,0.35c-0.41,0.1-0.77,0.1-1.09,0
		c-0.32-0.1-0.58-0.27-0.79-0.5c-0.21-0.23-0.34-0.49-0.42-0.77C278.39,143.49,278.39,143.17,278.46,142.86z"/>
	<path class="st1" d="M287.7,157.88c-0.18,0.22-0.38,0.41-0.61,0.58l1.13,1.55c0.34-0.22,0.67-0.52,0.97-0.88
		c0.3-0.37,0.53-0.8,0.7-1.31c0.16-0.51,0.2-1.1,0.12-1.76c-0.08-0.65-0.27-1.21-0.57-1.71s-0.68-0.86-1.15-1.11
		c-0.47-0.25-1-0.33-1.6-0.26c-0.5,0.06-0.91,0.21-1.24,0.44c-0.33,0.23-0.6,0.51-0.8,0.83s-0.37,0.65-0.48,0.99s-0.2,0.64-0.26,0.9
		c-0.12,0.49-0.24,0.9-0.35,1.25s-0.26,0.61-0.44,0.8s-0.43,0.3-0.76,0.34c-0.38,0.05-0.69-0.05-0.94-0.29
		c-0.25-0.24-0.41-0.57-0.46-1c-0.05-0.37-0.01-0.72,0.11-1.06c0.12-0.34,0.3-0.66,0.56-0.96c0.25-0.3,0.56-0.58,0.92-0.85
		l-1.26-1.38c-0.46,0.29-0.87,0.66-1.23,1.12c-0.37,0.46-0.64,0.98-0.81,1.56s-0.22,1.19-0.14,1.82c0.06,0.48,0.19,0.92,0.39,1.33
		c0.2,0.41,0.46,0.78,0.77,1.09c0.32,0.31,0.69,0.54,1.11,0.69s0.89,0.19,1.39,0.13c0.45-0.06,0.83-0.18,1.16-0.37
		s0.6-0.42,0.82-0.71c0.22-0.29,0.4-0.59,0.54-0.93c0.14-0.34,0.25-0.68,0.32-1.03c0.11-0.55,0.23-1.01,0.36-1.38
		s0.28-0.65,0.45-0.84c0.17-0.19,0.39-0.31,0.64-0.34c0.26-0.03,0.5,0.04,0.72,0.23c0.22,0.18,0.36,0.48,0.41,0.9
		c0.04,0.32,0.01,0.61-0.08,0.87S287.88,157.66,287.7,157.88z"/>
	<path class="st1" d="M279.94,162.49l0.1,1.95l4.2-0.21c0.29-0.01,0.54,0.03,0.76,0.13c0.22,0.1,0.39,0.25,0.51,0.46
		c0.13,0.2,0.2,0.44,0.21,0.71c0.02,0.41-0.08,0.71-0.32,0.89c-0.23,0.19-0.58,0.29-1.04,0.31l-4.19,0.21l0.1,1.95l4.48-0.22
		c0.57-0.03,1.05-0.14,1.43-0.33c0.39-0.19,0.67-0.46,0.85-0.82c0.18-0.36,0.26-0.81,0.23-1.35c-0.03-0.54-0.18-0.99-0.46-1.34
		c-0.23-0.3-0.54-0.51-0.89-0.68l5.82-0.29l-0.1-1.95L279.94,162.49z"/>
	<path class="st1" d="M285.63,170.77c-0.53-0.35-1.16-0.53-1.88-0.55c-0.71-0.02-1.34,0.14-1.89,0.46s-0.99,0.77-1.3,1.34
		c-0.31,0.57-0.48,1.22-0.5,1.95s0.12,1.39,0.41,1.97c0.29,0.58,0.7,1.05,1.24,1.39s1.16,0.53,1.87,0.55
		c0.72,0.02,1.35-0.14,1.9-0.46s0.98-0.77,1.29-1.34c0.31-0.57,0.48-1.22,0.5-1.95s-0.12-1.39-0.4-1.97
		C286.57,171.58,286.16,171.11,285.63,170.77z M285.36,175.01c-0.17,0.28-0.4,0.49-0.71,0.65s-0.65,0.23-1.04,0.22
		s-0.73-0.1-1.02-0.27s-0.52-0.4-0.67-0.68c-0.16-0.28-0.23-0.6-0.23-0.94c0.01-0.34,0.1-0.65,0.27-0.92
		c0.17-0.28,0.41-0.49,0.71-0.65s0.64-0.23,1.03-0.22s0.73,0.1,1.03,0.27s0.52,0.4,0.67,0.68c0.15,0.28,0.23,0.59,0.22,0.93
		S285.53,174.74,285.36,175.01z"/>
	<path class="st1" d="M276.56,180.61l4.47,0.45c-0.41,0.18-0.76,0.4-1.03,0.72c-0.34,0.4-0.54,0.9-0.6,1.48
		c-0.06,0.58,0.03,1.13,0.26,1.66c0.23,0.53,0.6,0.98,1.12,1.34c0.52,0.36,1.16,0.58,1.94,0.66c0.79,0.08,1.47-0.01,2.04-0.26
		c0.57-0.25,1.02-0.62,1.35-1.09s0.52-1,0.58-1.58c0.06-0.59-0.04-1.11-0.29-1.58c-0.2-0.36-0.5-0.65-0.86-0.91l1.18,0.12l0.19-1.94
		l-10.15-1.01L276.56,180.61z M284.31,181.65c0.27,0.2,0.46,0.45,0.58,0.74c0.12,0.29,0.16,0.58,0.13,0.86
		c-0.03,0.34-0.14,0.64-0.32,0.91c-0.18,0.27-0.42,0.47-0.72,0.61c-0.31,0.14-0.66,0.19-1.07,0.15c-0.41-0.04-0.75-0.16-1.02-0.36
		c-0.27-0.2-0.47-0.45-0.59-0.75c-0.12-0.3-0.17-0.62-0.13-0.96c0.03-0.29,0.13-0.56,0.3-0.82c0.17-0.26,0.41-0.46,0.72-0.61
		c0.31-0.14,0.67-0.2,1.08-0.16l0.01,0C283.7,181.32,284.04,181.45,284.31,181.65z"/>
	<path class="st1" d="M288.13,191.59c0.32,0.05,0.59-0.02,0.83-0.21s0.38-0.44,0.43-0.76s-0.01-0.6-0.17-0.86
		c-0.17-0.26-0.41-0.41-0.72-0.46c-0.31-0.05-0.58,0.02-0.82,0.22c-0.24,0.19-0.39,0.45-0.44,0.77c-0.05,0.32,0.01,0.6,0.18,0.86
		C287.59,191.39,287.83,191.54,288.13,191.59z"/>
	
		<rect x="281.33" y="186.03" transform="matrix(0.1564 -0.9877 0.9877 0.1564 50.9757 438.6411)" class="st1" width="1.89" height="6.9"/>
	<path class="st1" d="M288.87,194.37c-0.32-0.25-0.74-0.42-1.26-0.53l-2.5-0.5l0.16-0.79l-1.6-0.32l-0.16,0.79l-5.16-1.03
		l-0.37,1.84l5.16,1.03l-0.32,1.6l1.6,0.32l0.32-1.6l2.07,0.41c0.25,0.05,0.46,0.12,0.62,0.21s0.26,0.2,0.31,0.31
		c0.05,0.12,0.06,0.25,0.04,0.4c-0.02,0.12-0.07,0.23-0.15,0.34c-0.08,0.11-0.2,0.2-0.37,0.27l1.27,1.09
		c0.12-0.07,0.24-0.17,0.38-0.3s0.27-0.3,0.38-0.5s0.21-0.45,0.27-0.76c0.1-0.51,0.09-0.96-0.03-1.35
		C289.41,194.94,289.19,194.62,288.87,194.37z"/>
	<polygon class="st1" points="274.23,195.7 273.74,197.63 282.5,204.52 283,202.56 279.28,199.85 283.86,199.23 284.39,197.14 
		277.67,198.37 	"/>
</g>
</svg>
