<svg width="64" height="64" viewBox="0 0 64 64" fill="none" xmlns="http://www.w3.org/2000/svg">
<g clip-path="url(#clip0_4566_79802)">
<path d="M44.3315 35.1499H10.6815L39.8215 16.6199C40.1815 16.3899 40.2815 15.9199 40.0615 15.5599L37.1715 11.0199C35.8015 8.86992 32.9515 8.22992 30.7915 9.59992L26.6915 12.2099L27.0115 10.6599C27.5515 8.29992 26.0715 5.95992 23.7215 5.41992C21.3715 4.87992 19.0215 6.35992 18.4815 8.70992C18.4815 8.71992 18.4715 8.73992 18.4715 8.74992L16.3415 18.3199L9.2115 16.7299C6.8515 16.1999 4.5115 17.6899 3.9915 20.0499C3.5315 22.0999 4.6015 24.1899 6.5315 25.0199L2.1415 27.8099C-0.008497 29.1799 -0.648497 32.0299 0.721503 34.1899L3.6115 38.7299C3.8415 39.0899 4.3115 39.1899 4.6715 38.9699L7.3615 37.2599V56.6199C7.3615 59.1699 9.4315 61.2399 11.9815 61.2399H40.4915C43.0415 61.2399 45.1115 59.1699 45.1115 56.6199V35.9099C45.1015 35.4899 44.7615 35.1499 44.3315 35.1499ZM31.6115 10.8899C32.1015 10.5699 32.6815 10.4099 33.2615 10.4099C33.4915 10.4099 33.7215 10.4399 33.9415 10.4799C34.7415 10.6599 35.4415 11.1499 35.8815 11.8399L38.3615 15.7399L26.3115 23.3999L22.1715 16.8999L31.6115 10.8899ZM19.9715 9.08992C20.3115 7.55992 21.8415 6.58992 23.3715 6.93992C24.9015 7.27992 25.8715 8.80992 25.5215 10.3399L24.8915 13.3399L18.0515 17.7099L19.9715 9.08992ZM20.8815 17.7199L25.0215 24.2199L18.0415 28.6599L13.9015 22.1599L20.8815 17.7199ZM5.8615 22.5299C5.0215 21.1999 5.4115 19.4499 6.7315 18.5999C7.3715 18.1999 8.1415 18.0599 8.8715 18.2199L15.0515 19.5999L8.1915 23.8999L7.6315 23.7799C6.9015 23.6199 6.2615 23.1699 5.8615 22.5299ZM4.4915 37.2699L2.0115 33.3699C1.1015 31.9299 1.5215 30.0199 2.9615 29.0999L12.6115 22.9699L16.7515 29.4699L4.4915 37.2699ZM19.3215 59.7199H11.9715C10.2615 59.7199 8.8815 58.3399 8.8815 56.6299V36.6799H19.3215V59.7199ZM29.0515 59.7199H20.8615V36.6799H29.0515V59.7199ZM43.5715 56.6299C43.5715 58.3399 42.1915 59.7199 40.4815 59.7199H30.5815V36.6799H43.5715V56.6299ZM52.8915 28.1999L53.2615 26.0699C53.3315 25.6499 53.0515 25.2599 52.6415 25.1899C52.4715 25.1599 52.3015 25.1899 52.1615 25.2699L50.2415 26.2799L48.3215 25.2699C47.9515 25.0699 47.4815 25.2199 47.2915 25.5899C47.2115 25.7399 47.1815 25.9099 47.2115 26.0799L47.5815 28.2099L46.0315 29.7199C45.7315 30.0099 45.7215 30.4999 46.0215 30.7999C46.1415 30.9199 46.2915 30.9999 46.4615 31.0199L48.6015 31.3299L49.5615 33.2699C49.7515 33.6499 50.2115 33.7999 50.5815 33.6199C50.7315 33.5499 50.8515 33.4199 50.9315 33.2699L51.8915 31.3299L54.0315 31.0199C54.4515 30.9599 54.7415 30.5699 54.6815 30.1499C54.6615 29.9799 54.5815 29.8299 54.4615 29.7099L52.8915 28.1999ZM51.2515 29.8699C51.0015 29.9099 50.7915 30.0599 50.6715 30.2899L50.2215 31.1999L49.7715 30.2899C49.6615 30.0599 49.4415 29.9099 49.1915 29.8699L48.1815 29.7199L48.9115 29.0099C49.0915 28.8299 49.1715 28.5799 49.1315 28.3299L48.9615 27.3299L49.8615 27.7999C50.0815 27.9199 50.3515 27.9199 50.5715 27.7999L51.4715 27.3299L51.3015 28.3299C51.2615 28.5799 51.3415 28.8299 51.5215 29.0099L52.2515 29.7199L51.2515 29.8699ZM61.6815 17.6599L59.5815 17.1499L58.8115 15.1299C58.6615 14.7399 58.2215 14.5399 57.8215 14.6899C57.6615 14.7499 57.5315 14.8599 57.4415 14.9999L56.3015 16.8399L54.1415 16.9499C53.7215 16.9699 53.3915 17.3299 53.4115 17.7499C53.4215 17.9199 53.4815 18.0799 53.5915 18.2099L54.9915 19.8599L54.4315 21.9499C54.3215 22.3599 54.5615 22.7799 54.9715 22.8899C55.1315 22.9299 55.3015 22.9199 55.4615 22.8599L57.4615 22.0399L59.2715 23.2199C59.6215 23.4499 60.1015 23.3499 60.3315 22.9999C60.4215 22.8599 60.4615 22.6899 60.4515 22.5199L60.2915 20.3599L61.9815 18.9999C62.3115 18.7299 62.3615 18.2499 62.1015 17.9199C61.9915 17.7899 61.8515 17.6999 61.6815 17.6599ZM59.0315 19.4199C58.8315 19.5799 58.7315 19.8199 58.7515 20.0699L58.8315 21.0799L57.9815 20.5199C57.7715 20.3799 57.5015 20.3599 57.2715 20.4499L56.3315 20.8399L56.6015 19.8599C56.6715 19.6199 56.6115 19.3599 56.4415 19.1699L55.7815 18.3899L56.8015 18.3399C57.0515 18.3299 57.2815 18.1899 57.4115 17.9799L57.9415 17.1099L58.3015 18.0599C58.3915 18.2999 58.5915 18.4699 58.8315 18.5299L59.8215 18.7699L59.0315 19.4199ZM50.4315 5.21992L49.8715 7.30992C49.7615 7.71992 50.0015 8.13992 50.4115 8.24992C50.5715 8.28992 50.7415 8.27992 50.9015 8.21992L52.9015 7.39992L54.7115 8.57992C55.0615 8.80992 55.5415 8.70992 55.7715 8.35992C55.8615 8.21992 55.9015 8.04992 55.8915 7.87992L55.7315 5.71992L57.4115 4.35992C57.7415 4.08992 57.7915 3.60992 57.5315 3.27992C57.4215 3.14992 57.2815 3.05992 57.1215 3.01992L55.0215 2.50992L54.2515 0.489917C54.1015 0.0999171 53.6615 -0.100083 53.2615 0.0499171C53.1015 0.109917 52.9715 0.219917 52.8815 0.359917L51.7415 2.19992L49.5815 2.30992C49.1615 2.32992 48.8315 2.68992 48.8515 3.10992C48.8615 3.27992 48.9215 3.43992 49.0315 3.56992L50.4315 5.21992ZM52.2215 3.70992C52.4715 3.69992 52.7015 3.55992 52.8315 3.34992L53.3615 2.47992L53.7215 3.42992C53.8115 3.66992 54.0115 3.83992 54.2515 3.89992L55.2415 4.13992L54.4515 4.77992C54.2515 4.93992 54.1515 5.17992 54.1715 5.42992L54.2515 6.43992L53.4015 5.89992C53.1915 5.75992 52.9215 5.73992 52.6915 5.82992L51.7515 6.21992L52.0215 5.23992C52.0915 4.99992 52.0315 4.73992 51.8615 4.54992L51.2015 3.75992L52.2215 3.70992ZM36.5615 28.3099C34.8315 29.3999 33.9915 30.7099 33.9515 30.7699C33.7215 31.1299 33.8315 31.5999 34.1915 31.8299C34.5515 32.0599 35.0215 31.9499 35.2515 31.5899C35.3615 31.4099 38.1315 27.2299 44.1615 28.7199C44.5715 28.8199 44.9815 28.5599 45.0815 28.1499C45.1815 27.7399 44.9315 27.3399 44.5315 27.2299C40.8115 26.3099 38.1415 27.3099 36.5615 28.3099ZM51.0715 20.2099C51.4615 20.3699 51.9115 20.1899 52.0715 19.7999C52.2315 19.4099 52.0515 18.9599 51.6615 18.7999C46.2115 16.5399 42.2615 18.2299 39.8915 20.0499C38.3215 21.2699 37.0315 22.7999 36.0815 24.5399C35.8915 24.9199 36.0515 25.3799 36.4215 25.5699C36.8015 25.7599 37.2615 25.5999 37.4515 25.2299C38.2915 23.6899 39.4415 22.3499 40.8215 21.2699C43.8015 18.9699 47.2415 18.6199 51.0715 20.2099ZM42.4815 14.5399C42.3515 14.9399 42.5715 15.3699 42.9715 15.4999C44.0215 15.8099 45.1215 15.9699 46.2115 15.9699C47.4915 15.9699 48.9715 15.7399 50.2915 14.9499C52.0215 13.9199 53.1415 12.1699 53.6015 9.74992C53.6815 9.33992 53.4115 8.92992 52.9915 8.84992C52.5815 8.76992 52.1715 9.03992 52.0915 9.45992C52.0915 9.45992 52.0915 9.45992 52.0915 9.46992C51.7215 11.4399 50.8515 12.8399 49.5115 13.6399C46.9715 15.1499 43.4815 14.0699 43.4315 14.0499C43.0415 13.9199 42.6115 14.1399 42.4815 14.5399ZM32.3615 34.3099C33.1215 34.3099 33.7415 33.6899 33.7415 32.9299C33.7415 32.1699 33.1215 31.5499 32.3615 31.5499C31.6015 31.5499 30.9815 32.1699 30.9815 32.9299C30.9915 33.6899 31.6015 34.3099 32.3615 34.3099ZM32.3615 32.7799C32.4415 32.7799 32.5115 32.8499 32.5115 32.9299C32.5115 33.0099 32.4415 33.0799 32.3615 33.0799C32.2815 33.0799 32.2115 33.0099 32.2115 32.9299C32.2115 32.8399 32.2815 32.7799 32.3615 32.7799ZM43.2015 9.31992C43.9615 9.31992 44.5815 8.69992 44.5815 7.93992C44.5815 7.17992 43.9615 6.55992 43.2015 6.55992C42.4415 6.55992 41.8215 7.17992 41.8215 7.93992C41.8315 8.69992 42.4415 9.31992 43.2015 9.31992ZM43.2015 7.78992C43.2815 7.78992 43.3515 7.85992 43.3515 7.93992C43.3515 8.01992 43.2815 8.08992 43.2015 8.08992C43.1215 8.08992 43.0515 8.01992 43.0515 7.93992C43.0515 7.85992 43.1215 7.78992 43.2015 7.78992ZM62.6215 8.26992C61.8615 8.26992 61.2415 8.88992 61.2415 9.64992C61.2415 10.4099 61.8615 11.0299 62.6215 11.0299C63.3815 11.0299 64.0015 10.4099 64.0015 9.64992C64.0015 8.87992 63.3815 8.26992 62.6215 8.26992ZM62.6215 9.79992C62.5415 9.79992 62.4715 9.72992 62.4715 9.64992C62.4715 9.56992 62.5415 9.49992 62.6215 9.49992C62.7015 9.49992 62.7715 9.56992 62.7715 9.64992C62.7715 9.72992 62.7115 9.79992 62.6215 9.79992ZM31.8015 26.5499C31.8015 25.7899 31.1815 25.1699 30.4215 25.1699C29.6615 25.1699 29.0415 25.7899 29.0415 26.5499C29.0415 27.3099 29.6615 27.9299 30.4215 27.9299C31.1815 27.9299 31.8015 27.3099 31.8015 26.5499ZM30.4215 26.6999C30.3415 26.6999 30.2715 26.6299 30.2715 26.5499C30.2715 26.4699 30.3415 26.3999 30.4215 26.3999C30.5015 26.3999 30.5715 26.4699 30.5715 26.5499C30.5815 26.6299 30.5115 26.6999 30.4215 26.6999ZM60.3515 27.4099C59.5915 27.4099 58.9715 28.0299 58.9715 28.7899C58.9715 29.5499 59.5915 30.1699 60.3515 30.1699C61.1115 30.1699 61.7315 29.5499 61.7315 28.7899C61.7315 28.0299 61.1115 27.4099 60.3515 27.4099ZM60.3515 28.9399C60.2715 28.9399 60.2015 28.8699 60.2015 28.7899C60.2015 28.7099 60.2715 28.6399 60.3515 28.6399C60.4315 28.6399 60.5015 28.7099 60.5015 28.7899C60.5115 28.8799 60.4415 28.9399 60.3515 28.9399Z" fill="#1D1E2C"/>
</g>
<defs>
<clipPath id="clip0_4566_79802">
<rect width="64" height="64" fill="white"/>
</clipPath>
</defs>
</svg>
