<svg width="22" height="22" viewBox="0 0 22 22" fill="none" xmlns="http://www.w3.org/2000/svg">
<g clip-path="url(#clip0_4564_79790)">
<path d="M6.29 9.71C5.9 9.32 5.9 8.69 6.29 8.3C6.68 7.91 7.31 7.91 7.7 8.3L10 10.59V1C10 0.45 10.45 0 11 0C11.55 0 12 0.45 12 1V10.59L14.29 8.3C14.68 7.91 15.31 7.91 15.7 8.3C16.09 8.69 16.09 9.32 15.7 9.71L11.7 13.71C11.51 13.9 11.26 14 11 14C10.74 14 10.49 13.9 10.29 13.71L6.29 9.71ZM21 12H18C17.45 12 17 12.45 17 13C17 13.55 17.45 14 18 14H20V20H2V14H4C4.55 14 5 13.55 5 13C5 12.45 4.55 12 4 12H1C0.45 12 0 12.45 0 13V21C0 21.55 0.45 22 1 22H21C21.55 22 22 21.55 22 21V13C22 12.45 21.55 12 21 12Z" fill="#54FA06"/>
</g>
<defs>
<clipPath id="clip0_4564_79790">
<rect width="22" height="22" fill="white"/>
</clipPath>
</defs>
</svg>
