<svg width="18" height="18" viewBox="0 0 18 18" fill="none" xmlns="http://www.w3.org/2000/svg">
<g clip-path="url(#clip0_4580_79615)">
<path d="M17.74 4.33C17.55 4.12 17.28 4 17 4L11 3.98V2.76C11 2 10.71 1.29 10.17 0.75L10.03 0.61C9.64 0.22 9.1 0 8.55 0H7C6.52 0 6.11 0.34 6.02 0.8L5.18 5H5C5 4.45 4.55 4 4 4H1C0.45 4 0 4.45 0 5V16C0 16.55 0.45 17 1 17H4C4.55 17 5 16.55 5 16V15.87L6.45 16.83C6.61 16.94 6.8 17 7 17H16C16.52 17 16.95 16.61 17 16.09L18 5.09C18.02 4.81 17.93 4.53 17.74 4.33ZM3 15H2V6H3V15ZM15.09 15H7.3L5 13.46V7H6C6.48 7 6.89 6.66 6.98 6.2L7.82 2.02L8.62 2.03L8.76 2.17C8.91 2.33 9 2.54 9 2.76V3.98C9 5.09 9.91 6 11.02 6H15.91L15.09 15Z" fill="#8F8F94"/>
<path d="M9 9C9 9.55 9.45 10 10 10H13C13.55 10 14 9.55 14 9C14 8.45 13.55 8 13 8H10C9.45 8 9 8.45 9 9Z" fill="#8F8F94"/>
<path d="M13 11H10C9.45 11 9 11.45 9 12C9 12.55 9.45 13 10 13H13C13.55 13 14 12.55 14 12C14 11.45 13.55 11 13 11Z" fill="#8F8F94"/>
</g>
<defs>
<clipPath id="clip0_4580_79615">
<rect width="18" height="18" fill="white"/>
</clipPath>
</defs>
</svg>
