<svg width="100" height="100" viewBox="0 0 100 100" fill="none" xmlns="http://www.w3.org/2000/svg">
<path fill-rule="evenodd" clip-rule="evenodd" d="M53.5793 0.0397225C68.8119 0.832208 79.7371 15.1199 88.4901 29.1363C96.4135 41.8242 103.15 57.316 98.4443 71.8827C94.1174 85.2775 79.5526 88.1838 67.736 93.3862C57.5901 97.8531 47.5867 102.046 37.0523 98.9116C22.8267 94.6783 6.41212 89.3177 1.60068 73.7053C-3.5573 56.9684 4.56454 39.1625 14.3603 25.2797C24.204 11.3289 37.7422 -0.784217 53.5793 0.0397225Z" fill="#F6F6F9"/>
<g clip-path="url(#clip0_3490_78015)">
<path d="M39 25H33C30.8783 25 28.8434 25.8429 27.3431 27.3431C25.8429 28.8434 25 30.8783 25 33V39C25 41.1217 25.8429 43.1566 27.3431 44.6569C28.8434 46.1571 30.8783 47 33 47H39C41.1217 47 43.1566 46.1571 44.6569 44.6569C46.1571 43.1566 47 41.1217 47 39V33C47 30.8783 46.1571 28.8434 44.6569 27.3431C43.1566 25.8429 41.1217 25 39 25ZM43 39C43 40.0609 42.5786 41.0783 41.8284 41.8284C41.0783 42.5786 40.0609 43 39 43H33C31.9391 43 30.9217 42.5786 30.1716 41.8284C29.4214 41.0783 29 40.0609 29 39V33C29 31.9391 29.4214 30.9217 30.1716 30.1716C30.9217 29.4214 31.9391 29 33 29H39C40.0609 29 41.0783 29.4214 41.8284 30.1716C42.5786 30.9217 43 31.9391 43 33V39Z" fill="#544179"/>
<path d="M39 51H33C30.8783 51 28.8434 51.8429 27.3431 53.3431C25.8429 54.8434 25 56.8783 25 59V65C25 67.1217 25.8429 69.1566 27.3431 70.6569C28.8434 72.1571 30.8783 73 33 73H39C41.1217 73 43.1566 72.1571 44.6569 70.6569C46.1571 69.1566 47 67.1217 47 65V59C47 56.8783 46.1571 54.8434 44.6569 53.3431C43.1566 51.8429 41.1217 51 39 51ZM43 65C43 66.0609 42.5786 67.0783 41.8284 67.8284C41.0783 68.5786 40.0609 69 39 69H33C31.9391 69 30.9217 68.5786 30.1716 67.8284C29.4214 67.0783 29 66.0609 29 65V59C29 57.9391 29.4214 56.9217 30.1716 56.1716C30.9217 55.4214 31.9391 55 33 55H39C40.0609 55 41.0783 55.4214 41.8284 56.1716C42.5786 56.9217 43 57.9391 43 59V65Z" fill="#544179"/>
<path d="M65 51H59C56.8783 51 54.8434 51.8429 53.3431 53.3431C51.8429 54.8434 51 56.8783 51 59V65C51 67.1217 51.8429 69.1566 53.3431 70.6569C54.8434 72.1571 56.8783 73 59 73H65C67.1217 73 69.1566 72.1571 70.6569 70.6569C72.1571 69.1566 73 67.1217 73 65V59C73 56.8783 72.1571 54.8434 70.6569 53.3431C69.1566 51.8429 67.1217 51 65 51ZM69 65C69 66.0609 68.5786 67.0783 67.8284 67.8284C67.0783 68.5786 66.0609 69 65 69H59C57.9391 69 56.9217 68.5786 56.1716 67.8284C55.4214 67.0783 55 66.0609 55 65V59C55 57.9391 55.4214 56.9217 56.1716 56.1716C56.9217 55.4214 57.9391 55 59 55H65C66.0609 55 67.0783 55.4214 67.8284 56.1716C68.5786 56.9217 69 57.9391 69 59V65Z" fill="#544179"/>
<path d="M53 39H59V45C59 45.5304 59.2107 46.0391 59.5858 46.4142C59.9609 46.7893 60.4696 47 61 47C61.5304 47 62.0391 46.7893 62.4142 46.4142C62.7893 46.0391 63 45.5304 63 45V39H69C69.5304 39 70.0391 38.7893 70.4142 38.4142C70.7893 38.0391 71 37.5304 71 37C71 36.4696 70.7893 35.9609 70.4142 35.5858C70.0391 35.2107 69.5304 35 69 35H63V29C63 28.4696 62.7893 27.9609 62.4142 27.5858C62.0391 27.2107 61.5304 27 61 27C60.4696 27 59.9609 27.2107 59.5858 27.5858C59.2107 27.9609 59 28.4696 59 29V35H53C52.4696 35 51.9609 35.2107 51.5858 35.5858C51.2107 35.9609 51 36.4696 51 37C51 37.5304 51.2107 38.0391 51.5858 38.4142C51.9609 38.7893 52.4696 39 53 39Z" fill="#544179"/>
</g>
<defs>
<clipPath id="clip0_3490_78015">
<rect width="48" height="48" fill="white" transform="translate(25 25)"/>
</clipPath>
</defs>
</svg>
