<svg width="100" height="100" viewBox="0 0 100 100" fill="none" xmlns="http://www.w3.org/2000/svg">
<path fill-rule="evenodd" clip-rule="evenodd" d="M55.752 7.03421C66.3494 9.10646 76.2675 11.944 83.8089 19.5559C92.6522 28.4817 101.607 39.1175 99.7544 51.4477C97.7777 64.6023 85.94 72.8823 74.6885 80.2514C59.9838 89.8822 44.368 104.737 27.8682 98.5292C10.7995 92.1072 6.76585 70.9991 3.22248 53.3624C-0.14803 36.5861 -3.87785 16.3553 9.0653 4.94015C21.2691 -5.82296 39.6766 3.89073 55.752 7.03421Z" fill="#F6F6F9"/>
<g clip-path="url(#clip0_3489_77991)">
<path d="M41 50.6667C39.5166 50.6667 38.0666 50.2268 36.8332 49.4027C35.5999 48.5786 34.6386 47.4072 34.0709 46.0368C33.5032 44.6664 33.3547 43.1584 33.6441 41.7035C33.9335 40.2486 34.6478 38.9123 35.6967 37.8634C36.7456 36.8145 38.082 36.1002 39.5368 35.8108C40.9917 35.5214 42.4997 35.6699 43.8701 36.2376C45.2406 36.8052 46.4119 37.7665 47.236 38.9999C48.0601 40.2333 48.5 41.6833 48.5 43.1667C48.4978 45.1551 47.7069 47.0615 46.3009 48.4675C44.8948 49.8736 42.9884 50.6645 41 50.6667V50.6667ZM41 39C40.1759 39 39.3703 39.2444 38.6851 39.7022C37.9999 40.1601 37.4659 40.8108 37.1505 41.5722C36.8351 42.3335 36.7526 43.1713 36.9134 43.9795C37.0742 44.7878 37.471 45.5302 38.0537 46.113C38.6364 46.6957 39.3789 47.0925 40.1871 47.2533C40.9954 47.414 41.8332 47.3315 42.5945 47.0162C43.3559 46.7008 44.0066 46.1668 44.4645 45.4815C44.9223 44.7963 45.1667 43.9908 45.1667 43.1667C45.1667 42.0616 44.7277 41.0018 43.9463 40.2204C43.1649 39.439 42.1051 39 41 39ZM53.5 67.3333V66.5C53.5 63.1848 52.183 60.0054 49.8388 57.6612C47.4946 55.317 44.3152 54 41 54C37.6848 54 34.5054 55.317 32.1612 57.6612C29.817 60.0054 28.5 63.1848 28.5 66.5L28.5 67.3333C28.5 67.7754 28.6756 68.1993 28.9882 68.5119C29.3007 68.8244 29.7246 69 30.1667 69C30.6087 69 31.0326 68.8244 31.3452 68.5119C31.6577 68.1993 31.8333 67.7754 31.8333 67.3333V66.5C31.8333 64.0689 32.7991 61.7373 34.5182 60.0182C36.2373 58.2991 38.5688 57.3333 41 57.3333C43.4312 57.3333 45.7627 58.2991 47.4818 60.0182C49.2009 61.7373 50.1667 64.0689 50.1667 66.5V67.3333C50.1667 67.7754 50.3423 68.1993 50.6548 68.5119C50.9674 68.8244 51.3913 69 51.8333 69C52.2754 69 52.6993 68.8244 53.0118 68.5119C53.3244 68.1993 53.5 67.7754 53.5 67.3333ZM68.5 59C68.4999 56.7478 67.848 54.5438 66.6228 52.6539C65.3977 50.7641 63.6517 49.2693 61.5957 48.3499C59.5397 47.4306 57.2616 47.126 55.0362 47.4729C52.8109 47.8198 50.7336 48.8034 49.055 50.305C48.8896 50.4503 48.7547 50.627 48.6579 50.8248C48.5612 51.0226 48.5046 51.2376 48.4915 51.4573C48.4783 51.6771 48.5088 51.8973 48.5812 52.1052C48.6537 52.3132 48.7666 52.5047 48.9134 52.6687C49.0603 52.8327 49.2382 52.966 49.4369 53.0609C49.6355 53.1558 49.8511 53.2104 50.0709 53.2215C50.2908 53.2326 50.5107 53.2001 50.718 53.1257C50.9252 53.0514 51.1157 52.9367 51.2783 52.7883C52.4774 51.716 53.9612 51.0137 55.5507 50.7661C57.1401 50.5185 58.7673 50.7362 60.2357 51.393C61.7041 52.0498 62.9511 53.1175 63.8261 54.4673C64.701 55.8172 65.1666 57.3914 65.1667 59C65.1667 59.442 65.3423 59.866 65.6548 60.1785C65.9674 60.4911 66.3913 60.6667 66.8333 60.6667C67.2754 60.6667 67.6993 60.4911 68.0118 60.1785C68.3244 59.866 68.5 59.442 68.5 59ZM57.6667 44C56.1833 44 54.7333 43.5601 53.4999 42.736C52.2665 41.9119 51.3052 40.7406 50.7376 39.3701C50.1699 37.9997 50.0214 36.4917 50.3108 35.0368C50.6002 33.582 51.3145 32.2456 52.3634 31.1967C53.4123 30.1478 54.7486 29.4335 56.2035 29.1441C57.6583 28.8547 59.1663 29.0032 60.5368 29.5709C61.9072 30.1386 63.0786 31.0999 63.9027 32.3332C64.7268 33.5666 65.1667 35.0166 65.1667 36.5C65.1645 38.4885 64.3736 40.3948 62.9675 41.8009C61.5615 43.2069 59.6551 43.9978 57.6667 44V44ZM57.6667 32.3333C56.8426 32.3333 56.037 32.5777 55.3518 33.0355C54.6666 33.4934 54.1325 34.1441 53.8172 34.9055C53.5018 35.6668 53.4193 36.5046 53.5801 37.3129C53.7408 38.1211 54.1377 38.8636 54.7204 39.4463C55.3031 40.029 56.0455 40.4258 56.8538 40.5866C57.662 40.7474 58.4998 40.6649 59.2612 40.3495C60.0225 40.0341 60.6733 39.5001 61.1311 38.8149C61.589 38.1297 61.8333 37.3241 61.8333 36.5C61.8333 35.3949 61.3943 34.3351 60.6129 33.5537C59.8315 32.7723 58.7717 32.3333 57.6667 32.3333V32.3333Z" fill="#544179"/>
</g>
<defs>
<clipPath id="clip0_3489_77991">
<rect width="40" height="40" fill="white" transform="translate(28.5 29)"/>
</clipPath>
</defs>
</svg>
