<svg width="100" height="100" viewBox="0 0 100 100" fill="none" xmlns="http://www.w3.org/2000/svg">
<path fill-rule="evenodd" clip-rule="evenodd" d="M48.3197 0.0774548C64.8406 -0.866305 81.2489 6.86358 91.1235 20.579C100.649 33.8094 102.521 51.9006 96.6766 67.2439C91.6308 80.4902 77.0768 84.7374 64.4831 90.5148C52.6524 95.9422 40.5839 103.092 28.4037 98.5646C14.8821 93.5383 4.54154 81.3897 1.13564 66.9673C-2.32857 52.2981 2.45901 37.3554 11.0671 25.1522C20.2502 12.1338 32.7505 0.966844 48.3197 0.0774548Z" fill="#F6F6F9"/>
<path d="M46.3747 34.6167C48.9036 34.6413 51.3568 34.6413 53.808 34.6413H73.7324C75.5303 34.6249 77.3077 34.6659 79.0053 34.6249C78.9848 33.1588 78.7371 31.8318 78.4197 30.5029C78.0736 29.2005 77.3528 27.6012 76.8941 26.8907C75.9091 25.1603 74.6846 23.7535 73.2512 22.5556C72.1761 21.6915 71.3468 21.1488 69.8601 20.4137C67.4254 19.3304 65.1012 18.9188 62.775 19.013C53.2715 19.0069 43.8457 19.0069 34.42 19.0069C32.1143 19.0663 28.7069 20.3952 27.2939 21.4232C25.6803 22.4266 24.3554 23.6798 23.223 25.1296C22.4388 26.2559 21.9207 26.9091 21.1487 28.7438C20.2088 31.0885 19.8934 33.3635 20.0306 35.6365C20.0122 44.9086 20.0122 54.105 20.0122 63.3014C20.0572 65.73 21.335 69.1251 22.3671 70.5585C23.5097 72.424 24.982 73.9148 26.7021 75.1577C27.5888 75.7598 28.627 76.3905 30.4863 77.1031C32.1716 77.6519 33.8323 77.957 35.493 77.9468C35.7101 78.0041 35.62 77.8382 35.6466 77.787V42.4575C35.5934 40.8255 35.575 38.9784 36.5272 37.5819C37.379 36.3717 38.0015 35.5956 39.8199 34.9362C42.0826 34.4079 44.2287 34.7601 46.3747 34.6167ZM78.9254 40.5613C68.2936 40.6166 57.7949 40.6166 47.2962 40.6166C45.2914 40.8275 44.1345 41.6159 43.3932 42.4207C42.5618 43.209 41.7612 44.5011 41.624 46.4915C41.626 49.9911 41.626 53.4661 41.626 56.9411V77.9386H57.2604C57.3362 73.4417 57.3362 69.0227 57.3362 64.6037C57.4202 63.072 57.1069 61.614 57.7068 60.1581C58.3846 58.5629 59.3 57.6804 60.5778 56.9493C63.1047 55.8108 65.736 56.5766 68.2916 56.2777C71.8464 56.3268 75.3214 56.3268 78.7964 56.3268C79.0135 56.3903 78.9234 56.2244 78.95 56.1732V44.4479C78.9254 43.1148 78.9766 41.7879 78.9254 40.5613ZM68.7523 62.2284C65.8384 62.769 64.9702 63.8891 63.893 65.517C62.7504 67.8596 63.4446 70.5114 63.1968 72.9462C63.2501 74.6806 63.2091 76.3823 63.2521 78C65.1524 77.9631 66.9135 77.6273 68.6765 77.0089C70.5318 76.2717 71.4471 75.7168 72.516 74.9509C74.5904 73.4008 76.1999 71.5578 77.3794 69.1395C78.4033 67.0139 79.0504 64.3969 78.9295 62.1854C75.4464 62.2284 72.0983 62.2284 68.7523 62.2284Z" fill="#544179"/>
</svg>
