<svg width="100" height="100" viewBox="0 0 100 100" fill="none" xmlns="http://www.w3.org/2000/svg">
<path fill-rule="evenodd" clip-rule="evenodd" d="M45.662 100C60.445 99.9967 75.6187 97.6372 85.6997 86.8734C96.7277 75.0984 102.316 58.7241 99.0952 42.9477C95.7866 26.7394 84.204 13.5355 69.2556 6.31673C54.2518 -0.928787 36.037 -2.91881 21.7108 5.57759C8.42361 13.4577 6.25526 30.349 3.26271 45.4547C0.433816 59.7343 -3.34565 75.3804 5.60193 86.8912C14.6523 98.5342 30.8734 100.003 45.662 100Z" fill="#F6F6F9"/>
<g clip-path="url(#clip0_3489_78005)">
<path d="M53 71C51.9957 70.9964 51.0193 70.6698 50.215 70.0683L45.6567 66.4567L41.135 70.03C40.3333 70.637 39.3579 70.9704 38.3524 70.9812C37.3469 70.992 36.3645 70.6796 35.55 70.09C34.736 69.5155 34.1292 68.6935 33.8199 67.7464C33.5106 66.7992 33.5153 65.7776 33.8333 64.8333L35.41 59.3733L30.9417 56.175C30.1373 55.5919 29.5383 54.769 29.2306 53.8243C28.923 52.8796 28.9225 51.8618 29.2292 50.9168C29.5359 49.9718 30.1341 49.1483 30.9379 48.5644C31.7417 47.9805 32.7098 47.6662 33.7033 47.6667H39.4233L41.1667 42.01C41.4788 41.0683 42.0795 40.2487 42.8836 39.6675C43.6876 39.0862 44.6543 38.7729 45.6464 38.7718C46.6385 38.7707 47.6058 39.0819 48.4112 39.6613C49.2165 40.2407 49.819 41.059 50.1333 42L51.8867 47.6667H57.6083C58.6009 47.6655 59.5684 47.9784 60.3723 48.5608C61.1761 49.1431 61.775 49.9648 62.0833 50.9084C62.3915 51.8519 62.3932 52.8688 62.0881 53.8133C61.7831 54.7579 61.1869 55.5817 60.385 56.1667L55.9233 59.3733L57.5017 64.8883C57.8069 65.8279 57.8026 66.8406 57.4894 67.7776C57.1762 68.7145 56.5706 69.5262 55.7617 70.0933C54.9597 70.6792 53.9931 70.9965 53 71ZM45.65 62.6667C46.0251 62.667 46.3892 62.7938 46.6833 63.0267L52.2367 67.4167C52.4641 67.5879 52.7423 67.6779 53.0268 67.6725C53.3114 67.6671 53.586 67.5664 53.8067 67.3867C54.0519 67.2264 54.2352 66.9873 54.3261 66.7088C54.417 66.4303 54.4101 66.1291 54.3067 65.855L52.3967 59.1667C52.303 58.837 52.3133 58.4866 52.426 58.163C52.5388 57.8394 52.7485 57.5584 53.0267 57.3583L58.4267 53.4733C58.6606 53.3025 58.8343 53.0619 58.9227 52.7861C59.0111 52.5102 59.0097 52.2135 58.9188 51.9385C58.8278 51.6635 58.6519 51.4245 58.4164 51.2558C58.1809 51.0872 57.898 50.9976 57.6083 51H50.6667C50.3117 51.0004 49.9659 50.8874 49.6796 50.6776C49.3933 50.4677 49.1815 50.172 49.075 49.8333L46.9533 43C46.8604 42.7278 46.6841 42.4917 46.4496 42.3251C46.2151 42.1585 45.9342 42.0699 45.6465 42.0717C45.3588 42.0735 45.079 42.1658 44.8467 42.3354C44.6143 42.5049 44.4411 42.7433 44.3517 43.0167L42.245 49.8333C42.1385 50.172 41.9267 50.4677 41.6404 50.6776C41.3541 50.8874 41.0083 51.0004 40.6533 51H33.7033C33.4146 51.0003 33.1334 51.0918 32.8998 51.2615C32.6662 51.4311 32.4922 51.6702 32.4025 51.9447C32.3129 52.2191 32.3123 52.5148 32.4007 52.7897C32.4891 53.0645 32.6621 53.3043 32.895 53.475L38.3033 57.3483C38.5834 57.5488 38.7945 57.8311 38.9076 58.1564C39.0208 58.4817 39.0303 58.834 38.935 59.165L37.015 65.8067C36.9015 66.0858 36.888 66.3955 36.9767 66.6834C37.0654 66.9714 37.2508 67.2198 37.5017 67.3867C37.7343 67.5607 38.017 67.6548 38.3075 67.6548C38.598 67.6548 38.8807 67.5607 39.1133 67.3867L44.6233 63.0333C44.9161 62.7973 45.2806 62.6679 45.6567 62.6667H45.65ZM62.3333 42.91L64.8017 44.725C65.0313 44.8945 65.3089 44.9866 65.5943 44.9883C65.8797 44.9899 66.1583 44.901 66.3899 44.7342C66.6216 44.5674 66.7943 44.3314 66.8833 44.0602C66.9722 43.789 66.9728 43.4966 66.885 43.225L65.9317 40.2733L68.4417 38.44C68.6726 38.2726 68.8444 38.0364 68.9326 37.7652C69.0207 37.494 69.0206 37.2018 68.9323 36.9306C68.844 36.6595 68.6719 36.4233 68.4409 36.2561C68.2099 36.0889 67.9318 35.9992 67.6467 36H64.5567L63.6183 33.0733C63.5282 32.8039 63.3556 32.5696 63.125 32.4036C62.8944 32.2375 62.6175 32.1482 62.3333 32.1482C62.0492 32.1482 61.7722 32.2375 61.5416 32.4036C61.311 32.5696 61.1385 32.8039 61.0483 33.0733L60.11 36H57.0217C56.7368 35.9994 56.459 36.089 56.2282 36.256C55.9974 36.423 55.8255 36.6588 55.737 36.9296C55.6485 37.2004 55.6481 37.4922 55.7358 37.7633C55.8234 38.0343 55.9947 38.2707 56.225 38.4383L58.735 40.2717L57.7817 43.2233C57.6884 43.4951 57.6868 43.7899 57.7771 44.0626C57.8674 44.3354 58.0446 44.571 58.2817 44.7333C58.5123 44.9025 58.7912 44.993 59.0772 44.9915C59.3632 44.99 59.6411 44.8966 59.87 44.725L62.3333 42.91Z" fill="#544179"/>
</g>
<defs>
<clipPath id="clip0_3489_78005">
<rect width="40" height="40" fill="white" transform="translate(29 31)"/>
</clipPath>
</defs>
</svg>
