<svg width="1003" height="837" viewBox="0 0 1003 837" fill="none" xmlns="http://www.w3.org/2000/svg">
<path opacity="0.05" d="M687.648 457.956C688.414 458.718 689.42 459.128 690.497 459.128C691.575 459.128 692.581 458.704 693.347 457.956C694.112 457.193 694.523 456.19 694.523 455.117C694.523 454.044 694.098 453.041 693.347 452.279L673.97 432.973L693.347 413.668C694.112 412.906 694.523 411.903 694.523 410.83C694.523 409.756 694.098 408.754 693.347 407.991C691.773 406.424 689.222 406.424 687.648 407.991L668.271 427.296L648.894 407.991C647.321 406.424 644.769 406.424 643.196 407.991C642.43 408.754 642.019 409.756 642.019 410.83C642.019 411.903 642.445 412.906 643.196 413.668L662.573 432.973L643.196 452.279C642.43 453.041 642.019 454.044 642.019 455.117C642.019 456.19 642.445 457.193 643.196 457.956C643.961 458.718 644.968 459.128 646.045 459.128C647.122 459.128 648.129 458.704 648.894 457.956L668.271 438.651L687.648 457.956ZM363.524 35.9128L420.564 90.3542L429.65 80.9064L372.61 26.4651L363.524 35.9128ZM424.334 81.0194L420.436 85.0724L368.825 35.8141L372.723 31.761L424.334 81.0194ZM401.314 18.952C406.573 18.952 410.826 14.7012 410.826 9.47601C410.826 4.23666 406.559 0 401.314 0C396.055 0 391.803 4.25078 391.803 9.47601C391.803 14.7012 396.07 18.952 401.314 18.952ZM745.515 792.664C736.982 800.304 731.964 810.797 731.369 822.208C730.773 833.619 734.671 844.564 742.34 853.065C743.488 854.35 745.09 855 746.692 855C748.095 855 749.498 854.506 750.604 853.503C753.014 851.342 753.212 847.656 751.043 845.27C745.444 839.084 742.609 831.119 743.049 822.829C743.474 814.54 747.131 806.899 753.326 801.349C759.534 795.799 767.529 792.975 775.864 793.413C784.199 793.836 791.853 797.48 797.438 803.651C799.607 806.052 803.306 806.25 805.716 804.089C808.126 801.929 808.324 798.243 806.156 795.856C790.308 778.302 763.106 776.89 745.515 792.664ZM352.938 648.937C341.669 646.818 330.244 649.205 320.775 655.659C319.358 656.633 318.493 658.116 318.28 659.698C318.096 661.082 318.394 662.522 319.259 663.765C321.073 666.42 324.73 667.112 327.395 665.29C334.284 660.601 342.591 658.879 350.798 660.404C359.005 661.943 366.107 666.561 370.813 673.424C375.519 680.274 377.262 688.563 375.717 696.726C374.172 704.889 369.523 711.978 362.648 716.653C359.983 718.46 359.289 722.104 361.117 724.745C362.932 727.4 366.589 728.092 369.254 726.27C388.801 712.967 393.847 686.304 380.48 666.844C373.988 657.396 364.221 651.055 352.938 648.937ZM829.516 639.963C833.018 635.981 838.064 633.693 843.365 633.693C848.681 633.693 853.713 635.981 857.214 639.963C862.416 645.895 869.929 649.284 877.839 649.284C885.748 649.284 893.247 645.881 898.463 639.963C901.965 635.981 907.011 633.693 912.312 633.693C917.628 633.693 922.66 635.981 926.161 639.963C931.363 645.895 938.876 649.284 946.786 649.284C954.695 649.284 962.208 645.881 967.41 639.963C970.912 635.981 975.958 633.693 981.259 633.693C986.561 633.693 991.607 635.981 995.108 639.963C996.738 641.828 999.588 642.025 1001.46 640.387C1003.33 638.749 1003.53 635.91 1001.88 634.046C996.682 628.115 989.169 624.726 981.259 624.726C973.35 624.726 965.851 628.129 960.635 634.046C957.134 638.029 952.087 640.316 946.786 640.316C941.47 640.316 936.438 638.029 932.937 634.046C927.735 628.115 920.222 624.726 912.312 624.726C904.403 624.726 896.904 628.129 891.688 634.046C888.187 638.029 883.154 640.316 877.839 640.316C872.523 640.316 867.491 638.029 863.99 634.046C858.773 628.115 851.261 624.726 843.351 624.726C835.442 624.726 827.943 628.129 822.727 634.046C821.096 635.924 821.281 638.749 823.152 640.387C825.037 641.997 827.872 641.828 829.516 639.963ZM981.259 649.27C973.35 649.27 965.851 652.673 960.635 658.591C957.134 662.573 952.087 664.861 946.786 664.861C941.47 664.861 936.438 662.573 932.937 658.591C927.735 652.659 920.222 649.27 912.312 649.27C904.403 649.27 896.904 652.673 891.688 658.591C888.187 662.573 883.154 664.861 877.839 664.861C872.523 664.861 867.491 662.573 863.99 658.591C858.773 652.659 851.261 649.27 843.351 649.27C835.442 649.27 827.943 652.673 822.727 658.591C821.096 660.469 821.281 663.293 823.152 664.917C825.037 666.542 827.872 666.358 829.516 664.494C833.018 660.511 838.064 658.224 843.365 658.224C848.681 658.224 853.713 660.511 857.214 664.494C862.416 670.425 869.929 673.814 877.839 673.814C885.748 673.814 893.247 670.411 898.463 664.494C901.965 660.511 907.011 658.224 912.312 658.224C917.628 658.224 922.66 660.511 926.161 664.494C931.363 670.425 938.876 673.814 946.786 673.814C954.695 673.814 962.208 670.411 967.41 664.494C970.912 660.511 975.958 658.224 981.259 658.224C986.561 658.224 991.607 660.511 995.108 664.494C996.738 666.358 999.588 666.556 1001.46 664.917C1003.33 663.279 1003.53 660.455 1001.88 658.591C996.682 652.673 989.155 649.27 981.259 649.27ZM981.259 673.829C973.35 673.829 965.851 677.232 960.635 683.149C957.134 687.132 952.087 689.419 946.786 689.419C941.47 689.419 936.438 687.132 932.937 683.149C927.735 677.232 920.222 673.829 912.312 673.829C904.403 673.829 896.904 677.232 891.688 683.149C888.187 687.132 883.154 689.419 877.839 689.419C872.523 689.419 867.491 687.132 863.99 683.149C858.773 677.232 851.261 673.829 843.351 673.829C835.442 673.829 827.943 677.232 822.727 683.149C821.096 685.013 821.281 687.838 823.152 689.476C825.037 691.1 827.872 690.917 829.516 689.052C833.018 685.07 838.064 682.796 843.365 682.796C848.681 682.796 853.713 685.084 857.214 689.052C862.416 694.984 869.929 698.373 877.839 698.373C885.748 698.373 893.247 694.97 898.463 689.052C901.965 685.07 907.011 682.796 912.312 682.796C917.628 682.796 922.66 685.084 926.161 689.052C931.363 694.984 938.876 698.373 946.786 698.373C954.695 698.373 962.208 694.97 967.41 689.052C970.912 685.07 975.958 682.796 981.259 682.796C986.561 682.796 991.607 685.084 995.108 689.052C996.738 690.917 999.588 691.114 1001.46 689.476C1003.33 687.852 1003.53 685.013 1001.88 683.149C996.682 677.232 989.155 673.829 981.259 673.829ZM616.278 555.357L645.605 570.482L660.787 541.263L631.459 526.138L616.278 555.357ZM52.504 746.297C52.504 745.224 52.0787 744.221 51.3275 743.459C49.754 741.891 47.2026 741.891 45.6292 743.459L26.252 762.764L6.87487 743.459C5.30145 741.891 2.74995 741.891 1.17653 743.459C0.411084 744.221 0 745.224 0 746.297C0 747.371 0.425259 748.373 1.17653 749.136L20.5537 768.441L1.17653 787.746C0.411084 788.509 0 789.511 0 790.585C0 791.658 0.425259 792.661 1.17653 793.423C1.94198 794.186 2.94839 794.596 4.02569 794.596C5.10298 794.596 6.10942 794.172 6.87487 793.423L26.252 774.104L45.6292 793.409C46.3946 794.172 47.401 794.581 48.4783 794.581C49.5556 794.581 50.562 794.158 51.3275 793.409C52.0929 792.647 52.504 791.644 52.504 790.571C52.504 789.497 52.0787 788.495 51.3275 787.732L31.9504 768.455L51.3275 749.15C52.0929 748.373 52.504 747.371 52.504 746.297ZM58.9947 278.844C66.9043 278.844 74.4028 275.44 79.6192 269.523C83.1204 265.54 88.1667 263.253 93.4682 263.253C98.7696 263.253 103.816 265.54 107.317 269.523C112.519 275.454 120.032 278.844 127.942 278.844C135.851 278.844 143.35 275.44 148.566 269.523C152.067 265.54 157.114 263.253 162.415 263.253C167.717 263.253 172.763 265.54 176.264 269.523C181.48 275.454 188.993 278.844 196.903 278.844C204.812 278.844 212.311 275.44 217.527 269.523C219.158 267.645 218.973 264.82 217.102 263.182C215.231 261.558 212.396 261.742 210.752 263.606C207.251 267.588 202.204 269.876 196.903 269.876C191.587 269.876 186.555 267.588 183.054 263.606C177.852 257.674 170.339 254.285 162.429 254.285C154.52 254.285 147.021 257.688 141.805 263.606C138.304 267.588 133.257 269.876 127.956 269.876C122.64 269.876 117.608 267.588 114.107 263.606C108.905 257.674 101.392 254.285 93.4823 254.285C85.5727 254.285 78.06 257.688 72.8436 263.606C69.3424 267.588 64.2961 269.876 58.9947 269.876C53.679 269.876 48.6469 267.588 45.1457 263.606C43.5156 261.742 40.6664 261.544 38.7953 263.182C36.9242 264.82 36.7258 267.659 38.3701 269.523C43.5723 275.44 51.085 278.844 58.9947 278.844ZM58.9947 254.299C66.9043 254.299 74.4028 250.896 79.6192 244.978C83.1204 240.996 88.1667 238.708 93.4682 238.708C98.7696 238.708 103.816 240.996 107.317 244.978C112.519 250.91 120.032 254.299 127.942 254.299C135.851 254.299 143.35 250.896 148.566 244.978C152.067 240.996 157.114 238.708 162.415 238.708C167.717 238.708 172.763 240.996 176.264 244.978C181.48 250.91 188.993 254.299 196.903 254.299C204.812 254.299 212.311 250.896 217.527 244.978C219.158 243.1 218.973 240.276 217.102 238.652C215.231 237.028 212.396 237.211 210.752 239.075C207.251 243.058 202.204 245.346 196.903 245.346C191.587 245.346 186.555 243.058 183.054 239.075C177.852 233.144 170.339 229.755 162.429 229.755C154.52 229.755 147.021 233.158 141.805 239.075C138.304 243.058 133.257 245.346 127.956 245.346C122.64 245.346 117.608 243.058 114.107 239.075C108.905 233.144 101.392 229.755 93.4823 229.755C85.5727 229.755 78.06 233.158 72.8436 239.075C69.3424 243.058 64.2961 245.346 58.9947 245.346C53.679 245.346 48.6469 243.058 45.1457 239.075C43.5156 237.211 40.6664 237.014 38.7953 238.652C36.9242 240.29 36.7258 243.114 38.3701 244.978C43.5723 250.896 51.085 254.299 58.9947 254.299ZM58.9947 229.741C66.9043 229.741 74.4028 226.337 79.6192 220.42C83.1204 216.437 88.1667 214.15 93.4682 214.15C98.7696 214.15 103.816 216.437 107.317 220.42C112.519 226.337 120.032 229.741 127.942 229.741C135.851 229.741 143.35 226.337 148.566 220.42C152.067 216.437 157.114 214.15 162.415 214.15C167.717 214.15 172.763 216.437 176.264 220.42C181.48 226.337 188.993 229.741 196.903 229.741C204.812 229.741 212.311 226.337 217.527 220.42C219.158 218.556 218.973 215.731 217.102 214.093C215.231 212.469 212.396 212.653 210.752 214.517C207.251 218.499 202.204 220.773 196.903 220.773C191.587 220.773 186.555 218.485 183.054 214.517C177.852 208.585 170.339 205.196 162.429 205.196C154.52 205.196 147.021 208.6 141.805 214.517C138.304 218.499 133.257 220.773 127.956 220.773C122.64 220.773 117.608 218.485 114.107 214.517C108.905 208.585 101.392 205.196 93.4823 205.196C85.5727 205.196 78.06 208.6 72.8436 214.517C69.3424 218.499 64.2961 220.773 58.9947 220.773C53.679 220.773 48.6469 218.485 45.1457 214.517C43.5156 212.653 40.6664 212.455 38.7953 214.093C36.9242 215.717 36.7258 218.556 38.3701 220.42C43.5723 226.337 51.085 229.741 58.9947 229.741ZM774.736 342.281C775.799 343.043 777.047 343.424 778.294 343.424C779.357 343.424 780.42 343.142 781.37 342.619L883.543 283.546C885.315 282.529 886.449 280.693 886.577 278.66C886.704 276.626 885.811 274.663 884.181 273.435L805.779 213.867C804.107 212.582 801.881 212.257 799.911 213.006C797.926 213.74 796.481 215.449 796.069 217.511L772.298 336.137C771.844 338.482 772.78 340.882 774.736 342.281ZM806.148 229.444L869.482 277.544L786.941 325.277L806.148 229.444ZM490.475 224.916L433.435 170.475L424.349 179.923L481.389 234.364L490.475 224.916ZM429.65 179.824L433.548 175.771L485.159 225.043L481.261 229.096L429.65 179.824ZM41.2478 588.403C42.3109 589.166 43.5583 589.547 44.8057 589.547C45.8546 589.547 46.9177 589.264 47.8816 588.742L150.041 529.654C151.812 528.638 152.946 526.802 153.074 524.768C153.202 522.734 152.309 520.771 150.678 519.543L72.2767 459.989C70.6041 458.704 68.3786 458.379 66.4083 459.128C64.4238 459.862 62.978 461.571 62.5669 463.633L38.7955 582.26C38.3419 584.604 39.2916 587.005 41.2478 588.403ZM72.6453 475.566L135.979 523.666L53.4382 571.4L72.6453 475.566Z" fill="#544179"/>
</svg>
