<svg width="110" height="40" viewBox="0 0 110 40" fill="none" xmlns="http://www.w3.org/2000/svg">
<g clip-path="url(#clip0_5036_37540)">
<path d="M22.3908 18.1444C21.8951 16.7202 21.1804 15.377 20.1142 14.2828C20.0508 14.2191 19.9932 14.1612 19.9298 14.0976C18.7425 12.9223 16.783 12.986 15.7225 14.277C14.9906 15.1686 14.1664 15.8576 13.2212 16.4713C13.6304 16.5986 14.0281 16.7723 14.4027 16.9865C15.2787 17.5018 16.0107 18.2313 16.5121 19.1113C17.0193 19.9797 17.2844 20.9813 17.2844 22.0003C17.2844 23.0193 17.0193 24.0208 16.5121 24.8951C16.0107 25.7693 15.2787 26.5046 14.4085 27.014C13.5324 27.5235 12.5354 27.7898 11.5268 27.7898H10.3683C7.82092 27.7898 5.75762 25.7172 5.75762 23.1582V16.2107H8.06874C9.4923 16.2107 10.887 15.8344 12.1031 15.1223C13.2097 14.4797 14.1606 13.5707 14.8695 12.4707L15.054 12.1581C15.2384 11.8338 15.4055 11.498 15.5381 11.1507C14.2586 10.6701 12.9042 10.4212 11.5268 10.4212H5.75762V0H0V24.3161C0 29.4341 4.12658 33.5794 9.22142 33.5794H11.5268C12.8466 33.5794 14.1434 33.3594 15.371 32.9194C16.7887 32.4157 18.0855 31.6457 19.2151 30.6267C19.5321 30.3372 19.8376 30.0362 20.1142 29.7235C21.1286 28.583 21.8951 27.2804 22.385 25.8619C22.8288 24.6287 23.0478 23.3261 23.0478 22.0003C23.0478 20.6745 22.8288 19.3776 22.3908 18.1444ZM74.3016 22.3824L71.9674 27.6914L65.0168 11.8744H68.8379C70.4862 11.8744 71.9559 12.8702 72.5783 14.4044L74.3477 18.7581C74.8203 19.9218 74.803 21.2303 74.3016 22.3824ZM87.0214 11.8744L75.8001 37.5742C75.1603 39.0505 73.7079 40 72.1057 40H68.4517L79.6846 14.4276C80.3013 12.876 81.7709 11.8744 83.4308 11.8744H87.0214ZM108.38 33.5794C106.156 33.5794 104.346 31.7615 104.346 29.5267V20.6166C104.346 19.3081 104.087 18.3413 103.574 17.745C103.095 17.195 102.381 16.9286 101.384 16.9286C100.6 16.9286 99.9198 17.085 99.355 17.3976C98.8075 17.6987 98.3925 18.1097 98.0871 18.6539C97.7816 19.1981 97.626 19.8582 97.626 20.6166V29.5267C97.626 31.7615 95.8163 33.5794 93.5916 33.5794H91.9664V11.8744H95.2803C96.1794 11.8744 96.9575 12.3838 97.3494 13.1249C97.6491 12.8702 97.966 12.6444 98.3003 12.4475C99.4472 11.7817 100.761 11.4459 102.214 11.4459C104.594 11.4459 106.519 12.2681 107.925 13.8833C109.297 15.4523 109.994 17.5771 109.994 20.1882V33.5794H108.38ZM58.3428 33.5794C56.1181 33.5794 54.3084 31.7615 54.3084 29.5267V0.052106H56.0316C58.2563 0.052106 60.066 1.87002 60.066 4.10479V33.5794H58.3428ZM39.5195 33.562C38.2055 33.562 36.9087 33.3362 35.6754 32.8962C34.2633 32.4041 32.9666 31.6341 31.8369 30.6094C30.1137 29.0635 28.8688 26.9793 28.3328 24.7387C28.1138 23.8587 28.0043 22.9324 28.0043 21.9771C28.0043 20.634 28.2233 19.3313 28.6613 18.1097C29.1512 16.6913 29.9177 15.3944 30.9379 14.2539C33.1279 11.8049 36.2575 10.398 39.5253 10.398C40.8394 10.398 42.1361 10.6238 43.3695 11.0638C44.989 11.6312 46.2512 12.3838 47.2309 13.3681C47.7266 13.866 48.2223 14.5028 48.7121 15.2613C49.3461 16.2397 49.5305 17.4439 49.2078 18.5729C48.8908 19.7018 48.0955 20.6397 47.035 21.1434L37.9807 25.3988L37.2776 23.7082C36.4361 21.6877 37.3179 19.3834 39.2948 18.4629C40.4129 17.9418 41.6059 17.386 42.4185 17.0039C41.5252 16.4771 40.5339 16.1992 39.508 16.1992C38.7645 16.1992 38.0384 16.3381 37.3467 16.616C35.0356 17.5539 33.5429 20.0318 33.7965 22.504C33.8829 23.355 34.0501 23.8356 34.1711 24.0903C34.9722 25.6882 35.7676 26.5798 36.926 27.1588C37.7444 27.564 38.6377 27.7841 39.5138 27.7841C40.6953 27.7841 41.7557 27.2977 42.4416 26.8867C43.0583 26.5219 43.7672 26.3251 44.4818 26.3251C45.1734 26.3251 45.8593 26.5046 46.4587 26.8461L49.1329 28.3572L48.2914 29.4862C46.4414 31.9583 43.0006 33.562 39.5195 33.562Z" fill="#27262C"/>
<path d="M15.054 4.05269C14.3508 2.8253 13.3307 1.80055 12.1089 1.08844C10.887 0.376321 9.4923 0 8.06874 0H0V8.10537C0 10.3401 0.904852 12.3665 2.36299 13.837C3.82113 15.3018 5.83831 16.2107 8.06874 16.2107C9.4923 16.2107 10.887 15.8344 12.1031 15.1223C13.2097 14.4797 14.1606 13.5707 14.8695 12.4707L15.054 12.1581C15.2384 11.8338 15.4055 11.498 15.5381 11.1507C15.9358 10.1838 16.1375 9.15328 16.1375 8.10537C16.1375 6.68693 15.7629 5.28586 15.054 4.05269ZM5.75762 8.09958V5.78955H8.06298C9.33669 5.79534 10.3683 6.83167 10.3683 8.10537C10.3683 9.37907 9.33669 10.4212 8.06874 10.4212C6.79503 10.4212 5.75762 9.38486 5.75762 8.09958Z" fill="#27262C"/>
</g>
<defs>
<clipPath id="clip0_5036_37540">
<rect width="110" height="40" fill="white"/>
</clipPath>
</defs>
</svg>
