<svg width="93" height="22" viewBox="0 0 93 22" fill="none" xmlns="http://www.w3.org/2000/svg">
<g clip-path="url(#clip0_3419_76597)">
<path d="M20.3 6.52C20.87 5.18 21.66 4.03 22.68 3.05C23.7 2.07 24.89 1.32 26.27 0.79C27.64 0.27 29.12 0 30.72 0C32.33 0 33.82 0.26 35.19 0.79C36.56 1.32 37.75 2.07 38.76 3.05C39.77 4.03 40.56 5.18 41.12 6.52C41.68 7.86 41.96 9.33 41.96 10.95C41.96 12.57 41.69 14.05 41.14 15.41C40.59 16.76 39.81 17.94 38.81 18.94C37.8 19.94 36.61 20.71 35.24 21.26C33.86 21.81 32.36 22.08 30.72 22.08C29.07 22.08 27.55 21.81 26.17 21.26C24.79 20.71 23.6 19.94 22.6 18.94C21.59 17.94 20.82 16.77 20.27 15.41C19.72 14.05 19.45 12.57 19.45 10.95C19.45 9.33 19.73 7.86 20.3 6.52ZM25.53 14.22C26.02 15.17 26.71 15.91 27.59 16.45C28.48 16.99 29.52 17.26 30.72 17.26C31.9 17.26 32.93 16.99 33.81 16.45C34.7 15.91 35.38 15.17 35.87 14.22C36.36 13.27 36.6 12.18 36.6 10.95C36.6 9.71 36.36 8.62 35.88 7.68C35.4 6.73 34.72 5.99 33.85 5.45C32.97 4.91 31.93 4.64 30.71 4.64C29.51 4.64 28.47 4.91 27.58 5.45C26.69 5.99 26.01 6.73 25.52 7.68C25.03 8.63 24.79 9.72 24.79 10.95C24.8 12.18 25.04 13.27 25.53 14.22ZM61.63 12.96C61.16 12.17 60.54 11.53 59.75 11.01C59.22 10.66 58.63 10.4 58.02 10.18C58.89 9.77 59.61 9.23 60.16 8.54C60.81 7.72 61.14 6.74 61.14 5.59C61.14 4.33 60.81 3.29 60.16 2.46C59.51 1.63 58.63 1.01 57.52 0.61C56.42 0.2 55.13 0 53.67 0H46.96C46.41 0 45.96 0.45 45.96 1V21C45.96 21.55 46.41 22 46.96 22H54.18C55.84 22 57.28 21.79 58.5 21.36C59.72 20.93 60.67 20.27 61.33 19.37C62 18.47 62.33 17.28 62.33 15.82C62.34 14.7 62.1 13.75 61.63 12.96ZM53.13 4.12C53.99 4.12 54.67 4.31 55.16 4.69C55.65 5.07 55.9 5.63 55.9 6.39C55.9 6.89 55.79 7.32 55.57 7.66C55.35 8.01 55.03 8.27 54.62 8.46C54.21 8.65 53.71 8.74 53.13 8.74H51.03V4.12H53.13ZM56.63 16.74C56.32 17.15 55.91 17.44 55.38 17.62C54.86 17.8 54.27 17.89 53.61 17.89H51.03V12.45H53.61C54.11 12.45 54.57 12.5 54.98 12.59C55.39 12.68 55.75 12.84 56.07 13.05C56.39 13.26 56.64 13.53 56.82 13.87C57 14.21 57.09 14.6 57.09 15.06C57.09 15.77 56.94 16.33 56.63 16.74ZM81.27 15.99C81.8 16.55 82.38 16.97 83.01 17.27C83.64 17.57 84.3 17.72 85.01 17.72C85.75 17.72 86.36 17.54 86.84 17.17C87.32 16.8 87.56 16.3 87.56 15.66C87.56 15.12 87.42 14.69 87.14 14.36C86.86 14.03 86.41 13.72 85.79 13.42C85.17 13.12 84.35 12.79 83.33 12.41C82.83 12.23 82.25 11.98 81.61 11.66C80.96 11.34 80.34 10.93 79.77 10.42C79.19 9.91 78.71 9.3 78.33 8.57C77.95 7.84 77.76 6.97 77.76 5.93C77.76 4.7 78.09 3.63 78.74 2.74C79.39 1.85 80.27 1.17 81.38 0.7C82.49 0.23 83.72 0 85.09 0C86.49 0 87.7 0.23 88.73 0.69C89.76 1.15 90.62 1.72 91.3 2.42C91.68 2.81 92.02 3.21 92.3 3.61C92.64 4.09 92.47 4.76 91.95 5.05L89.78 6.26C89.35 6.5 88.82 6.39 88.52 6C88.35 5.78 88.16 5.58 87.96 5.39C87.57 5.02 87.14 4.73 86.67 4.53C86.2 4.32 85.69 4.22 85.15 4.22C84.43 4.22 83.88 4.37 83.5 4.68C83.12 4.99 82.93 5.37 82.93 5.83C82.93 6.31 83.11 6.72 83.48 7.08C83.85 7.44 84.38 7.77 85.07 8.06C85.76 8.36 86.59 8.68 87.57 9.01C88.31 9.29 89 9.61 89.64 9.98C90.28 10.35 90.85 10.79 91.34 11.31C91.83 11.83 92.22 12.42 92.5 13.1C92.78 13.78 92.92 14.55 92.92 15.43C92.92 16.48 92.71 17.42 92.27 18.25C91.84 19.07 91.26 19.77 90.53 20.32C89.8 20.88 88.97 21.3 88.04 21.59C87.11 21.88 86.15 22.02 85.17 22.02C83.81 22.02 82.55 21.78 81.38 21.29C80.21 20.8 79.19 20.14 78.34 19.31C77.73 18.72 77.22 18.09 76.8 17.42C76.51 16.96 76.62 16.36 77.06 16.05L79.01 14.65C79.46 14.33 80.09 14.43 80.4 14.88C80.65 15.28 80.95 15.65 81.27 15.99ZM71.5 3.48V1C71.5 0.45 71.05 0 70.5 0H67.34C66.79 0 66.34 0.45 66.34 1V3.48C66.34 4.03 66.79 4.48 67.34 4.48H70.5C71.05 4.48 71.5 4.03 71.5 3.48ZM66.34 8.29V21C66.34 21.55 66.79 22 67.34 22H70.51C71.06 22 71.51 21.55 71.51 21V8.29C71.51 7.74 71.06 7.29 70.51 7.29H67.34C66.79 7.29 66.34 7.74 66.34 8.29ZM15.36 16.43C15.07 16.57 14.78 16.7 14.46 16.8C13.7 17.06 12.82 17.19 11.82 17.19C10.68 17.19 9.63 16.95 8.69 16.47C7.74 15.99 6.97 15.29 6.4 14.35C5.82 13.42 5.53 12.32 5.53 11.04C5.53 9.74 5.82 8.63 6.4 7.71C6.98 6.79 7.74 6.09 8.69 5.61C9.64 5.13 10.69 4.89 11.82 4.89C12.82 4.89 13.7 5.01 14.46 5.27C14.72 5.35 14.95 5.46 15.19 5.57L17.21 2.88C17.57 2.41 17.44 1.72 16.93 1.42C16.42 1.12 15.89 0.85 15.33 0.64C14.33 0.26 13.06 0.07 11.52 0.07C9.84 0.07 8.29 0.33 6.87 0.85C5.45 1.36 4.23 2.11 3.21 3.09C2.19 4.07 1.4 5.23 0.84 6.57C0.28 7.91 0 9.4 0 11.04C0 12.68 0.28 14.17 0.84 15.51C1.4 16.85 2.19 18.01 3.21 18.99C4.23 19.97 5.45 20.72 6.87 21.24C8.29 21.76 9.84 22.02 11.52 22.02C13.06 22.02 14.33 21.83 15.33 21.45C15.91 21.23 16.46 20.96 16.98 20.64C17.47 20.34 17.61 19.68 17.28 19.21L15.36 16.43Z" fill="#2D2D2F"/>
</g>
<defs>
<clipPath id="clip0_3419_76597">
<rect width="93" height="22" fill="white"/>
</clipPath>
</defs>
</svg>
